SplineFontDB: 3.0
FontName: LibertinusSans-Regular
FullName: Libertinus Sans Regular
FamilyName: Libertinus Sans
Weight: Regular
Copyright: Copyright (c) 2012-2019 The Libertinus Project Authors.
Version: 6.8
ItalicAngle: 0
UnderlinePosition: -98
UnderlineWidth: 40
Ascent: 800
Descent: 200
InvalidEm: 0
sfntRevision: 0x0006cccc
LayerCount: 2
Layer: 0 0 "Zur+APwA-ck" 1
Layer: 1 0 "Zeichen" 0
XUID: [1021 367 -963850850 1110523]
StyleMap: 0x0040
FSType: 0
OS2Version: 4
OS2_WeightWidthSlopeOnly: 0
OS2_UseTypoMetrics: 1
CreationTime: 1156455862
ModificationTime: 1555759156
PfmFamily: 17
TTFWeight: 400
TTFWidth: 5
LineGap: 0
VLineGap: 0
Panose: 2 0 5 3 0 0 0 0 0 0
OS2TypoAscent: 894
OS2TypoAOffset: 0
OS2TypoDescent: -246
OS2TypoDOffset: 0
OS2TypoLinegap: 0
OS2WinAscent: 894
OS2WinAOffset: 0
OS2WinDescent: 246
OS2WinDOffset: 0
HheadAscent: 894
HheadAOffset: 0
HheadDescent: -246
HheadDOffset: 0
OS2SubXSize: 650
OS2SubYSize: 700
OS2SubXOff: 0
OS2SubYOff: 140
OS2SupXSize: 650
OS2SupYSize: 700
OS2SupXOff: 0
OS2SupYOff: 480
OS2StrikeYSize: 49
OS2StrikeYPos: 258
OS2CapHeight: 658
OS2XHeight: 460
OS2FamilyClass: 2050
OS2Vendor: 'ALIF'
OS2CodePages: 600001bf.00000000
OS2UnicodeRanges: e0000aff.0000e5fb.00000020.00000000
Lookup: 1 0 0 "'locl' Localized Forms in Cyrillic lookup 0" { "'locl' Localized Forms in Cyrillic lookup 0 subtable"  } ['locl' ('cyrl' <'SRB ' > ) ]
Lookup: 1 0 0 "'locl' Localized Forms in Latin lookup 1" { "'locl' Localized Forms in Latin lookup 1 subtable"  } ['locl' ('latn' <'FIN ' 'ISM ' 'LSM ' 'NOR ' 'NSM ' 'SKS ' 'SSM ' 'SVE ' 'TRK ' > ) ]
Lookup: 1 0 0 "Single Substitution lookup 2" { "Single Substitution lookup 2 subtable"  } []
Lookup: 1 0 0 "Single Substitution lookup 3" { "Single Substitution lookup 3 subtable"  } []

StartChar: .notdef
Encoding: 65536 -1 0
Width: 500
Flags: MW
HStem: 0 50<80 420 80 500> 647 51<80 420 80 80>
VStem: 0 50<95 603 95 698> 450 50<95 603 603 603>
LayerCount: 2
Fore
SplineSet
50 603 m 1
 50 95 l 1
 220 349 l 1
 50 603 l 1
80 50 m 1
 420 50 l 1
 250 304 l 1
 80 50 l 1
280 349 m 1
 450 95 l 1
 450 603 l 1
 280 349 l 1
250 394 m 1
 420 647 l 1
 80 647 l 1
 250 394 l 1
0 0 m 1
 0 698 l 1
 500 698 l 1
 500 0 l 1
 0 0 l 1
EndSplineSet
Validated: 1
EndChar

StartChar: exclam
Encoding: 33 33 2
Width: 228
GlyphClass: 2
Flags: MW
HStem: -10.75 112.5<97.4751 128.525> 638 20G<102 126.5>
VStem: 56.75 112.5<29.9751 61.0249>
LayerCount: 2
Fore
SplineSet
56.75 45.5 m 0
 56.75 76.5498046875 81.9501953125 101.75 113 101.75 c 0
 144.049804688 101.75 169.25 76.5498046875 169.25 45.5 c 0
 169.25 14.4501953125 144.049804688 -10.75 113 -10.75 c 0
 81.9501953125 -10.75 56.75 14.4501953125 56.75 45.5 c 0
113 658 m 0
 140 658 169 635 169 585 c 0
 169 520 153 478 143 392 c 0
 130 284 129 224 127 210 c 0
 126 199 123 190 113 190 c 0
 102 190 100 197 99 203 c 0
 97 224 92 314 84 392 c 0
 75 480 59 515 59 585 c 0
 59 639 91 658 113 658 c 0
EndSplineSet
Validated: 524289
EndChar

StartChar: quotedbl
Encoding: 34 34 3
Width: 336
GlyphClass: 2
Flags: MW
HStem: 427 218<215 253>
VStem: 63 86<603 605> 189 86<604 606>
LayerCount: 2
Fore
SplineSet
215 427 m 1
 215 427 189 586 189 595 c 0
 189 617 210 645 240 645 c 0
 266 645 275 628 275 612 c 0
 275 596 242 431 242 431 c 1
 215 427 l 1
89 426 m 1
 89 426 63 585 63 594 c 0
 63 616 84 644 114 644 c 0
 140 644 149 627 149 611 c 0
 149 595 116 430 116 430 c 1
 89 426 l 1
EndSplineSet
Validated: 1
EndChar

StartChar: numbersign
Encoding: 35 35 4
Width: 470
GlyphClass: 2
Flags: MW
HStem: 195 52<34 123 27 131 167 276 34 159 319 408> 364 53<62 150 53 158 193 303 62 186 346 435>
LayerCount: 2
Fore
SplineSet
285 247 m 1
 303 364 l 1
 186 364 l 1
 167 247 l 1
 285 247 l 1
339 364 m 1
 319 247 l 1
 416 247 l 1
 408 195 l 1
 313 195 l 1
 283 14 l 1
 248 14 l 1
 276 195 l 1
 159 195 l 1
 129 14 l 1
 94 14 l 1
 123 195 l 1
 27 195 l 1
 34 247 l 1
 131 247 l 1
 150 364 l 1
 53 364 l 1
 62 417 l 1
 158 417 l 1
 187 598 l 1
 223 598 l 1
 193 417 l 1
 312 417 l 1
 340 598 l 1
 375 598 l 1
 346 417 l 1
 443 417 l 1
 435 364 l 1
 339 364 l 1
EndSplineSet
Validated: 1
EndChar

StartChar: dollar
Encoding: 36 36 5
Width: 465
GlyphClass: 2
Flags: MW
HStem: -9.7 42.3 572 37.9 674.5 20G
VStem: 57 68 343 79
LayerCount: 2
Fore
SplineSet
214 365.299804688 m 1
 225.400390625 571.999023438 l 1
 224 571.999023438 l 2
 163 571.999023438 125 529.999023438 125 473.999023438 c 0
 125 415.899414062 173.5 383.899414062 214 365.299804688 c 1
245.100585938 263.999023438 m 1
 232.401367188 31.5 l 1
 290.401367188 36.099609375 343.000976562 71.19921875 343.000976562 139.999023438 c 0
 343.000976562 216.999023438 297.100585938 242.899414062 245.100585938 263.999023438 c 1
230.1015625 -9.2001953125 m 1
 225.502929688 -93.2001953125 l 1
 218.203125 -97.400390625 198.603515625 -98.30078125 188.603515625 -98.30078125 c 1
 193.403320312 -9.701171875 l 1
 91.703125 -5.80078125 43.0029296875 32.9990234375 43.0029296875 32.9990234375 c 1
 41.0029296875 35.9990234375 l 1
 48.0029296875 63.9990234375 56.0029296875 93.9990234375 60.0029296875 126.999023438 c 1
 69.0029296875 127.999023438 l 1
 92.802734375 77.69921875 139.102539062 40.69921875 195.702148438 32.599609375 c 1
 209.202148438 278.5 l 1
 132.90234375 310.799804688 57.001953125 356.5 57.001953125 450 c 0
 57.001953125 545.799804688 147.702148438 607.099609375 227.40234375 609.899414062 c 1
 231.802734375 689.499023438 l 1
 241.002929688 692.999023438 256.002929688 694.499023438 268.802734375 694.499023438 c 1
 264.002929688 608.899414062 l 1
 353.002929688 602.19921875 384.002929688 567.999023438 384.002929688 567.999023438 c 1
 386.002929688 564.999023438 l 1
 377.002929688 536.999023438 371.002929688 509.999023438 368.002929688 476.999023438 c 1
 358.002929688 475.999023438 l 1
 337.302734375 521.399414062 307.102539062 555.299804688 261.802734375 567.299804688 c 1
 249.90234375 350.700195312 l 1
 327.702148438 322.700195312 422.001953125 279.600585938 422.001953125 173.000976562 c 0
 422.001953125 125.600585938 401.6015625 74.900390625 362.001953125 41 c 0
 327.202148438 11.2001953125 277.501953125 -5.5 230.1015625 -9.2001953125 c 1
EndSplineSet
Validated: 524289
EndChar

StartChar: percent
Encoding: 37 37 6
Width: 680
GlyphClass: 2
Flags: MW
HStem: -13 31<500 539.5 500 547.5> 240 33<533 566.5> 324 31<156.5 195.5 156.5 204> 517 40<379.5 394> 577 33<189 218 164.5 224.5>
VStem: 63 55<413 456 397 481> 263 33<481 518 479 538.5> 406 56<76.5 120 61 145> 607 32<145 203>
LayerCount: 2
Fore
SplineSet
462 89 m 0
 462 33 490 18 510 18 c 0
 569 18 607 115 607 175 c 0
 607 231 574 240 559 240 c 0
 507 240 462 151 462 89 c 0
406 105 m 0
 406 185 468 273 547 273 c 0
 590 273 639 254 639 176 c 0
 639 104 592 -13 503 -13 c 0
 438 -13 406 48 406 105 c 0
389 557 m 0
 434 557 516 569 549 614 c 1
 583 597 l 1
 145 -13 l 1
 109 3 l 1
 492 537 l 1
 451 521 410 517 378 517 c 0
 353 517 313 527 293 539 c 1
 295 532 296 523 296 513 c 0
 296 445 249 324 159 324 c 0
 93 324 63 386 63 440 c 0
 63 522 126 610 203 610 c 0
 233 610 264 596 275 583 c 1
 333 556 370 557 389 557 c 0
118 425 m 0
 118 369 147 355 166 355 c 0
 225 355 263 450 263 512 c 0
 263 565 234 577 215 577 c 0
 163 577 118 487 118 425 c 0
EndSplineSet
Validated: 33
EndChar

StartChar: ampersand
Encoding: 38 38 7
Width: 710
GlyphClass: 2
Flags: MW
HStem: -10 40<220.5 287.5 220.5 287.5> -10 54<568 587.5> 412 20G 619 39<318 351.5>
VStem: 44 89<107 191.5 107 202> 179 76<512.5 551.5> 396 67<526 566.5> 652 16<90 98>
LayerCount: 2
Fore
SplineSet
255 338 m 1xbf
 152 281 133 227 133 156 c 0
 133 58 189 30 252 30 c 0
 323 30 348 66 397 133 c 1
 340 208 266 317 255 338 c 1xbf
293 411 m 1
 357 453 396 508 396 544 c 0
 396 589 372 619 331 619 c 0
 305 619 255 590 255 524 c 0
 255 501 265 457 293 411 c 1
437 192 m 1
 508 297 533 366 541 432 c 1
 551 429 570 429 580 429 c 0
 590 429 613 429 623 432 c 1
 584 365 487.299804688 187 465 153 c 1
 499 107 l 2
 530 63 560 44 576 44 c 0
 609 44 632 59 652 98 c 1
 668 90 l 1
 645 20 605 -10 570 -10 c 0x7f
 539 -10 502 -8 455 57 c 2
 426 94 l 1
 380 31 330 -10 245 -10 c 0
 138 -10 44 38 44 166 c 0
 44 238 101 301 233 375 c 1
 195 434 179 484 179 522 c 0
 179 581 236 658 336 658 c 0
 406 658 463 607 463 544 c 0
 463 489 398 419 315 371 c 1
 319 363 l 2
 337 332 391 254 437 192 c 1
EndSplineSet
Validated: 524289
Substitution2: "'ss06' Style Set 6 lookup 27 subtable" ampersand.alt
AlternateSubs2: "'salt' Stylistic Alternatives lookup 20 subtable" ampersand.alt
EndChar

StartChar: quotesingle
Encoding: 39 39 8
Width: 190
GlyphClass: 2
Flags: MW
HStem: 426 218<79 117>
VStem: 53 86<603 605>
LayerCount: 2
Fore
SplineSet
79 426 m 1
 79 426 53 585 53 594 c 0
 53 616 74 644 104 644 c 0
 130 644 139 627 139 611 c 0
 139 595 106 430 106 430 c 1
 79 426 l 1
EndSplineSet
Validated: 1
EndChar

StartChar: parenleft
Encoding: 40 40 9
Width: 300
GlyphClass: 2
Flags: MW
VStem: 44 83<229.5 345>
LayerCount: 2
Fore
SplineSet
44 252 m 0
 44 438 137 605 256 707 c 1
 279 689 l 1
 247 653 127 515 127 252 c 0
 127 -11 246 -149 279 -187 c 1
 256 -204 l 1
 48 -24 44 207 44 252 c 0
EndSplineSet
Validated: 1
Substitution2: "'c2sc' Capitals to Small Capitals lookup 12 subtable" parenleft.sc
Substitution2: "'case' Case-Sensitive Forms lookup 8 subtable" parenleft.sc
Substitution2: "'subs' Subscript lookup 7 subtable" uni208D
Substitution2: "'sups' Superscript lookup 6 subtable" uni207D
Substitution2: "Single Substitution lookup 3 subtable" uni207D
Substitution2: "Single Substitution lookup 2 subtable" uni208D
EndChar

StartChar: parenright
Encoding: 41 41 10
Width: 300
GlyphClass: 2
Flags: MW
VStem: 173 83<159 274.5 159 383.5>
LayerCount: 2
Fore
SplineSet
256 252 m 0
 256 66 163 -101 44 -203 c 1
 21 -185 l 1
 53 -149 173 -11 173 252 c 0
 173 515 54 653 21 691 c 1
 44 708 l 1
 252 528 256 297 256 252 c 0
EndSplineSet
Validated: 1
Substitution2: "'c2sc' Capitals to Small Capitals lookup 12 subtable" parenright.sc
Substitution2: "'case' Case-Sensitive Forms lookup 8 subtable" parenright.sc
Substitution2: "'subs' Subscript lookup 7 subtable" uni208E
Substitution2: "'sups' Superscript lookup 6 subtable" uni207E
Substitution2: "Single Substitution lookup 3 subtable" uni207E
Substitution2: "Single Substitution lookup 2 subtable" uni208E
EndChar

StartChar: asterisk
Encoding: 42 42 11
Width: 433
GlyphClass: 2
Flags: MW
HStem: 571 67<96 163.5>
VStem: 181 63<669.5 689.5>
LayerCount: 2
Fore
SplineSet
198 567 m 1
 185 570 171 571 156 571 c 0
 107 571 75 578 75 608 c 0
 75 622 84 638 108 638 c 0
 142 638 160 605 204 587 c 1
 200 626 181 653 181 679 c 0
 181 700 193 718 211 718 c 0
 229 718 244 707 244 683 c 0
 244 656 227 616 225 586 c 1
 271 606 287 638 320 638 c 0
 347 638 354 618 354 608 c 0
 354 578 319 571 285 571 c 0
 266 571 248 570 230 567 c 1
 264 530 313 520 313 480 c 0
 313 462 298 451 284 451 c 0
 245 451 238 516 213 555 c 1
 188 510 181 451 143 451 c 0
 126 451 114 464 114 479 c 0
 114 522 165 530 198 567 c 1
EndSplineSet
Validated: 1
EndChar

StartChar: plus
Encoding: 43 43 12
Width: 527
GlyphClass: 2
Flags: MW
HStem: 208 49<66 238 66 238 289 461> 411 20G<238 289 289 289>
VStem: 238 51<34 208 34 208 257 431>
LayerCount: 2
Fore
SplineSet
289 257 m 1
 461 257 l 1
 461 208 l 1
 289 208 l 1
 289 34 l 1
 238 34 l 1
 238 208 l 1
 66 208 l 1
 66 257 l 1
 238 257 l 1
 238 431 l 1
 289 431 l 1
 289 257 l 1
EndSplineSet
Validated: 1
Substitution2: "'subs' Subscript lookup 7 subtable" uni208A
Substitution2: "'sups' Superscript lookup 6 subtable" uni207A
Substitution2: "Single Substitution lookup 3 subtable" uni207A
Substitution2: "Single Substitution lookup 2 subtable" uni208A
EndChar

StartChar: comma
Encoding: 44 44 13
Width: 220
GlyphClass: 2
Flags: MW
HStem: -3.09961 105<87.5098 102>
VStem: 131 39<-44 -16.75>
LayerCount: 2
Fore
SplineSet
102 101.900390625 m 0
 138 102 170 70.7998046875 170 -3 c 0
 170 -85 120 -112.299804688 66 -144 c 1
 59.2001953125 -138.099609375 53 -133 53 -123 c 1
 102 -90 131 -62 131 -29 c 0
 131 -4.5 114.5 -3 102 -3.099609375 c 0
 73.01953125 -3.099609375 49.5 20.419921875 49.5 49.400390625 c 0
 49.5 78.3798828125 73.01953125 101.900390625 102 101.900390625 c 0
EndSplineSet
Validated: 524321
EndChar

StartChar: hyphen
Encoding: 45 45 14
Width: 333
GlyphClass: 2
Flags: MW
HStem: 236 54<43.5 287 58 274>
VStem: 33 268<248.5 276.5>
LayerCount: 2
Fore
SplineSet
274 236 m 2
 48 236 l 2
 39 236 33 244 33 253 c 0
 33 269 46 290 58 290 c 2
 287 290 l 2
 297 290 301 281 301 272 c 0
 301 261 287 236 274 236 c 2
EndSplineSet
Validated: 1
Substitution2: "'c2sc' Capitals to Small Capitals lookup 12 subtable" hyphen.sc
Substitution2: "'smcp' Lowercase to Small Capitals lookup 10 subtable" hyphen.sc
Substitution2: "'case' Case-Sensitive Forms lookup 8 subtable" hyphen.cap
Substitution2: "'subs' Subscript lookup 7 subtable" uni208B
Substitution2: "'sups' Superscript lookup 6 subtable" uni207B
Substitution2: "Single Substitution lookup 3 subtable" uni207B
Substitution2: "Single Substitution lookup 2 subtable" uni208B
EndChar

StartChar: period
Encoding: 46 46 15
Width: 220
GlyphClass: 2
Flags: MW
HStem: -10.75 112.5<94.4751 125.525>
VStem: 53.75 112.5<29.9751 61.0249>
LayerCount: 2
Fore
SplineSet
53.75 45.5 m 0
 53.75 76.5498046875 78.9501953125 101.75 110 101.75 c 0
 141.049804688 101.75 166.25 76.5498046875 166.25 45.5 c 0
 166.25 14.4501953125 141.049804688 -10.75 110 -10.75 c 0
 78.9501953125 -10.75 53.75 14.4501953125 53.75 45.5 c 0
EndSplineSet
Validated: 524289
EndChar

StartChar: slash
Encoding: 47 47 16
Width: 323
GlyphClass: 2
Flags: MW
HStem: 626 20G<252 293 293 293>
VStem: 15 278
LayerCount: 2
Fore
SplineSet
293 646 m 1
 56 -59 l 1
 15 -59 l 1
 252 646 l 1
 293 646 l 1
EndSplineSet
Validated: 1
Substitution2: "'sups' Superscript lookup 6 subtable" fraction
Substitution2: "Single Substitution lookup 3 subtable" fraction
EndChar

StartChar: zero
Encoding: 48 48 17
Width: 650
VWidth: 0
GlyphClass: 2
Flags: MW
HStem: 0 82.2568<261.909 387.223> 515.322 84.6777<262.25 388.88>
VStem: 152.032 48.3867<324.198 352.781> 449.613 48.3877<324.198 351.16>
LayerCount: 2
Fore
SplineSet
602.033203125 333.870117188 m 1
 573.000976562 304.83984375 l 1
 570.58203125 108.87109375 476.2265625 0 318.967773438 0 c 0
 159.290039062 0 74.61328125 111.290039062 74.61328125 300 c 0
 74.61328125 302.4140625 74.61328125 302.4140625 74.61328125 304.837890625 c 2
 48 336.2890625 l 1
 79.451171875 362.90234375 l 1
 98.8056640625 515.322265625 185.903320312 600 326.225585938 600 c 0
 466.548828125 600 553.646484375 520.161132812 570.58203125 362.90234375 c 1
 602.033203125 333.870117188 l 1
137.515625 324.192382812 m 0
 144.771484375 324.192382812 152.032226562 331.448242188 152.032226562 338.708984375 c 0
 152.032226562 345.96484375 144.776367188 353.225585938 137.515625 353.225585938 c 0
 130.259765625 353.225585938 122.999023438 345.969726562 122.999023438 338.708984375 c 0
 122.999023438 331.453125 130.254882812 324.192382812 137.515625 324.192382812 c 0
326.225585938 82.2568359375 m 0
 403.645507812 82.2568359375 449.61328125 159.67578125 449.61328125 302.41796875 c 0
 449.61328125 440.322265625 408.484375 515.322265625 321.387695312 515.322265625 c 0
 246.387695312 515.322265625 200.418945312 440.322265625 200.418945312 304.837890625 c 0
 200.418945312 159.67578125 239.12890625 82.2568359375 326.225585938 82.2568359375 c 0
512.517578125 324.192382812 m 0
 519.7734375 324.192382812 524.610351562 331.448242188 527.033203125 338.708984375 c 0
 527.033203125 345.96484375 519.77734375 353.225585938 512.517578125 353.225585938 c 0
 505.26171875 353.225585938 498.000976562 345.969726562 498.000976562 338.708984375 c 0
 498.000976562 331.453125 505.256835938 324.192382812 512.517578125 324.192382812 c 0
EndSplineSet
Validated: 524289
Substitution2: "'zero' Slashed Zero lookup 19 subtable" zero.slash
Substitution2: "'pnum' Proportional Numbers lookup 17 subtable" zero.fitted
Substitution2: "'onum' Oldstyle Figures lookup 15 subtable" zero.taboldstyle
Substitution2: "'case' Case-Sensitive Forms lookup 8 subtable" zero.cap
Substitution2: "'subs' Subscript lookup 7 subtable" uni2080
Substitution2: "'sups' Superscript lookup 6 subtable" uni2070
Substitution2: "Single Substitution lookup 3 subtable" uni2070
Substitution2: "Single Substitution lookup 2 subtable" uni2080
EndChar

StartChar: one
Encoding: 49 49 18
Width: 364
VWidth: 0
GlyphClass: 2
Flags: MW
HStem: 0 21G<108.546 317.788> 0 21G<108.546 317.788> 580 20G<71.3658 88.3774> 580 20G<71.3658 88.3774>
VStem: 153.924 118.486<36.9961 302.522 368.068 494.048>
LayerCount: 2
Fore
SplineSet
272.41015625 138.65625 m 1xa8
 272.41015625 138.658203125 l 2
 272.41015625 65.5498046875 297.620117188 22.6923828125 317.788085938 2.525390625 c 1
 317.788085938 0 l 1
 108.545898438 0 l 1
 108.545898438 2.525390625 l 1
 128.713867188 17.6513671875 153.923828125 63.0283203125 153.923828125 136.137695312 c 2
 153.923828125 302.522460938 l 1
 121.150390625 335.295898438 l 1
 153.923828125 368.068359375 l 1
 153.923828125 496.638671875 l 1
 108.545898438 494.1171875 78.2939453125 481.512695312 45.521484375 451.260742188 c 1
 43 451.260742188 l 1
 75.7724609375 600 l 1
 100.982421875 594.959960938 133.755859375 594.959960938 196.780273438 594.959960938 c 2
 317.788085938 594.959960938 l 1
 317.788085938 592.434570312 l 1
 297.620117188 577.30859375 272.41015625 531.930664062 272.41015625 458.822265625 c 2
 272.41015625 365.545898438 l 1
 302.662109375 335.293945312 l 1
 272.41015625 305.041992188 l 1
 272.41015625 138.65625 l 1xa8
214.427734375 327.73046875 m 0
 224.510742188 327.73046875 229.552734375 335.291015625 229.552734375 342.856445312 c 0
 229.552734375 350.416992188 221.989257812 357.982421875 214.427734375 357.982421875 c 0
 206.864257812 357.982421875 199.301757812 350.421875 199.301757812 342.856445312 c 0
 199.301757812 335.295898438 206.865234375 327.73046875 214.427734375 327.73046875 c 0
EndSplineSet
Validated: 524293
Substitution2: "'pnum' Proportional Numbers lookup 17 subtable" one.fitted
Substitution2: "'onum' Oldstyle Figures lookup 15 subtable" one.taboldstyle
Substitution2: "'case' Case-Sensitive Forms lookup 8 subtable" one.cap
Substitution2: "'subs' Subscript lookup 7 subtable" uni2081
Substitution2: "'sups' Superscript lookup 6 subtable" uni00B9
Substitution2: "Single Substitution lookup 3 subtable" uni00B9
Substitution2: "Single Substitution lookup 2 subtable" uni2081
EndChar

StartChar: two
Encoding: 50 50 19
Width: 530
VWidth: 0
GlyphClass: 2
Flags: MW
HStem: -2.52246 98.3896<235.13 433.383> 509.61 90.8213<135.355 285.194>
VStem: 318.556 123.873<363.996 478.541>
LayerCount: 2
Fore
SplineSet
477.821289062 156.415039062 m 1
 450.012695312 -7.568359375 l 1
 412.092773438 -2.5224609375 379.228515625 -2.5224609375 316.02734375 -2.5224609375 c 2
 43 -2.5224609375 l 1
 43 0 l 1
 209.849609375 211.916992188 l 2
 240.186523438 249.759765625 262.938476562 282.555664062 280.634765625 307.784179688 c 1
 267.995117188 348.149414062 l 1
 310.971679688 363.286132812 l 2
 316.02734375 378.422851562 318.555664062 393.560546875 318.555664062 408.697265625 c 0
 321.083007812 479.3359375 273.05078125 509.610351562 219.961914062 509.610351562 c 0
 171.9296875 509.610351562 123.897460938 496.99609375 80.9208984375 436.448242188 c 1
 78.392578125 436.448242188 l 1
 103.672851562 572.680664062 l 1
 151.705078125 590.33984375 199.73828125 600.431640625 252.826171875 600.431640625 c 0
 366.587890625 600.431640625 442.428710938 527.26953125 442.428710938 423.833984375 c 0
 442.428710938 396.083007812 439.900390625 373.377929688 429.7890625 348.149414062 c 1
 442.428710938 307.784179688 l 1
 401.98046875 295.169921875 l 1
 384.284179688 264.896484375 356.475585938 232.099609375 318.555664062 189.211914062 c 2
 235.129882812 95.8671875 l 1
 351.419921875 95.8671875 l 2
 401.98046875 95.8671875 437.373046875 111.00390625 477.821289062 156.415039062 c 1
359.00390625 350.671875 m 0
 351.419921875 350.671875 346.36328125 343.103515625 343.8359375 335.53515625 c 0
 343.8359375 327.966796875 351.419921875 320.3984375 359.00390625 320.3984375 c 0
 366.587890625 320.3984375 374.171875 327.966796875 374.171875 335.53515625 c 0
 374.171875 343.103515625 366.587890625 350.671875 359.00390625 350.671875 c 0
EndSplineSet
Validated: 524321
Substitution2: "'pnum' Proportional Numbers lookup 17 subtable" two.fitted
Substitution2: "'onum' Oldstyle Figures lookup 15 subtable" two.taboldstyle
Substitution2: "'case' Case-Sensitive Forms lookup 8 subtable" two.cap
Substitution2: "'subs' Subscript lookup 7 subtable" uni2082
Substitution2: "'sups' Superscript lookup 6 subtable" uni00B2
Substitution2: "Single Substitution lookup 3 subtable" uni00B2
Substitution2: "Single Substitution lookup 2 subtable" uni2082
EndChar

StartChar: three
Encoding: 51 51 20
Width: 535
VWidth: 0
GlyphClass: 2
Flags: MW
HStem: 0 84.6475<107.752 304.471> 288.797 47.3027<233.691 263.016> 495.436 99.585<90.7481 279.277> 580 20G<84.4823 108.979>
VStem: 349.006 134.094<126.813 247.773>
LayerCount: 2
Fore
SplineSet
311.459960938 373.444335938 m 1xe8
 413.37109375 353.52734375 480.41796875 288.796875 483.099609375 201.66015625 c 0
 483.099609375 82.1572265625 378.506835938 0 241.731445312 0 c 0
 182.73046875 0 123.728515625 7.46875 72.7734375 32.365234375 c 1
 54 154.356445312 l 1
 56.681640625 154.356445312 l 1
 88.8642578125 102.07421875 137.137695312 84.6474609375 231.00390625 84.6474609375 c 0
 295.369140625 84.6474609375 349.005859375 121.991210938 349.005859375 189.211914062 c 0
 349.005859375 258.920898438 287.323242188 288.796875 198.821289062 288.796875 c 0
 182.73046875 288.796875 166.638671875 288.796875 145.18359375 286.306640625 c 1
 145.18359375 288.796875 l 1
 166.638671875 323.651367188 l 1
 155.911132812 365.974609375 l 1
 201.502929688 375.93359375 l 1
 279.27734375 495.435546875 l 1
 188.09375 495.435546875 l 2xe8
 126.41015625 495.435546875 88.8642578125 485.477539062 59.36328125 453.112304688 c 1
 56.681640625 453.112304688 l 1
 88.8642578125 600 l 1xd8
 129.092773438 595.020507812 166.638671875 595.020507812 228.322265625 595.020507812 c 2
 453.599609375 595.020507812 l 1
 453.599609375 592.53125 l 1
 311.459960938 373.444335938 l 1xe8
249.77734375 336.099609375 m 0
 260.50390625 336.099609375 265.868164062 343.568359375 265.868164062 351.037109375 c 0
 265.868164062 358.505859375 257.822265625 365.974609375 249.77734375 365.974609375 c 0
 241.731445312 365.974609375 233.685546875 358.505859375 233.685546875 351.037109375 c 0
 233.685546875 343.568359375 241.731445312 336.099609375 249.77734375 336.099609375 c 0
EndSplineSet
Validated: 524289
Substitution2: "'pnum' Proportional Numbers lookup 17 subtable" three.fitted
Substitution2: "'onum' Oldstyle Figures lookup 15 subtable" three.taboldstyle
Substitution2: "'case' Case-Sensitive Forms lookup 8 subtable" three.cap
Substitution2: "'subs' Subscript lookup 7 subtable" uni2083
Substitution2: "'sups' Superscript lookup 6 subtable" uni00B3
Substitution2: "Single Substitution lookup 3 subtable" uni00B3
Substitution2: "Single Substitution lookup 2 subtable" uni2083
EndChar

StartChar: four
Encoding: 52 52 21
Width: 533
VWidth: 0
GlyphClass: 2
Flags: MW
HStem: 0 21G<267.215 440.634> 0 21G<267.215 440.634> 142.979 89.3623<180.506 307.234> 580 20G<171.612 320.574> 580 20G<171.612 320.574>
VStem: 311.682 88.9326<38.1085 142.979 232.341 329.361> 311.682 28.9023<347.24 376.577>
LayerCount: 2
Fore
SplineSet
467.313476562 137.872070312 m 1xb4
 445.080078125 140.42578125 422.846679688 142.978515625 400.614257812 145.532226562 c 1
 400.614257812 135.319335938 l 2
 400.614257812 61.2763671875 422.846679688 17.8720703125 440.633789062 2.552734375 c 1
 440.633789062 0 l 1
 267.21484375 0 l 1
 267.21484375 2.552734375 l 1
 285.001953125 17.8720703125 307.234375 63.830078125 307.234375 137.872070312 c 2
 307.234375 142.978515625 l 1
 56 142.978515625 l 1
 56 145.532226562 l 1
 109.359375 331.915039062 l 1
 91.5732421875 372.765625 l 1
 127.146484375 393.19140625 l 1
 158.272460938 500.42578125 l 2
 171.612304688 543.830078125 173.8359375 574.467773438 171.612304688 600 c 1
 320.57421875 600 l 1
 320.57421875 597.447265625 l 1
 293.89453125 569.361328125 273.884765625 525.95703125 247.205078125 441.702148438 c 2
 180.505859375 232.340820312 l 1
 311.681640625 232.340820312 l 1
 311.681640625 329.361328125 l 2
 311.681640625 370.212890625 305.01171875 413.6171875 296.118164062 428.936523438 c 2
 296.118164062 431.489257812 l 1
 422.846679688 467.234375 l 1
 422.846679688 464.680664062 l 2
 411.73046875 451.915039062 405.060546875 428.936523438 402.836914062 393.19140625 c 1
 429.516601562 362.552734375 l 1
 400.614257812 329.361328125 l 1
 400.614257812 232.340820312 l 1
 433.963867188 234.893554688 460.643554688 245.106445312 482.876953125 275.745117188 c 1
 485.099609375 275.745117188 l 1
 467.313476562 137.872070312 l 1xb4
156.048828125 362.552734375 m 0
 156.048828125 354.893554688 162.71875 347.234375 169.388671875 347.234375 c 0
 176.05859375 347.234375 182.729492188 354.893554688 182.729492188 362.552734375 c 0
 182.729492188 370.212890625 176.05859375 377.872070312 169.388671875 377.872070312 c 0
 162.71875 377.872070312 156.048828125 370.212890625 156.048828125 362.552734375 c 0
353.924804688 347.234375 m 0
 362.817382812 347.234375 367.264648438 354.893554688 367.264648438 362.552734375 c 0
 367.264648438 370.212890625 360.594726562 377.872070312 353.924804688 377.872070312 c 0
 347.25390625 377.872070312 340.583984375 370.212890625 340.583984375 362.552734375 c 0x22
 340.583984375 354.893554688 347.25390625 347.234375 353.924804688 347.234375 c 0
EndSplineSet
Validated: 524321
Substitution2: "'pnum' Proportional Numbers lookup 17 subtable" four.fitted
Substitution2: "'onum' Oldstyle Figures lookup 15 subtable" four.taboldstyle
Substitution2: "'case' Case-Sensitive Forms lookup 8 subtable" four.cap
Substitution2: "'subs' Subscript lookup 7 subtable" uni2084
Substitution2: "'sups' Superscript lookup 6 subtable" uni2074
Substitution2: "Single Substitution lookup 3 subtable" uni2074
Substitution2: "Single Substitution lookup 2 subtable" uni2084
EndChar

StartChar: five
Encoding: 53 53 22
Width: 532
VWidth: 0
GlyphClass: 2
Flags: MW
HStem: 0 87.1367<112.914 304.157> 293.776 54.7715<118.626 149.42> 497.926 97.0947<191.289 411.472> 580 20G<400.606 424.928>
VStem: 348.276 130.823<128.101 249.997>
LayerCount: 2
Fore
SplineSet
233.15234375 383.40234375 m 0xe8
 379.674804688 383.40234375 476.483398438 323.651367188 479.099609375 201.66015625 c 0
 479.099609375 79.66796875 374.44140625 0 233.15234375 0 c 0
 175.58984375 0 118.028320312 12.4482421875 76.1650390625 32.365234375 c 1
 57.849609375 156.846679688 l 1
 60.4658203125 156.846679688 l 1
 86.630859375 112.033203125 141.576171875 87.13671875 220.0703125 87.13671875 c 0
 301.180664062 87.13671875 348.276367188 126.970703125 348.276367188 191.701171875 c 0
 348.276367188 261.411132812 280.249023438 293.776367188 196.521484375 293.776367188 c 0
 141.576171875 293.776367188 110.178710938 288.796875 78.78125 283.817382812 c 2
 76.1650390625 283.817382812 l 1
 78.78125 331.120117188 l 1
 50 363.485351562 l 1
 84.013671875 393.361328125 l 1
 99.712890625 595.020507812 l 1
 282.865234375 595.020507812 l 2xe8
 337.810546875 595.020507812 379.674804688 597.510742188 421.538085938 600 c 1xd8
 447.702148438 445.643554688 l 1
 445.0859375 445.643554688 l 1
 413.688476562 485.477539062 377.057617188 497.92578125 306.413085938 497.92578125 c 2
 191.2890625 497.92578125 l 1
 183.439453125 380.913085938 l 1
 201.754882812 383.40234375 217.454101562 383.40234375 233.15234375 383.40234375 c 0xe8
133.7265625 348.547851562 m 0
 141.576171875 348.547851562 149.42578125 356.016601562 149.42578125 363.485351562 c 0
 149.42578125 370.954101562 141.576171875 378.422851562 133.7265625 378.422851562 c 0
 125.876953125 378.422851562 118.028320312 370.954101562 118.028320312 363.485351562 c 0
 118.028320312 356.016601562 125.876953125 348.547851562 133.7265625 348.547851562 c 0
EndSplineSet
Validated: 524289
Substitution2: "'pnum' Proportional Numbers lookup 17 subtable" five.fitted
Substitution2: "'onum' Oldstyle Figures lookup 15 subtable" five.taboldstyle
Substitution2: "'case' Case-Sensitive Forms lookup 8 subtable" five.cap
Substitution2: "'subs' Subscript lookup 7 subtable" uni2085
Substitution2: "'sups' Superscript lookup 6 subtable" uni2075
Substitution2: "Single Substitution lookup 3 subtable" uni2075
Substitution2: "Single Substitution lookup 2 subtable" uni2085
EndChar

StartChar: six
Encoding: 54 54 23
Width: 532
VWidth: 0
GlyphClass: 2
Flags: MW
HStem: 0 90.2441<225.219 337.268> 317.073 85.3662<223.931 336.055> 517.073 82.9268<247.846 402.937>
VStem: 71.4639 119.059<140.328 307.031> 370.232 107.826<124.859 279.164>
LayerCount: 2
Fore
SplineSet
296.1015625 402.439453125 m 0
 390.450195312 402.439453125 480.3046875 339.024414062 478.05859375 207.317382812 c 0
 478.05859375 97.560546875 406.174804688 0 275.884765625 0 c 0
 152.333984375 0 71.4638671875 95.1220703125 71.4638671875 287.8046875 c 0
 71.4638671875 302.439453125 73.7099609375 314.633789062 73.7099609375 326.829101562 c 2
 49 360.975585938 l 1
 80.44921875 387.8046875 l 1
 107.40625 524.390625 192.768554688 600 311.826171875 600 c 0
 352.26171875 600 388.203125 597.560546875 421.899414062 587.8046875 c 1
 433.130859375 468.29296875 l 1
 430.884765625 468.29296875 l 1
 406.174804688 504.877929688 365.739257812 517.073242188 311.826171875 517.073242188 c 0
 242.188476562 517.073242188 179.290039062 451.219726562 170.3046875 343.90234375 c 1
 172.55078125 343.90234375 l 1
 206.247070312 385.366210938 244.435546875 402.439453125 296.1015625 402.439453125 c 0
125.376953125 346.341796875 m 0
 132.116210938 346.341796875 136.608398438 353.658203125 138.85546875 360.975585938 c 0
 138.85546875 368.29296875 132.116210938 375.609375 125.376953125 375.609375 c 0
 118.637695312 375.609375 111.8984375 368.29296875 111.8984375 360.975585938 c 0
 111.8984375 353.658203125 118.637695312 346.341796875 125.376953125 346.341796875 c 0
280.376953125 90.244140625 m 0
 332.043945312 90.244140625 370.232421875 129.268554688 370.232421875 204.877929688 c 0
 370.232421875 275.609375 332.043945312 317.073242188 280.376953125 317.073242188 c 0
 228.7109375 317.073242188 190.522460938 275.609375 190.522460938 204.877929688 c 0
 190.522460938 131.70703125 228.7109375 90.244140625 280.376953125 90.244140625 c 0
EndSplineSet
Validated: 524321
Substitution2: "'pnum' Proportional Numbers lookup 17 subtable" six.fitted
Substitution2: "'onum' Oldstyle Figures lookup 15 subtable" six.taboldstyle
Substitution2: "'case' Case-Sensitive Forms lookup 8 subtable" six.cap
Substitution2: "'subs' Subscript lookup 7 subtable" uni2086
Substitution2: "'sups' Superscript lookup 6 subtable" uni2076
Substitution2: "Single Substitution lookup 3 subtable" uni2076
Substitution2: "Single Substitution lookup 2 subtable" uni2086
EndChar

StartChar: seven
Encoding: 55 55 24
Width: 516
VWidth: 0
GlyphClass: 2
Flags: MW
HStem: 0 21G<120.625 317.296> 0 21G<120.625 317.296> 486.076 108.86<78.9177 335.175> 580 20G<68.7327 89.9751>
LayerCount: 2
Fore
SplineSet
473.099609375 594.936523438 m 1x20
 399.029296875 387.341796875 l 1
 419.462890625 346.834960938 l 1
 378.595703125 326.58203125 l 1
 309.633789062 126.58203125 l 2
 289.200195312 65.8232421875 294.30859375 27.84765625 317.295898438 2.53125 c 1
 317.295898438 0 l 1
 120.625 0 l 1
 120.625 2.53125 l 1
 151.275390625 37.974609375 169.154296875 68.3544921875 192.141601562 124.05078125 c 2
 273.875 329.114257812 l 1
 255.99609375 369.620117188 l 1
 296.862304688 387.341796875 l 1
 335.174804688 486.076171875 l 1
 171.708007812 486.076171875 l 2xa0
 107.854492188 486.076171875 72.095703125 468.354492188 46.5537109375 432.911132812 c 1
 44 432.911132812 l 1
 72.095703125 600 l 1x10
 107.854492188 594.936523438 153.829101562 594.936523438 199.803710938 594.936523438 c 2
 473.099609375 594.936523438 l 1x20
337.729492188 344.303710938 m 0
 347.946289062 344.303710938 353.053710938 351.8984375 353.053710938 359.493164062 c 0
 353.053710938 367.088867188 345.391601562 374.68359375 337.729492188 374.68359375 c 0
 330.06640625 374.68359375 322.404296875 367.088867188 322.404296875 359.493164062 c 0
 322.404296875 351.8984375 330.06640625 344.303710938 337.729492188 344.303710938 c 0
EndSplineSet
Validated: 524321
Substitution2: "'pnum' Proportional Numbers lookup 17 subtable" seven.fitted
Substitution2: "'onum' Oldstyle Figures lookup 15 subtable" seven.taboldstyle
Substitution2: "'case' Case-Sensitive Forms lookup 8 subtable" seven.cap
Substitution2: "'subs' Subscript lookup 7 subtable" uni2087
Substitution2: "'sups' Superscript lookup 6 subtable" uni2077
Substitution2: "Single Substitution lookup 3 subtable" uni2077
Substitution2: "Single Substitution lookup 2 subtable" uni2087
EndChar

StartChar: eight
Encoding: 56 56 25
Width: 551
VWidth: 0
GlyphClass: 2
Flags: MW
HStem: 0 88.1631<216.475 352.524> 516.734 83.2656<213.644 340.218>
VStem: 64 116.366<122.798 236.783> 175.518 16.9697<360 448.163> 367.037 106.669<380.014 488.711> 367.037 12.1211<360 433.47> 379.158 113.941<113.469 210.285>
LayerCount: 2
Fore
SplineSet
417.947265625 318.3671875 m 1xe8
 461.583984375 296.326171875 493.099609375 252.245117188 493.099609375 176.326171875 c 0xc2
 493.099609375 66.1220703125 403.401367188 0 279.76171875 0 c 0
 151.274414062 0 64 68.5712890625 64 168.979492188 c 0
 64 222.857421875 93.091796875 269.387695312 144.001953125 298.775390625 c 1
 129.456054688 308.571289062 119.758789062 318.3671875 110.061523438 330.612304688 c 1
 68.8486328125 345.305664062 l 1
 83.39453125 384.490234375 l 2
 80.9697265625 396.734375 78.5458984375 408.979492188 78.5458984375 423.673828125 c 0
 78.5458984375 541.224609375 163.396484375 600 282.186523438 600 c 0
 403.401367188 600 473.706054688 528.979492188 473.706054688 440.81640625 c 0
 473.706054688 421.224609375 471.28125 401.6328125 464.008789062 384.490234375 c 2
 473.706054688 342.857421875 l 1
 432.4921875 333.061523438 l 1
 427.64453125 328.163085938 422.795898438 323.265625 417.947265625 318.3671875 c 1xe8
274.913085938 516.734375 m 0
 226.427734375 516.734375 192.487304688 489.795898438 192.487304688 448.163085938 c 0
 192.487304688 382.041015625 262.791992188 374.694335938 333.096679688 352.653320312 c 1
 352.491210938 377.142578125 367.037109375 408.979492188 367.037109375 433.469726562 c 0xd8
 367.037109375 482.44921875 330.671875 516.734375 274.913085938 516.734375 c 0
160.971679688 345.305664062 m 0
 168.244140625 345.305664062 175.517578125 352.653320312 175.517578125 360 c 0
 175.517578125 367.346679688 168.244140625 374.694335938 160.971679688 374.694335938 c 0
 153.69921875 374.694335938 146.42578125 367.346679688 146.42578125 360 c 0
 146.42578125 352.653320312 153.69921875 345.305664062 160.971679688 345.305664062 c 0
287.03515625 88.1630859375 m 0
 340.369140625 88.1630859375 379.158203125 117.55078125 379.158203125 161.6328125 c 0
 379.158203125 227.754882812 306.4296875 237.55078125 228.8515625 259.591796875 c 1
 197.3359375 240 180.366210938 213.061523438 180.366210938 178.775390625 c 0xe2
 180.366210938 124.8984375 224.002929688 88.1630859375 287.03515625 88.1630859375 c 0
393.704101562 345.305664062 m 0
 400.9765625 345.305664062 405.825195312 352.653320312 408.25 360 c 0
 408.25 367.346679688 400.9765625 374.694335938 393.704101562 374.694335938 c 0
 386.430664062 374.694335938 379.158203125 367.346679688 379.158203125 360 c 0xc4
 379.158203125 352.653320312 386.430664062 345.305664062 393.704101562 345.305664062 c 0
EndSplineSet
Validated: 524289
Substitution2: "'pnum' Proportional Numbers lookup 17 subtable" eight.fitted
Substitution2: "'onum' Oldstyle Figures lookup 15 subtable" eight.taboldstyle
Substitution2: "'case' Case-Sensitive Forms lookup 8 subtable" eight.cap
Substitution2: "'subs' Subscript lookup 7 subtable" uni2088
Substitution2: "'sups' Superscript lookup 6 subtable" uni2078
Substitution2: "Single Substitution lookup 3 subtable" uni2078
Substitution2: "Single Substitution lookup 2 subtable" uni2088
EndChar

StartChar: nine
Encoding: 57 57 26
Width: 527
VWidth: 0
GlyphClass: 2
Flags: MW
HStem: 0 83.9502<126.574 280.619> 197.531 83.9502<197.166 300.083> 511.111 88.8887<197.436 299.878>
VStem: 50 108.942<322.925 470.896> 336.808 51.1367<321.179 350.612>
LayerCount: 2
Fore
SplineSet
479.099609375 330.864257812 m 1
 454.643554688 306.172851562 l 1
 452.419921875 111.111328125 361.264648438 0 216.749023438 0 c 0
 176.729492188 0 141.15625 2.46875 107.806640625 12.345703125 c 1
 96.689453125 133.333007812 l 1
 98.9130859375 133.333007812 l 1
 123.369140625 96.2958984375 163.388671875 83.9501953125 216.749023438 83.9501953125 c 0
 285.671875 83.9501953125 347.924804688 148.1484375 356.817382812 259.258789062 c 1
 354.594726562 259.258789062 l 1
 321.244140625 214.814453125 283.448242188 197.53125 232.311523438 197.53125 c 0
 138.932617188 197.53125 50 261.728515625 50 390.123046875 c 0
 50 501.234375 121.146484375 600 250.098632812 600 c 0
 359.041015625 600 436.857421875 520.987304688 450.197265625 360.494140625 c 1
 479.099609375 330.864257812 l 1
247.875 281.481445312 m 0
 294.564453125 281.481445312 336.807617188 328.395507812 336.807617188 395.061523438 c 0
 336.807617188 466.666992188 296.788085938 511.111328125 247.875 511.111328125 c 0
 201.185546875 511.111328125 158.942382812 466.666992188 158.942382812 395.061523438 c 0
 158.942382812 328.395507812 203.409179688 281.481445312 247.875 281.481445312 c 0
401.284179688 320.987304688 m 0
 407.954101562 320.987304688 414.624023438 325.92578125 414.624023438 335.802734375 c 0
 414.624023438 343.209960938 407.954101562 350.6171875 401.284179688 350.6171875 c 0
 394.614257812 350.6171875 387.944335938 343.209960938 387.944335938 335.802734375 c 0
 387.944335938 328.395507812 394.614257812 320.987304688 401.284179688 320.987304688 c 0
EndSplineSet
Validated: 524289
Substitution2: "'pnum' Proportional Numbers lookup 17 subtable" nine.fitted
Substitution2: "'onum' Oldstyle Figures lookup 15 subtable" nine.taboldstyle
Substitution2: "'case' Case-Sensitive Forms lookup 8 subtable" nine.cap
Substitution2: "'subs' Subscript lookup 7 subtable" uni2089
Substitution2: "'sups' Superscript lookup 6 subtable" uni2079
Substitution2: "Single Substitution lookup 3 subtable" uni2079
Substitution2: "Single Substitution lookup 2 subtable" uni2089
EndChar

StartChar: colon
Encoding: 58 58 27
Width: 220
GlyphClass: 2
Flags: MW
HStem: -10.75 112.5<101.475 132.525> 301.25 112.5<101.475 132.525>
VStem: 60.75 112.5<29.9751 61.0249 341.975 373.025>
LayerCount: 2
Fore
SplineSet
60.75 45.5 m 0
 60.75 76.5498046875 85.9501953125 101.75 117 101.75 c 0
 148.049804688 101.75 173.25 76.5498046875 173.25 45.5 c 0
 173.25 14.4501953125 148.049804688 -10.75 117 -10.75 c 0
 85.9501953125 -10.75 60.75 14.4501953125 60.75 45.5 c 0
60.75 357.5 m 0
 60.75 388.549804688 85.9501953125 413.75 117 413.75 c 0
 148.049804688 413.75 173.25 388.549804688 173.25 357.5 c 0
 173.25 326.450195312 148.049804688 301.25 117 301.25 c 0
 85.9501953125 301.25 60.75 326.450195312 60.75 357.5 c 0
EndSplineSet
Validated: 524289
EndChar

StartChar: semicolon
Encoding: 59 59 28
Width: 220
GlyphClass: 2
Flags: MW
HStem: -3.09961 105<87.5098 102> 301.25 112.5<91.4751 122.525>
VStem: 49.5 120.5<-44 63.8901> 131 39<-44 -16.75>
LayerCount: 2
Fore
SplineSet
50.75 357.5 m 0xc0
 50.75 388.549804688 75.9501953125 413.75 107 413.75 c 0
 138.049804688 413.75 163.25 388.549804688 163.25 357.5 c 0
 163.25 326.450195312 138.049804688 301.25 107 301.25 c 0
 75.9501953125 301.25 50.75 326.450195312 50.75 357.5 c 0xc0
102 101.900390625 m 0
 138 102 170 70.7998046875 170 -3 c 0
 170 -85 120 -112.299804688 66 -144 c 1
 59.2001953125 -138.099609375 53 -133 53 -123 c 1
 102 -90 131 -62 131 -29 c 0xd0
 131 -4.5 114.5 -3 102 -3.099609375 c 0
 73.01953125 -3.099609375 49.5 20.419921875 49.5 49.400390625 c 0xe0
 49.5 78.3798828125 73.01953125 101.900390625 102 101.900390625 c 0
EndSplineSet
Validated: 524321
EndChar

StartChar: less
Encoding: 60 60 29
Width: 487
GlyphClass: 2
Flags: MW
HStem: 73 331<439 439>
LayerCount: 2
Fore
SplineSet
122 239 m 1
 439 123 l 1
 439 73 l 1
 49 215 l 1
 49 263 l 1
 439 404 l 1
 439 354 l 1
 122 239 l 1
EndSplineSet
Validated: 1
EndChar

StartChar: equal
Encoding: 61 61 30
Width: 527
GlyphClass: 2
Flags: MW
HStem: 144 49<66 461 66 461> 269 49<66 461 66 461>
LayerCount: 2
Fore
SplineSet
461 318 m 1
 461 269 l 1
 66 269 l 1
 66 318 l 1
 461 318 l 1
461 193 m 1
 461 144 l 1
 66 144 l 1
 66 193 l 1
 461 193 l 1
EndSplineSet
Validated: 1
Substitution2: "'subs' Subscript lookup 7 subtable" uni208C
Substitution2: "'sups' Superscript lookup 6 subtable" uni207C
Substitution2: "Single Substitution lookup 3 subtable" uni207C
Substitution2: "Single Substitution lookup 2 subtable" uni208C
EndChar

StartChar: greater
Encoding: 62 62 31
Width: 487
GlyphClass: 2
Flags: MW
HStem: 71 331<49 49>
LayerCount: 2
Fore
SplineSet
366 236 m 1
 49 352 l 1
 49 402 l 1
 439 260 l 1
 439 212 l 1
 49 71 l 1
 49 121 l 1
 366 236 l 1
EndSplineSet
Validated: 1
EndChar

StartChar: question
Encoding: 63 63 32
Width: 405
GlyphClass: 2
Flags: MW
HStem: -10.75 112.5<164.475 195.525> 619 40<167.75 223.5>
VStem: 123.75 112.5<29.9751 61.0249> 159 42<184 228> 294 75<480.5 536.5>
LayerCount: 2
Fore
SplineSet
123.75 45.5 m 0xe8
 123.75 76.5498046875 148.950195312 101.75 180 101.75 c 0
 211.049804688 101.75 236.25 76.5498046875 236.25 45.5 c 0
 236.25 14.4501953125 211.049804688 -10.75 180 -10.75 c 0
 148.950195312 -10.75 123.75 14.4501953125 123.75 45.5 c 0xe8
195 619 m 0
 139 619 98 570 72 525 c 1
 59 526 l 1
 43 593 l 1
 46 597 l 1
 70.5 617.5 131.5 659 204 659 c 0
 306 659 369 599 369 508 c 0
 369 429 310 385 263 351 c 0
 240 334 230 318 221 301 c 0
 208 276 201 252 201 228 c 2
 201 184 l 2
 201 177 188 174 180 174 c 0
 172 174 159 177 159 184 c 2
 159 230 l 2xd8
 159 273 169 332 234 391 c 0
 274 428 294 457 294 504 c 0
 294 569 252 619 195 619 c 0
EndSplineSet
Validated: 524289
EndChar

StartChar: at
Encoding: 64 64 33
Width: 895
GlyphClass: 2
Flags: MW
HStem: -158 33<344 510.5> 27 35<593 645 593 660> 29 41<392.5 412.5> 379 31<495.5 522> 581 30<383 521.5>
VStem: 59 80<166 330.5> 273 73<138 193 138 224.5> 515 68<69 75.5> 760 79<225 375.5 225 378>
LayerCount: 2
Fore
SplineSet
569 316 m 0xbf80
 569 354 540 379 504 379 c 0
 487 379 444 370 414 339 c 0
 363 288 346 224 346 162 c 0
 346 114 361 70 424 70 c 0
 459 70 508 127 539 200 c 0
 552 231 569 282 569 316 c 0xbf80
583 74 m 0
 583 64 592 62 594 62 c 0
 696 62 760 109 760 275 c 0
 760 481 584 581 459 581 c 0
 307 581 139 478 139 241 c 0
 139 91 215 -125 473 -125 c 0
 558 -125 620 -102 674 -59 c 1
 687 -77 l 1
 627 -123 567 -158 454 -158 c 0
 215 -158 59 10 59 223 c 0
 59 438 244 611 469 611 c 0
 684 611 839 469 839 282 c 0
 839 168 769 27 551 27 c 0xdf80
 522 27 515 52 515 68 c 0
 515 83 522 106 530 131 c 1
 528 132 l 1
 484 58 430 29 395 29 c 0
 295 29 273 113 273 153 c 0
 273 296 400 410 506 410 c 0
 539 410 573 393 583 367 c 1
 588 391 l 1
 641 404 l 1
 656 399 l 1
 596 141 l 2
 590 114 583 80.5 583 74 c 0
EndSplineSet
Validated: 524289
EndChar

StartChar: A
Encoding: 65 65 34
Width: 712
VWidth: -200
GlyphClass: 2
Flags: MWO
HStem: 0 21G<48 229.452 466.55 660.098> 130.645 84.6777<265.742 430.259> 580 20G<239.129 466.549>
VStem: 262.268 182.688<486.668 598.495>
LayerCount: 2
Fore
SplineSet
577.83984375 142.741210938 m 2
 602.033203125 77.41796875 638.32421875 24.1923828125 660.09765625 2.4189453125 c 1
 660.09765625 0 l 1
 466.549804688 0 l 1
 466.549804688 2.4189453125 l 2
 474.512695312 9.0546875 480.291992188 22.2431640625 480.291992188 42.7841796875 c 0
 480.291992188 59.6865234375 476.37890625 81.56640625 466.549804688 108.870117188 c 2
 459.291015625 130.64453125 l 1
 239.129882812 130.64453125 l 1
 231.87109375 108.870117188 l 2
 220.935546875 81.53125 216.920898438 59.630859375 216.920898438 42.7197265625 c 0
 216.920898438 22.2158203125 222.823242188 9.0478515625 229.452148438 2.4189453125 c 2
 229.452148438 0 l 1
 48 0 l 1
 48 2.4189453125 l 1
 72.193359375 24.1923828125 108.484375 77.41796875 132.677734375 142.741210938 c 2
 183.484375 290.322265625 l 1
 164.12890625 329.032226562 l 1
 202.838867188 348.38671875 l 1
 253.645507812 498.38671875 l 2
 259.778320312 514.485351562 262.267578125 529.126953125 262.267578125 542.080078125 c 0
 262.267578125 570.005859375 250.698242188 590.083007812 239.12890625 600 c 1
 466.548828125 600 l 1
 456.349609375 589.799804688 444.956054688 568.8515625 444.956054688 539.670898438 c 0
 444.956054688 527.3203125 446.997070312 513.495117188 452.033203125 498.38671875 c 2
 505.258789062 348.38671875 l 1
 543.96875 329.032226562 l 1
 524.61328125 292.741210938 l 1
 577.83984375 142.741210938 l 2
248.806640625 316.934570312 m 0
 253.645507812 321.774414062 253.645507812 329.032226562 248.806640625 336.290039062 c 0
 243.967773438 341.12890625 234.291015625 341.12890625 229.452148438 336.290039062 c 0
 224.61328125 331.451171875 224.61328125 321.774414062 229.452148438 316.934570312 c 0
 234.291015625 312.096679688 243.967773438 312.096679688 248.806640625 316.934570312 c 0
265.7421875 215.322265625 m 1
 430.258789062 215.322265625 l 1
 398.807617188 307.2578125 l 2
 377.033203125 362.903320312 357.677734375 420.967773438 348.000976562 486.290039062 c 1
 345.581054688 486.290039062 l 1
 338.323242188 420.967773438 316.548828125 362.903320312 297.194335938 307.2578125 c 2
 265.7421875 215.322265625 l 1
454.452148438 316.934570312 m 0
 459.291015625 321.774414062 459.291015625 329.032226562 454.452148438 336.290039062 c 0
 449.61328125 341.12890625 439.936523438 341.12890625 435.09765625 336.290039062 c 0
 430.258789062 331.451171875 430.258789062 321.774414062 435.09765625 316.934570312 c 0
 439.936523438 312.096679688 449.61328125 312.096679688 454.452148438 316.934570312 c 0
EndSplineSet
Validated: 524289
Substitution2: "'c2sc' Capitals to Small Capitals lookup 12 subtable" a.sc
Position2: "'cpsp' Capital Spacing lookup 3 subtable" dx=5 dy=0 dh=10 dv=0
EndChar

StartChar: B
Encoding: 66 66 35
Width: 611
VWidth: 0
GlyphClass: 2
Flags: MW
HStem: 0 82.9258<236.12 390.167> 275.607 82.9277<236.12 371.557> 514.631 85.3691<236.12 369.767>
VStem: 107.341 128.779<85.1026 275.607 358.535 513.298> 394.412 134.146<380.956 494.033> 426.606 134.146<115.579 241.974>
LayerCount: 2
Fore
SplineSet
418.55859375 319.509765625 m 1xf8
 499.045898438 309.75390625 563.439453125 246.33984375 560.752929688 178.047851562 c 0xf4
 560.752929688 65.853515625 466.850585938 0 338.071289062 0 c 2
 51 0 l 1
 51 2.4423828125 l 1
 75.1455078125 19.515625 107.340820312 58.5400390625 107.340820312 136.588867188 c 2
 107.340820312 292.684570312 l 1
 75.1455078125 321.953125 l 1
 107.340820312 351.220703125 l 1
 107.340820312 468.293945312 l 2
 107.340820312 539.025390625 80.51171875 580.48828125 51 600 c 1
 313.924804688 600 l 2
 456.119140625 600 528.557617188 551.220703125 528.557617188 448.782226562 c 0
 528.557617188 382.928710938 474.899414062 329.272460938 418.55859375 321.953125 c 1
 418.55859375 319.509765625 l 1xf8
236.120117188 514.630859375 m 1
 236.120117188 358.53515625 l 1
 305.875976562 358.53515625 l 2
 362.216796875 358.53515625 394.412109375 385.364257812 394.412109375 441.4609375 c 0xf8
 394.412109375 490.241210938 362.216796875 514.630859375 305.875976562 514.630859375 c 2
 236.120117188 514.630859375 l 1
169.047851562 304.875976562 m 0
 177.09375 304.875976562 185.14453125 312.190429688 185.14453125 319.509765625 c 0
 185.14453125 326.825195312 177.098632812 334.14453125 169.047851562 334.14453125 c 0
 161.000976562 334.14453125 152.950195312 326.829101562 152.950195312 319.509765625 c 0
 152.950195312 312.1953125 160.99609375 304.875976562 169.047851562 304.875976562 c 0
319.291015625 82.92578125 m 2
 391.729492188 82.92578125 426.606445312 121.951171875 426.606445312 180.487304688 c 0xf4
 426.606445312 236.583984375 391.729492188 275.607421875 319.291015625 275.607421875 c 2
 236.120117188 275.607421875 l 1
 236.120117188 82.92578125 l 1
 319.291015625 82.92578125 l 2
EndSplineSet
Validated: 524321
Substitution2: "'c2sc' Capitals to Small Capitals lookup 12 subtable" b.sc
Position2: "'cpsp' Capital Spacing lookup 3 subtable" dx=5 dy=0 dh=10 dv=0
EndChar

StartChar: C
Encoding: 67 67 36
Width: 615
VWidth: 0
GlyphClass: 2
Flags: MW
HStem: 0 87.0967<291.73 478.565> 512.903 87.0967<294.046 480.789>
VStem: 156.451 43.5488<304.844 328.306>
LayerCount: 2
Fore
SplineSet
562.90234375 179.032226562 m 1
 545.967773438 31.4521484375 l 1
 502.418945312 16.935546875 439.515625 0 369.354492188 0 c 0
 192.7421875 0 81.4521484375 123.38671875 79.0322265625 290.322265625 c 1
 50 321.774414062 l 1
 81.451171875 350.806640625 l 1
 103.225585938 505.64453125 219.354492188 600 388.708984375 600 c 0
 441.935546875 600 485.483398438 592.741210938 533.87109375 578.225585938 c 1
 545.967773438 435.483398438 l 1
 543.547851562 435.483398438 l 1
 509.676757812 488.708984375 449.193359375 512.903320312 386.290039062 512.903320312 c 0
 270.161132812 512.903320312 200 433.064453125 200 304.838867188 c 0
 200 176.61328125 260.483398438 87.0966796875 376.612304688 87.0966796875 c 0
 466.12890625 87.0966796875 519.354492188 123.38671875 562.90234375 179.032226562 c 1
141.935546875 304.838867188 m 0
 149.193359375 304.838867188 156.451171875 312.094726562 156.451171875 319.354492188 c 0
 156.451171875 326.610351562 149.192382812 333.87109375 141.935546875 333.87109375 c 0
 134.676757812 333.87109375 127.418945312 326.615234375 127.418945312 319.354492188 c 0
 127.418945312 312.098632812 134.676757812 304.838867188 141.935546875 304.838867188 c 0
EndSplineSet
Validated: 524289
Substitution2: "'c2sc' Capitals to Small Capitals lookup 12 subtable" c.sc
Position2: "'cpsp' Capital Spacing lookup 3 subtable" dx=5 dy=0 dh=10 dv=0
EndChar

StartChar: D
Encoding: 68 68 37
Width: 662
VWidth: 0
GlyphClass: 2
Flags: MW
HStem: 0 306.074<142.883 171.912 291.056 541.256> 0 85.0234<215.752 383.11> 514.979 85.0205<215.752 388.206>
VStem: 99.1533 116.599<86.0801 291.5 349.799 514.35> 172.027 43.7246<306.08 335.219> 473.24 53.4414<306.08 333.957> 555.831 51.0117<206.476 331.117>
LayerCount: 2
Fore
SplineSet
303.201171875 600 m 1x76
 303.201171875 599.995117188 l 1
 482.95703125 599.995117188 604.413085938 488.255859375 606.842773438 301.211914062 c 0
 606.842773438 111.740234375 504.819335938 0 291.055664062 0 c 2xb6
 53 0 l 1
 53 2.4326171875 l 1
 74.8623046875 17.0078125 99.1533203125 60.732421875 99.1533203125 131.176757812 c 2
 99.1533203125 291.5 l 1
 70.00390625 320.649414062 l 1
 99.1533203125 349.798828125 l 1
 99.1533203125 471.254882812 l 2
 99.1533203125 536.841796875 74.8623046875 585.424804688 53 600 c 1
 303.201171875 600 l 1x76
157.453125 306.07421875 m 0
 164.740234375 306.07421875 169.598632812 313.359375 172.02734375 320.649414062 c 0xae
 172.02734375 327.934570312 164.739257812 335.224609375 157.453125 335.224609375 c 0
 150.165039062 335.224609375 142.877929688 327.939453125 142.877929688 320.649414062 c 0
 142.877929688 313.364257812 150.166015625 306.07421875 157.453125 306.07421875 c 0
295.913085938 85.0234375 m 2x6e
 410.348632812 85.0234375 473.307617188 157.557617188 473.307617188 293.44140625 c 0
 473.307617188 296.009765625 473.28515625 298.6015625 473.240234375 301.215820312 c 0
 473.240234375 446.963867188 414.94140625 514.979492188 291.055664062 514.979492188 c 2
 215.751953125 514.979492188 l 1
 215.751953125 85.0234375 l 1
 295.913085938 85.0234375 l 2x6e
541.255859375 306.07421875 m 0xa6
 548.543945312 306.07421875 555.831054688 313.359375 555.831054688 320.649414062 c 0
 555.831054688 327.934570312 548.543945312 335.224609375 541.255859375 335.224609375 c 0
 533.967773438 335.224609375 526.681640625 327.939453125 526.681640625 320.649414062 c 0
 526.681640625 313.364257812 533.96875 306.07421875 541.255859375 306.07421875 c 0xa6
EndSplineSet
Validated: 524289
Substitution2: "'c2sc' Capitals to Small Capitals lookup 12 subtable" d.sc
Position2: "'cpsp' Capital Spacing lookup 3 subtable" dx=5 dy=0 dh=10 dv=0
EndChar

StartChar: E
Encoding: 69 69 38
Width: 528
VWidth: 0
GlyphClass: 2
Flags: MW
HStem: -2.36621 82.6875<212.627 407.518> 269.294 82.6738<212.627 362.076> 500.783 82.6738<212.627 418.106>
VStem: 96.8809 115.746<81.3407 269.294 351.968 500.724>
LayerCount: 2
Fore
SplineSet
474.826171875 158.272460938 m 1
 451.205078125 -9.4541015625 l 1
 420.497070312 -4.7314453125 399.237304688 -2.3662109375 349.631835938 -2.3662109375 c 2
 52 -2.3662109375 l 1
 52 0 l 1
 73.259765625 14.1728515625 96.880859375 56.69140625 96.880859375 125.194335938 c 2
 96.880859375 281.096679688 l 1
 66.1728515625 309.442382812 l 1
 96.880859375 337.788085938 l 1
 96.880859375 455.896484375 l 2
 96.880859375 526.76171875 73.259765625 566.91796875 52 581.090820312 c 1
 52 583.45703125 l 1
 354.356445312 583.45703125 l 2
 389.7890625 583.45703125 425.220703125 585.822265625 444.118164062 590.545898438 c 1
 458.291015625 439.3671875 l 1
 455.928710938 439.3671875 l 1
 434.669921875 479.524414062 389.7890625 500.783203125 323.6484375 500.783203125 c 2
 212.626953125 500.783203125 l 1
 212.626953125 351.967773438 l 1
 276.405273438 351.967773438 l 2
 347.26953125 351.967773438 370.891601562 354.333984375 408.685546875 359.056640625 c 1
 385.064453125 217.327148438 l 1
 382.702148438 217.327148438 l 1
 368.529296875 255.12109375 337.821289062 269.293945312 290.578125 269.293945312 c 2
 212.626953125 269.293945312 l 1
 212.626953125 80.3212890625 l 1
 304.750976562 80.3212890625 l 2
 380.33984375 80.3212890625 439.393554688 106.305664062 474.826171875 158.272460938 c 1
148.848632812 300.001953125 m 0
 155.935546875 300.001953125 163.021484375 304.7265625 163.021484375 314.174804688 c 0
 163.021484375 321.259765625 155.934570312 328.34765625 148.848632812 328.34765625 c 0
 141.76171875 328.34765625 134.67578125 321.263671875 134.67578125 314.174804688 c 0
 134.67578125 307.090820312 141.762695312 300.001953125 148.848632812 300.001953125 c 0
EndSplineSet
Validated: 524289
Substitution2: "'c2sc' Capitals to Small Capitals lookup 12 subtable" e.sc
Position2: "'cpsp' Capital Spacing lookup 3 subtable" dx=5 dy=0 dh=10 dv=0
EndChar

StartChar: F
Encoding: 70 70 39
Width: 519
VWidth: 0
GlyphClass: 2
Flags: MW
HStem: 0 21G<53 261.8> 264 84<218.601 362.3> 506.399 86.4004<218.601 417.564> 580 20G<434.601 451.389>
VStem: 98.5996 117.601<31.6453 264 348 504.227> 391.4 2.40039<201.6 203.389>
LayerCount: 2
Fore
SplineSet
449.000976562 600 m 1xdc
 468.201171875 439.200195312 l 1
 465.80078125 439.200195312 l 1
 434.600585938 489.600585938 381.80078125 506.399414062 314.600585938 506.399414062 c 2
 218.600585938 506.399414062 l 1
 218.600585938 348 l 1
 293 348 l 2
 353.000976562 348 393.80078125 350.399414062 420.200195312 355.19921875 c 1
 393.80078125 201.599609375 l 1
 391.400390625 201.599609375 l 1
 379.400390625 240 341 264 297.80078125 264 c 2
 216.200195312 264 l 1
 216.200195312 129.599609375 l 2
 216.200195312 57.599609375 240.200195312 16.798828125 261.799804688 2.3994140625 c 1
 261.799804688 0 l 1
 53 0 l 1
 53 2.3994140625 l 1
 74.599609375 16.798828125 98.599609375 59.9990234375 98.599609375 129.599609375 c 2
 98.599609375 288 l 1
 69.7998046875 316.799804688 l 1
 98.599609375 345.599609375 l 1
 98.599609375 465.599609375 l 2
 98.599609375 549.599609375 77 578.400390625 53 592.799804688 c 1
 338.600585938 592.799804688 l 2xec
 389 592.799804688 420.200195312 595.200195312 449.000976562 600 c 1xdc
158.600585938 302.400390625 m 0
 165.799804688 302.400390625 173 309.599609375 173 316.799804688 c 0
 173 324 165.799804688 331.200195312 158.600585938 331.200195312 c 0
 151.400390625 331.200195312 144.200195312 324 144.200195312 316.799804688 c 0
 144.200195312 309.599609375 151.400390625 302.400390625 158.600585938 302.400390625 c 0
EndSplineSet
Validated: 524289
Substitution2: "'c2sc' Capitals to Small Capitals lookup 12 subtable" f.sc
Position2: "'cpsp' Capital Spacing lookup 3 subtable" dx=5 dy=0 dh=10 dv=0
EndChar

StartChar: G
Encoding: 71 71 40
Width: 652
VWidth: 0
GlyphClass: 2
Flags: MW
HStem: 0 90.6973<291.037 464.666> 244.187 76.7441<374.285 466.279> 513.953 86.0469<291.424 487.373>
VStem: 154.651 44.1855<309.307 331.939> 466.279 106.977<101.064 243.724>
LayerCount: 2
Fore
SplineSet
454.651367188 320.930664062 m 1
 454.651367188 323.254882812 l 1
 601.163085938 323.254882812 l 1
 601.163085938 320.930664062 l 1
 582.55859375 306.9765625 573.255859375 272.092773438 573.255859375 197.673828125 c 2
 573.255859375 60.46484375 l 1
 517.44140625 23.255859375 433.720703125 0 368.604492188 0 c 0
 196.51171875 0 77.9072265625 120.9296875 77.9072265625 290.697265625 c 1
 50 320.930664062 l 1
 80.232421875 346.51171875 l 1
 101.163085938 506.9765625 219.767578125 600 384.883789062 600 c 0
 445.348632812 600 501.163085938 590.697265625 543.0234375 576.744140625 c 1
 554.651367188 441.860351562 l 1
 552.325195312 441.860351562 l 1
 510.46484375 490.697265625 454.651367188 513.953125 382.55859375 513.953125 c 0
 266.279296875 513.953125 198.836914062 432.55859375 198.836914062 302.325195312 c 0
 198.836914062 172.092773438 266.279296875 90.697265625 375.581054688 90.697265625 c 0
 410.46484375 90.697265625 440.697265625 97.6748046875 466.279296875 109.301757812 c 1
 466.279296875 244.186523438 l 1
 424.418945312 241.860351562 375.581054688 232.557617188 343.0234375 200 c 1
 340.697265625 200 l 1
 354.651367188 325.581054688 l 1
 370.9296875 323.254882812 401.163085938 320.930664062 454.651367188 320.930664062 c 1
140.697265625 309.301757812 m 0
 147.673828125 309.301757812 154.651367188 316.278320312 154.651367188 323.255859375 c 0
 154.651367188 330.232421875 147.673828125 337.208984375 140.697265625 337.208984375 c 0
 133.720703125 337.208984375 126.744140625 330.232421875 126.744140625 323.255859375 c 0
 126.744140625 316.278320312 133.720703125 309.301757812 140.697265625 309.301757812 c 0
EndSplineSet
Validated: 524289
Substitution2: "'c2sc' Capitals to Small Capitals lookup 12 subtable" g.sc
Position2: "'cpsp' Capital Spacing lookup 3 subtable" dx=5 dy=0 dh=10 dv=0
EndChar

StartChar: H
Encoding: 72 72 41
Width: 666
VWidth: 0
GlyphClass: 2
Flags: MW
HStem: 0 21G<53 259.4> 0 21G<53 259.4> 276 88.8008<216.201 444.201> 577.601 20G<53 259.4 401.001 607.401>
VStem: 98.6006 117.601<31.6457 276 364.801 569.377> 444.201 117.601<32.1371 276 364.801 568.354>
LayerCount: 2
Fore
SplineSet
607.401367188 597.600585938 m 1xbc
 585.801757812 583.200195312 561.801757812 540 561.801757812 470.400390625 c 2
 561.801757812 350.400390625 l 1
 593.001953125 319.200195312 l 1
 561.801757812 288 l 1
 561.801757812 127.200195312 l 2
 561.801757812 60 585.801757812 19.19921875 607.401367188 4.7998046875 c 1
 607.401367188 2.400390625 l 1
 401.000976562 2.400390625 l 1
 401.000976562 4.7998046875 l 1
 420.201171875 19.19921875 444.201171875 60 444.201171875 127.200195312 c 2
 444.201171875 276 l 1
 216.201171875 276 l 1
 216.201171875 129.599609375 l 2
 216.201171875 57.599609375 237.80078125 16.7998046875 259.400390625 2.3994140625 c 1
 259.400390625 0 l 1
 53 0 l 1
 53 2.3994140625 l 1
 74.6005859375 16.7998046875 98.6005859375 60 98.6005859375 129.599609375 c 2
 98.6005859375 288 l 1
 67.400390625 319.200195312 l 1
 98.6005859375 350.400390625 l 1
 98.6005859375 470.400390625 l 2
 98.6005859375 542.400390625 74.6005859375 583.200195312 53 597.600585938 c 1
 259.400390625 597.600585938 l 1
 240.201171875 583.200195312 216.201171875 540 216.201171875 470.400390625 c 2
 216.201171875 364.80078125 l 1
 444.201171875 364.80078125 l 1
 444.201171875 470.400390625 l 2
 444.201171875 542.400390625 422.6015625 583.200195312 401.000976562 597.600585938 c 1
 401.000976562 600 l 1
 607.401367188 597.600585938 l 1xbc
163.400390625 312 m 0
 170.600585938 312 175.400390625 316.799804688 177.80078125 326.400390625 c 0
 177.80078125 333.600585938 170.600585938 340.799804688 163.400390625 340.799804688 c 0
 156.200195312 340.799804688 149.000976562 333.600585938 149.000976562 326.400390625 c 0
 149.000976562 319.200195312 156.200195312 312 163.400390625 312 c 0
509.001953125 312 m 0
 516.201171875 312 523.401367188 316.799804688 523.401367188 326.400390625 c 0
 523.401367188 333.600585938 516.201171875 340.799804688 509.001953125 340.799804688 c 0
 501.801757812 340.799804688 494.6015625 333.600585938 494.6015625 326.400390625 c 0
 494.6015625 319.200195312 501.801757812 312 509.001953125 312 c 0
EndSplineSet
Validated: 524289
Substitution2: "'c2sc' Capitals to Small Capitals lookup 12 subtable" h.sc
Position2: "'cpsp' Capital Spacing lookup 3 subtable" dx=5 dy=0 dh=10 dv=0
EndChar

StartChar: I
Encoding: 73 73 42
Width: 323
VWidth: 0
GlyphClass: 2
Flags: MW
HStem: 0 21G<53 264.2> 580 20G<53 264.2>
VStem: 98.5996 120.001<31.6453 288 350.4 568.355>
LayerCount: 2
Fore
SplineSet
264.200195312 597.600585938 m 1
 242.600585938 583.201171875 218.600585938 540.000976562 218.600585938 465.600585938 c 2
 218.600585938 345.599609375 l 1
 247.400390625 316.799804688 l 1
 218.600585938 288 l 1
 218.600585938 129.599609375 l 2
 218.600585938 57.599609375 242.600585938 16.798828125 264.200195312 2.3994140625 c 1
 264.200195312 0 l 1
 53 0 l 1
 53 2.3994140625 l 1
 74.599609375 16.798828125 98.599609375 59.9990234375 98.599609375 129.599609375 c 2
 98.599609375 288 l 1
 67.400390625 319.200195312 l 1
 98.599609375 350.400390625 l 1
 98.599609375 470.400390625 l 2
 98.599609375 542.400390625 74.599609375 583.201171875 53 597.600585938 c 1
 53 600 l 1
 264.200195312 597.600585938 l 1
156.200195312 307.200195312 m 0
 163.400390625 307.200195312 170.600585938 314.400390625 170.600585938 321.600585938 c 0
 170.600585938 328.80078125 163.400390625 336 156.200195312 336 c 0
 149 336 141.799804688 328.80078125 141.799804688 321.600585938 c 0
 141.799804688 314.400390625 149 307.200195312 156.200195312 307.200195312 c 0
EndSplineSet
Validated: 524289
Substitution2: "'c2sc' Capitals to Small Capitals lookup 12 subtable" i.sc
Position2: "'cpsp' Capital Spacing lookup 3 subtable" dx=5 dy=0 dh=10 dv=0
EndChar

StartChar: J
Encoding: 74 74 43
Width: 451
VWidth: 0
GlyphClass: 2
Flags: MW
HStem: 0 89.7637<82.579 211.325> 580 20G<193.008 398.52> 580 20G<193.008 398.52>
VStem: 237.89 115.748<118.59 300 356.692 571.058>
LayerCount: 2
Fore
SplineSet
193.0078125 600 m 1xd0
 398.51953125 600 l 1
 377.259765625 585.827148438 353.637695312 543.306640625 353.637695312 474.803710938 c 2
 353.637695312 356.692382812 l 1
 381.984375 328.346679688 l 1
 353.637695312 300 l 1
 353.637695312 214.959960938 l 2
 353.637695312 66.1416015625 292.220703125 0 150.48828125 0 c 0
 129.228515625 0 96.1572265625 2.3623046875 65.44921875 11.810546875 c 1
 56 141.732421875 l 1
 58.3623046875 141.732421875 l 2
 63.0869140625 129.920898438 89.0712890625 89.763671875 143.401367188 89.763671875 c 0
 207.181640625 89.763671875 237.889648438 122.833984375 237.889648438 184.251953125 c 2
 237.889648438 300 l 1
 209.543945312 328.346679688 l 1
 237.889648438 356.692382812 l 1
 237.889648438 472.440429688 l 2
 237.889648438 543.306640625 214.267578125 583.46484375 193.0078125 600 c 1xd0
294.583007812 314.172851562 m 0
 301.669921875 314.172851562 308.755859375 321.259765625 308.755859375 328.346679688 c 0
 308.755859375 335.432617188 301.669921875 342.51953125 294.583007812 342.51953125 c 0
 287.49609375 342.51953125 280.409179688 335.432617188 280.409179688 328.346679688 c 0
 280.409179688 321.259765625 287.49609375 314.172851562 294.583007812 314.172851562 c 0
EndSplineSet
Validated: 524289
Substitution2: "'c2sc' Capitals to Small Capitals lookup 12 subtable" j.sc
Position2: "'cpsp' Capital Spacing lookup 3 subtable" dx=5 dy=0 dh=10 dv=0
EndChar

StartChar: K
Encoding: 75 75 44
Width: 656
VWidth: 0
GlyphClass: 2
Flags: MW
HStem: 0 21G<54 257> 0 21G<54 257> 572.282 20G<54 257> 587.506 2.38867<572.954 574.635>
VStem: 99.376 117.023<30.4735 286.588 346.294 561.809> 173.412 42.9873<300.923 329.571>
LayerCount: 2
Fore
SplineSet
216.399414062 126.576171875 m 2x18
 216.399414062 57.3173828125 237.893554688 16.7177734375 257 2.388671875 c 2
 257 0 l 1
 54 0 l 1
 54 2.388671875 l 2
 75.494140625 16.7177734375 99.3759765625 59.7060546875 99.3759765625 128.96484375 c 2
 99.3759765625 286.587890625 l 1
 70.7177734375 315.247070312 l 1
 99.3759765625 346.293945312 l 1
 99.3759765625 468.09375 l 2
 99.3759765625 534.96484375 75.494140625 575.564453125 54 589.89453125 c 2x98
 54 592.282226562 l 1
 257 592.282226562 l 1x28
 257 589.89453125 l 2
 237.893554688 575.564453125 216.399414062 532.576171875 216.399414062 463.317382812 c 2
 216.399414062 126.576171875 l 2x18
159.08203125 300.91796875 m 0
 166.247070312 300.91796875 173.412109375 308.08203125 173.412109375 315.247070312 c 0x04
 173.412109375 322.412109375 166.247070312 329.576171875 159.08203125 329.576171875 c 0
 151.91796875 329.576171875 144.752929688 322.412109375 144.752929688 315.247070312 c 0
 144.752929688 308.08203125 151.91796875 300.91796875 159.08203125 300.91796875 c 0
514.928710938 95.529296875 m 2
 543.587890625 54.9296875 567.470703125 31.046875 608.0703125 14.3291015625 c 2
 608.0703125 11.94140625 l 1
 438.505859375 -16.7177734375 l 2
 433.729492188 2.388671875 417.01171875 35.8232421875 397.905273438 64.482421875 c 2
 225.953125 320.0234375 l 1
 369.247070312 523.0234375 l 2
 390.741210938 551.682617188 397.905273438 573.176757812 397.905273438 589.89453125 c 2
 574.634765625 589.89453125 l 1
 574.634765625 587.505859375 l 2x10
 538.811523438 570.788085938 500.599609375 532.576171875 474.329101562 494.364257812 c 2
 354.916992188 331.96484375 l 1
 514.928710938 95.529296875 l 2
EndSplineSet
Validated: 524289
Substitution2: "'c2sc' Capitals to Small Capitals lookup 12 subtable" k.sc
Position2: "'cpsp' Capital Spacing lookup 3 subtable" dx=5 dy=0 dh=10 dv=0
EndChar

StartChar: L
Encoding: 76 76 45
Width: 523
VWidth: 0
GlyphClass: 2
Flags: MW
HStem: 0 85.1191<216.2 402.487> 580.704 20G<53 261.801> 580.704 20G<53 261.801>
VStem: 98.6006 117.6<86.1774 291.84 350.208 568.927> 173 43.2002<304.005 333.178>
LayerCount: 2
Fore
SplineSet
470.6015625 162.943359375 m 1xc8
 449.000976562 -7.2958984375 l 1
 417.80078125 0 393.80078125 0 355.400390625 0 c 2
 53 0 l 1
 53 2.431640625 l 1
 74.599609375 17.0234375 98.6005859375 60.7998046875 98.6005859375 131.327148438 c 2
 98.6005859375 291.83984375 l 1
 69.7998046875 321.024414062 l 1
 98.6005859375 350.208007812 l 1
 98.6005859375 474.240234375 l 2
 98.6005859375 542.336914062 74.599609375 583.680664062 53 598.272460938 c 1
 53 600.704101562 l 1
 261.80078125 600.704101562 l 1
 261.80078125 598.272460938 l 1
 240.200195312 583.680664062 216.200195312 539.904296875 216.200195312 469.376953125 c 2xd0
 216.200195312 85.119140625 l 1
 300.201171875 85.119140625 l 2
 374.600585938 85.119140625 434.600585938 111.87109375 470.6015625 162.943359375 c 1xc8
158.600585938 304 m 0
 165.80078125 304 170.600585938 311.295898438 173 318.591796875 c 0x88
 173 325.887695312 165.80078125 333.18359375 158.600585938 333.18359375 c 0
 151.400390625 333.18359375 144.200195312 325.887695312 144.200195312 318.591796875 c 0
 144.200195312 311.295898438 151.400390625 304 158.600585938 304 c 0
EndSplineSet
Validated: 524289
Substitution2: "'c2sc' Capitals to Small Capitals lookup 12 subtable" l.sc
Position2: "'cpsp' Capital Spacing lookup 3 subtable" dx=5 dy=0 dh=10 dv=0
EndChar

StartChar: M
Encoding: 77 77 46
Width: 867
VWidth: 0
GlyphClass: 2
Flags: MW
HStem: 0 21G<49 238.474 617.423 814.184> 0 21G<49 238.474 617.423 814.184> 580 20G<73.292 270.053 585.843 787.463> 580 20G<73.292 270.053 585.843 787.463>
VStem: 175.316 43.7246<306.079 334.367> 631.997 48.583<306.079 335.019>
LayerCount: 2
Fore
SplineSet
763.171875 126.315429688 m 2xac
 768.030273438 85.01953125 782.604492188 34.0078125 814.18359375 2.4287109375 c 1
 814.18359375 0 l 1
 617.422851562 0 l 1
 617.422851562 2.4287109375 l 1
 634.426757812 17.0029296875 651.430664062 55.8701171875 646.572265625 109.311523438 c 2
 631.997070312 286.639648438 l 2
 627.138671875 327.935546875 629.568359375 371.66015625 636.85546875 434.818359375 c 1
 634.426757812 434.818359375 l 1
 617.422851562 378.947265625 597.989257812 337.651367188 568.838867188 289.068359375 c 2
 474.102539062 126.315429688 l 2
 442.5234375 75.302734375 435.236328125 38.865234375 432.806640625 21.8623046875 c 1
 425.51953125 21.8623046875 l 1
 423.08984375 41.294921875 413.373046875 75.302734375 381.793945312 126.315429688 c 2
 279.76953125 289.068359375 l 2
 250.620117188 332.793945312 233.616210938 374.088867188 216.611328125 434.818359375 c 1
 214.182617188 434.818359375 l 1
 221.469726562 369.23046875 221.469726562 323.077148438 219.041015625 286.639648438 c 2
 209.32421875 109.311523438 l 2
 206.895507812 55.8701171875 221.469726562 17.0029296875 238.473632812 2.4287109375 c 1
 238.473632812 0 l 1
 49 0 l 1
 49 2.4287109375 l 1
 75.720703125 31.578125 95.154296875 65.5869140625 100.012695312 126.315429688 c 2
 109.728515625 289.068359375 l 1
 80.5791015625 320.647460938 l 1
 112.158203125 349.796875 l 1
 119.4453125 461.5390625 l 2
 124.303710938 507.692382812 112.158203125 573.280273438 73.2919921875 597.571289062 c 1
 73.2919921875 600 l 1
 270.052734375 600 l 2
 260.3359375 587.853515625 262.765625 561.133789062 284.627929688 522.266601562 c 2
 369.6484375 376.517578125 l 2
 396.369140625 327.934570312 415.801757812 281.780273438 423.08984375 233.197265625 c 1
 425.518554688 233.197265625 l 1
 437.665039062 286.638671875 459.52734375 325.504882812 488.676757812 376.517578125 c 2
 573.697265625 524.696289062 l 2
 595.559570312 561.133789062 595.559570312 587.853515625 585.842773438 600 c 2
 787.462890625 600 l 1
 787.462890625 597.571289062 l 1
 748.596679688 575.708984375 734.021484375 510.122070312 736.451171875 461.5390625 c 2
 746.166992188 349.797851562 l 1
 777.74609375 320.647460938 l 1
 751.025390625 289.068359375 l 1
 763.171875 126.315429688 l 2xac
160.741210938 306.073242188 m 0
 168.028320312 306.073242188 175.31640625 313.360351562 175.31640625 320.647460938 c 0
 175.31640625 327.935546875 168.028320312 335.22265625 160.741210938 335.22265625 c 0
 153.454101562 335.22265625 146.166015625 327.935546875 146.166015625 320.647460938 c 0
 146.166015625 313.360351562 153.454101562 306.073242188 160.741210938 306.073242188 c 0
695.155273438 306.073242188 m 0
 702.442382812 306.073242188 709.73046875 313.360351562 709.73046875 320.647460938 c 0
 709.73046875 327.935546875 702.442382812 335.22265625 695.155273438 335.22265625 c 0
 687.868164062 335.22265625 680.580078125 327.935546875 680.580078125 320.647460938 c 0
 680.580078125 313.360351562 687.868164062 306.073242188 695.155273438 306.073242188 c 0
EndSplineSet
Validated: 524321
Substitution2: "'c2sc' Capitals to Small Capitals lookup 12 subtable" m.sc
Position2: "'cpsp' Capital Spacing lookup 3 subtable" dx=5 dy=0 dh=10 dv=0
EndChar

StartChar: N
Encoding: 78 78 47
Width: 690
VWidth: 0
GlyphClass: 2
Flags: MW
HStem: 0.000976562 21G<53 251.388 444.936 631.227> 0.000976562 21G<53 251.388 444.936 631.227> 580 20G<53 250.178 432.839 631.227> 580 20G<53 250.178 432.839 631.227>
VStem: 98.9678 94.3545<216.835 290.323 348.388 476.356> 161.871 45.9678<307.263 333.686> 476.388 108.871<141.072 290.322 348.387 571.394> 476.388 38.71<307.632 336.285>
LayerCount: 2
Fore
SplineSet
631.2265625 597.580078125 m 1xa2
 607.033203125 583.064453125 582.838867188 541.935546875 585.258789062 469.354492188 c 2
 585.258789062 348.38671875 l 1
 614.291015625 319.354492188 l 1
 585.258789062 290.322265625 l 1
 585.258789062 130.64453125 l 2
 585.258789062 60.4833984375 609.452148438 16.9345703125 631.2265625 2.4189453125 c 1
 631.2265625 0 l 1
 449.774414062 0 l 1
 440.09765625 24.193359375 423.162109375 55.6455078125 406.2265625 82.2587890625 c 2
 285.258789062 280.645507812 l 2
 244.12890625 345.967773438 222.35546875 396.774414062 195.7421875 476.61328125 c 1
 193.322265625 476.61328125 l 1xaa
 205.418945312 394.35546875 207.838867188 338.709960938 207.838867188 275.806640625 c 2
 207.838867188 130.645507812 l 2xa4
 207.838867188 58.064453125 229.61328125 16.935546875 251.387695312 2.419921875 c 1
 251.387695312 0.0009765625 l 1
 53 0.0009765625 l 1
 53 2.419921875 l 1
 74.7744140625 16.935546875 98.9677734375 60.484375 98.9677734375 130.645507812 c 2
 98.9677734375 290.323242188 l 1
 69.935546875 319.35546875 l 1
 98.9677734375 348.387695312 l 1
 98.9677734375 474.194335938 l 2
 98.9677734375 520.162109375 84.4521484375 575.807617188 53 597.581054688 c 1
 53 600 l 1
 248.967773438 600 l 1
 251.387695312 583.064453125 256.225585938 566.12890625 285.2578125 517.7421875 c 2
 408.645507812 309.676757812 l 2
 435.258789062 266.12890625 461.87109375 203.224609375 488.484375 137.90234375 c 1
 490.904296875 137.90234375 l 1
 478.807617188 205.64453125 476.387695312 266.12890625 476.387695312 314.515625 c 2xa9
 476.387695312 469.354492188 l 2
 476.387695312 541.935546875 454.61328125 583.064453125 432.838867188 597.580078125 c 1
 432.838867188 599.999023438 l 1
 631.2265625 597.580078125 l 1xa2
147.35546875 307.2578125 m 0
 154.61328125 307.2578125 161.87109375 314.515625 161.87109375 321.7734375 c 0x04
 161.87109375 329.032226562 154.61328125 336.290039062 147.35546875 336.290039062 c 0
 140.096679688 336.290039062 132.838867188 329.032226562 132.838867188 321.7734375 c 0
 132.838867188 314.515625 140.096679688 307.2578125 147.35546875 307.2578125 c 0
529.61328125 307.2578125 m 0
 536.872070312 307.2578125 544.129882812 314.515625 544.129882812 321.7734375 c 0
 544.129882812 329.032226562 536.872070312 336.290039062 529.61328125 336.290039062 c 0
 522.35546875 336.290039062 515.09765625 329.032226562 515.09765625 321.7734375 c 0x01
 515.09765625 314.515625 522.35546875 307.2578125 529.61328125 307.2578125 c 0
EndSplineSet
Validated: 524321
Substitution2: "'c2sc' Capitals to Small Capitals lookup 12 subtable" n.sc
Position2: "'cpsp' Capital Spacing lookup 3 subtable" dx=5 dy=0 dh=10 dv=0
EndChar

StartChar: O
Encoding: 79 79 48
Width: 748
VWidth: 0
GlyphClass: 2
Flags: MW
HStem: 0 85.0576<287.907 454.833> 514.942 85.0576<288.631 457.575>
VStem: 151.149 48.2754<305.75 332.303> 548.851 48.2754<305.752 330.075>
LayerCount: 2
Fore
SplineSet
698.275390625 319.540039062 m 1
 670.689453125 289.655273438 l 1
 663.79296875 117.241210938 544.252929688 0 367.241210938 0 c 0
 187.930664062 0 79.884765625 124.137695312 77.5859375 289.655273438 c 1
 50 319.540039062 l 1
 79.884765625 347.126953125 l 1
 98.275390625 501.149414062 208.62109375 600 378.735351562 600 c 0
 539.655273438 600 652.298828125 498.850585938 668.390625 347.126953125 c 1
 698.275390625 319.540039062 l 1
137.356445312 305.747070312 m 0
 144.252929688 305.747070312 151.149414062 310.344726562 151.149414062 319.540039062 c 0
 151.149414062 326.436523438 144.252929688 333.333007812 137.356445312 333.333007812 c 0
 130.459960938 333.333007812 123.563476562 326.436523438 123.563476562 319.540039062 c 0
 123.563476562 312.643554688 130.459960938 305.747070312 137.356445312 305.747070312 c 0
376.436523438 85.0576171875 m 0
 475.287109375 85.0576171875 548.850585938 167.81640625 548.850585938 298.850585938 c 0
 548.850585938 436.78125 482.18359375 514.942382812 371.838867188 514.942382812 c 0
 263.79296875 514.942382812 199.424804688 429.884765625 199.424804688 303.448242188 c 0
 199.424804688 170.115234375 259.1953125 85.0576171875 376.436523438 85.0576171875 c 0
610.919921875 305.747070312 m 0
 617.81640625 305.747070312 624.712890625 310.344726562 624.712890625 319.540039062 c 0
 624.712890625 326.436523438 617.81640625 333.333007812 610.919921875 333.333007812 c 0
 604.022460938 333.333007812 597.125976562 326.436523438 597.125976562 319.540039062 c 0
 597.125976562 312.643554688 604.022460938 305.747070312 610.919921875 305.747070312 c 0
EndSplineSet
Validated: 524289
Substitution2: "'c2sc' Capitals to Small Capitals lookup 12 subtable" o.sc
Position2: "'cpsp' Capital Spacing lookup 3 subtable" dx=5 dy=0 dh=10 dv=0
EndChar

StartChar: P
Encoding: 80 80 49
Width: 557
VWidth: 0
GlyphClass: 2
Flags: MW
HStem: 0 21G<53 263.484> 0 21G<53 263.484> 195.967 89.5166<217.517 341.467> 515.322 84.6777<215.097 341.467>
VStem: 98.9678 116.129<35.0001 195.967 285.483 287.903 350.806 514.829> 173.968 41.1289<307.261 336.285> 379.613 123.388<320.191 477.299>
LayerCount: 2
Fore
SplineSet
287.677734375 600 m 2xba
 423.162109375 600 503.000976562 529.838867188 503.000976562 401.612304688 c 0
 503.000976562 261.290039062 423.162109375 195.966796875 287.677734375 195.966796875 c 2
 217.516601562 195.966796875 l 1
 217.516601562 125.805664062 l 2
 217.516601562 58.0634765625 241.709960938 16.9345703125 263.484375 2.4189453125 c 1
 263.484375 0 l 1
 53 0 l 1
 53 2.4189453125 l 1
 74.7744140625 16.9345703125 98.9677734375 60.4833984375 98.9677734375 130.64453125 c 2
 98.9677734375 287.903320312 l 1
 67.515625 319.354492188 l 1
 98.9677734375 350.805664062 l 1
 98.9677734375 474.193359375 l 2
 98.9677734375 541.935546875 74.7744140625 583.064453125 53 597.580078125 c 1
 53 600 l 1
 287.677734375 600 l 2xba
159.451171875 307.2578125 m 0
 166.709960938 307.2578125 171.547851562 312.096679688 173.967773438 321.7734375 c 0x36
 173.967773438 329.032226562 166.709960938 336.290039062 159.451171875 336.290039062 c 0
 152.193359375 336.290039062 144.935546875 329.032226562 144.935546875 321.7734375 c 0
 144.935546875 314.515625 152.193359375 307.2578125 159.451171875 307.2578125 c 0
265.903320312 285.483398438 m 2
 345.7421875 283.064453125 382.033203125 326.612304688 379.61328125 399.193359375 c 0
 379.61328125 479.032226562 343.323242188 515.322265625 265.903320312 515.322265625 c 2
 215.096679688 515.322265625 l 1x36
 215.096679688 285.483398438 l 1x3a
 265.903320312 285.483398438 l 2
EndSplineSet
Validated: 524321
Substitution2: "'c2sc' Capitals to Small Capitals lookup 12 subtable" p.sc
Position2: "'cpsp' Capital Spacing lookup 3 subtable" dx=5 dy=0 dh=10 dv=0
EndChar

StartChar: Q
Encoding: 81 81 50
Width: 677
VWidth: 0
GlyphClass: 2
Flags: MW
HStem: -2.06445 81.8301<261.924 372.779> 504.823 86.376<262.569 413.062>
VStem: 138.055 45.0508<300.253 324.235> 494.368 43.0039<297.983 321.579>
LayerCount: 2
Fore
SplineSet
602.901367188 284.338867188 m 1
 602.900390625 284.337890625 l 2
 598.805664062 182.05078125 559.897460938 100.221679688 496.416015625 50.21484375 c 1
 498.463867188 47.9423828125 l 2
 529.180664062 -4.337890625 551.706054688 -27.068359375 600.853515625 -47.525390625 c 1
 600.853515625 -49.7978515625 l 1
 451.365234375 -74.80078125 l 1
 443.173828125 -42.978515625 441.125976562 -36.1591796875 424.744140625 -8.8828125 c 2
 414.504882812 9.3017578125 l 1
 389.931640625 2.482421875 361.262695312 -2.064453125 332.59375 -2.064453125 c 0
 172.8671875 -2.064453125 76.62109375 120.680664062 74.5732421875 284.338867188 c 1
 50 313.888671875 l 1
 76.62109375 341.165039062 l 1
 93.0029296875 493.458007812 191.296875 591.19921875 342.833007812 591.19921875 c 0
 486.177734375 591.19921875 586.518554688 491.185546875 600.853515625 338.891601562 c 1
 627.474609375 313.888671875 l 1
 602.901367188 284.338867188 l 1
549.658203125 325.25390625 m 0
 543.515625 325.25390625 539.419921875 320.708007812 537.372070312 311.615234375 c 0
 537.372070312 304.795898438 543.515625 297.977539062 549.658203125 297.977539062 c 0
 555.801757812 297.977539062 561.9453125 304.795898438 561.9453125 311.615234375 c 0
 561.9453125 318.434570312 555.801757812 325.25390625 549.658203125 325.25390625 c 0
125.767578125 300.25 m 0
 133.958984375 300.25 138.0546875 304.795898438 138.0546875 313.888671875 c 0
 138.0546875 320.708007812 131.911132812 327.526367188 125.767578125 327.526367188 c 0
 119.625 327.526367188 113.481445312 320.708007812 113.481445312 313.888671875 c 0
 113.481445312 307.069335938 119.625 300.25 125.767578125 300.25 c 0
445.221679688 132.045898438 m 1
 475.938476562 168.4140625 494.368164062 225.240234375 494.368164062 291.158203125 c 0
 494.368164062 425.267578125 434.982421875 504.823242188 336.689453125 504.823242188 c 0
 240.443359375 504.823242188 183.10546875 420.720703125 183.10546875 295.704101562 c 0
 183.10546875 163.868164062 236.34765625 79.765625 340.78515625 79.765625 c 0
 353.071289062 79.765625 363.310546875 82.0380859375 373.549804688 84.3115234375 c 2
 340.78515625 143.41015625 l 2
 320.306640625 179.779296875 299.829101562 202.509765625 277.303710938 216.147460938 c 1
 277.303710938 218.420898438 l 1
 400.170898438 227.512695312 l 1
 402.21875 209.329101562 408.361328125 193.416992188 420.6484375 172.959960938 c 2
 445.221679688 132.045898438 l 1
EndSplineSet
Validated: 524289
Substitution2: "Single Substitution lookup 32 subtable" Q.u
AlternateSubs2: "'salt' Stylistic Alternatives lookup 20 subtable" Q.u
Substitution2: "'c2sc' Capitals to Small Capitals lookup 12 subtable" q.sc
Position2: "'cpsp' Capital Spacing lookup 3 subtable" dx=5 dy=0 dh=10 dv=0
EndChar

StartChar: R
Encoding: 82 82 51
Width: 630
VWidth: 0
GlyphClass: 2
Flags: MW
HStem: 499.997 87.6758<212.137 348.148>
VStem: 96.0234 116.113<27.8666 281.988 343.6 499.025> 169.482 42.6543<303.318 331.745> 385.121 118.482<329.873 463.584> 385.121 11.8486<315.163 400.471>
LayerCount: 2
Fore
SplineSet
468.05859375 113.7421875 m 2xd0
 498.864257812 61.6103515625 536.779296875 28.4345703125 577.063476562 11.84765625 c 1
 577.063476562 9.478515625 l 1
 404.078125 -21.3271484375 l 1
 394.599609375 11.84765625 380.381835938 42.6533203125 361.424804688 73.458984375 c 2
 231.09375 296.20703125 l 1
 271.377929688 296.20703125 l 2
 344.836914062 296.20703125 385.12109375 324.642578125 385.12109375 400.470703125 c 0
 385.12109375 462.08203125 344.836914062 499.997070312 271.377929688 499.997070312 c 2
 212.13671875 499.997070312 l 1xb0
 212.13671875 120.852539062 l 2
 212.13671875 54.501953125 235.833007812 14.2177734375 254.790039062 0 c 1
 254.790039062 -2.369140625 l 1
 51 -2.369140625 l 1
 51 0 l 1
 72.3271484375 14.2177734375 96.0234375 56.8720703125 96.0234375 125.591796875 c 2
 96.0234375 281.98828125 l 1
 65.2177734375 312.793945312 l 1
 96.0234375 343.599609375 l 1
 96.0234375 464.452148438 l 2
 96.0234375 530.802734375 72.3271484375 571.0859375 51 585.3046875 c 1
 51 587.672851562 l 1
 290.334960938 587.672851562 l 2
 425.405273438 587.672851562 503.603515625 518.953125 503.603515625 409.94921875 c 0
 503.603515625 319.90234375 460.950195312 265.400390625 389.860351562 241.704101562 c 1
 468.05859375 113.7421875 l 2xd0
411.1875 329.380859375 m 0
 404.078125 329.380859375 396.969726562 322.271484375 396.969726562 315.163085938 c 0x88
 396.969726562 308.053710938 404.078125 300.944335938 411.1875 300.944335938 c 0
 418.295898438 300.944335938 425.405273438 308.053710938 425.405273438 315.163085938 c 0
 425.405273438 322.271484375 418.295898438 329.380859375 411.1875 329.380859375 c 0
155.264648438 303.314453125 m 0
 162.374023438 303.314453125 167.11328125 308.053710938 169.482421875 317.532226562 c 0xa0
 169.482421875 324.641601562 162.374023438 331.75 155.264648438 331.75 c 0
 148.15625 331.75 141.046875 324.641601562 141.046875 317.532226562 c 0
 141.046875 310.423828125 148.15625 303.314453125 155.264648438 303.314453125 c 0
EndSplineSet
Validated: 524289
Substitution2: "'c2sc' Capitals to Small Capitals lookup 12 subtable" r.sc
Position2: "'cpsp' Capital Spacing lookup 3 subtable" dx=5 dy=0 dh=10 dv=0
EndChar

StartChar: S
Encoding: 83 83 52
Width: 492
VWidth: 0
GlyphClass: 2
Flags: MW
HStem: 0.291992 86.0049<134.967 302.848> 516.32 83.6797<197.62 358.488>
VStem: 67.2979 111.573<407.368 498.506> 327.636 113.898<108.683 214.211>
LayerCount: 2
Fore
SplineSet
374.125 314.092773438 m 1
 374.125 314.091796875 l 1
 411.31640625 286.198242188 439.208984375 244.358398438 441.534179688 169.9765625 c 0
 441.534179688 76.9990234375 374.125 2.615234375 239.306640625 0.2919921875 c 0
 171.8984375 -2.0322265625 109.137695312 9.58984375 71.9462890625 32.833984375 c 1
 58 172.30078125 l 1
 60.32421875 172.30078125 l 1
 111.462890625 109.541015625 164.924804688 83.97265625 232.333984375 86.296875 c 0
 299.743164062 88.62109375 327.635742188 116.514648438 327.635742188 160.678710938 c 0
 327.635742188 218.790039062 276.498046875 239.709960938 220.711914062 262.954101562 c 0
 192.818359375 274.577148438 162.600585938 286.19921875 137.03125 304.794921875 c 1
 97.515625 302.470703125 l 1
 95.19140625 344.310546875 l 2
 78.919921875 369.879882812 67.2978515625 400.09765625 67.2978515625 441.9375 c 0
 67.2978515625 525.618164062 137.03125 600 264.875976562 600 c 0
 309.040039062 600 346.231445312 595.3515625 395.044921875 583.729492188 c 1
 406.666992188 448.911132812 l 1
 404.342773438 448.911132812 l 1
 369.475585938 502.373046875 322.987304688 516.3203125 274.173828125 516.3203125 c 0
 211.413085938 516.3203125 178.87109375 495.399414062 178.87109375 453.559570312 c 0
 178.87109375 407.071289062 225.360351562 388.475585938 278.822265625 365.23046875 c 0
 295.09375 358.2578125 309.040039062 351.284179688 325.311523438 344.310546875 c 2
 364.827148438 353.608398438 l 1
 374.125 314.092773438 l 1
236.982421875 318.7421875 m 0
 241.630859375 325.715820312 241.630859375 332.688476562 236.982421875 337.337890625 c 0
 232.333007812 341.986328125 223.036132812 341.986328125 218.38671875 337.337890625 c 0
 213.73828125 332.688476562 213.73828125 323.390625 218.38671875 318.7421875 c 0
 223.036132812 314.092773438 232.333007812 314.092773438 236.982421875 318.7421875 c 0
EndSplineSet
Validated: 524321
Substitution2: "'c2sc' Capitals to Small Capitals lookup 12 subtable" s.sc
Position2: "'cpsp' Capital Spacing lookup 3 subtable" dx=5 dy=0 dh=10 dv=0
EndChar

StartChar: T
Encoding: 84 84 53
Width: 576
VWidth: 0
GlyphClass: 2
Flags: MW
HStem: 0 2.39941<397.254 398.601> 506.399 86.4004<93.6889 230.601 345.801 488.217> 580 20G<65.5542 87.8003 492.201 512.988> 580 20G<65.5542 87.8003 492.201 512.988>
VStem: 230.601 115.2<39.0138 287.999 350.399 506.399>
LayerCount: 2
Fore
SplineSet
511.400390625 600 m 1xa8
 523.401367188 448.799804688 l 1
 521.000976562 448.799804688 l 1
 501.80078125 482.399414062 461.000976562 511.19921875 410.600585938 511.19921875 c 2
 345.80078125 511.19921875 l 1
 345.80078125 350.399414062 l 1
 377.000976562 319.19921875 l 1
 345.80078125 287.999023438 l 1
 345.80078125 136.798828125 l 2
 345.80078125 62.3994140625 369.80078125 16.798828125 398.600585938 2.3994140625 c 1
 398.600585938 0 l 1
 177.80078125 0 l 1
 177.80078125 2.3994140625 l 1
 204.200195312 19.19921875 230.600585938 64.798828125 230.600585938 136.798828125 c 2
 230.600585938 287.999023438 l 1
 201.80078125 316.799804688 l 1
 230.600585938 345.599609375 l 1
 230.600585938 506.399414062 l 1
 165.80078125 506.399414062 l 2xc8
 115.400390625 506.399414062 74.6005859375 477.599609375 55.400390625 444 c 1
 53 444 l 1
 67.400390625 600 l 1xa8
 108.200195312 595.19921875 144.200195312 592.799804688 185 592.799804688 c 2
 393.80078125 592.799804688 l 2xc8
 437 592.799804688 473.000976562 595.200195312 511.400390625 600 c 1xa8
288.200195312 307.200195312 m 0
 295.400390625 307.200195312 302.600585938 312 302.600585938 321.599609375 c 0
 302.600585938 328.799804688 295.400390625 336 288.200195312 336 c 0
 281 336 273.799804688 328.799804688 273.799804688 321.599609375 c 0
 273.799804688 314.399414062 281 307.200195312 288.200195312 307.200195312 c 0
EndSplineSet
Validated: 524289
Substitution2: "'c2sc' Capitals to Small Capitals lookup 12 subtable" t.sc
Position2: "'cpsp' Capital Spacing lookup 3 subtable" dx=5 dy=0 dh=10 dv=0
EndChar

StartChar: U
Encoding: 85 85 54
Width: 667
VWidth: 0
GlyphClass: 2
Flags: MW
HStem: -0 87.4014<256.322 411.178> 580 20G<50 255.512 413.78 614.568> 580 20G<50 255.512 413.78 614.568>
VStem: 94.8818 118.11<136.572 297.639 354.331 569.859> 163.386 49.6064<314.177 342.514> 456.3 113.386<138.967 297.639 354.331 570.44> 456.3 40.1572<314.179 342.514>
LayerCount: 2
Fore
SplineSet
413.780273438 597.638671875 m 1xd4
 413.780273438 600 l 1
 614.568359375 600 l 1
 614.568359375 597.638671875 l 1
 593.307617188 583.46484375 569.685546875 543.307617188 569.685546875 472.44140625 c 2
 569.685546875 354.331054688 l 1
 598.032226562 325.984375 l 1
 569.685546875 297.638671875 l 1
 569.685546875 255.118164062 l 2
 569.685546875 85.0390625 491.733398438 -0 328.740234375 -0 c 0
 177.559570312 -0 94.8818359375 82.6767578125 94.8818359375 255.118164062 c 2
 94.8818359375 297.638671875 l 1
 66.53515625 325.984375 l 1
 94.8818359375 354.331054688 l 1
 94.8818359375 472.44140625 l 2
 94.8818359375 540.9453125 71.259765625 583.46484375 50 597.638671875 c 1
 50 600 l 1
 255.51171875 600 l 1
 255.51171875 597.638671875 l 1
 236.614257812 583.46484375 212.9921875 543.307617188 212.9921875 472.44140625 c 2
 212.9921875 245.669921875 l 2
 212.9921875 129.920898438 246.063476562 87.4013671875 338.189453125 87.4013671875 c 0
 418.504882812 87.4013671875 456.299804688 137.0078125 456.299804688 245.669921875 c 2
 456.299804688 472.44140625 l 2
 456.299804688 540.9453125 432.677734375 581.103515625 413.780273438 597.638671875 c 1xd4
149.212890625 314.173828125 m 0
 158.661132812 314.173828125 163.385742188 318.8984375 163.385742188 328.346679688 c 0x88
 163.385742188 335.43359375 156.299804688 342.51953125 149.212890625 342.51953125 c 0
 142.125976562 342.51953125 135.0390625 335.43359375 135.0390625 328.346679688 c 0
 135.0390625 321.259765625 142.125976562 314.173828125 149.212890625 314.173828125 c 0
510.630859375 314.173828125 m 0
 517.717773438 314.173828125 524.803710938 318.8984375 524.803710938 328.346679688 c 0
 524.803710938 335.43359375 517.717773438 342.51953125 510.630859375 342.51953125 c 0
 503.543945312 342.51953125 496.45703125 335.43359375 496.45703125 328.346679688 c 0x82
 496.45703125 321.259765625 503.543945312 314.173828125 510.630859375 314.173828125 c 0
EndSplineSet
Validated: 524289
Substitution2: "'c2sc' Capitals to Small Capitals lookup 12 subtable" u.sc
Position2: "'cpsp' Capital Spacing lookup 3 subtable" dx=5 dy=0 dh=10 dv=0
EndChar

StartChar: V
Encoding: 86 86 55
Width: 711
VWidth: 0
GlyphClass: 2
Flags: MW
HStem: 0 21G<249.62 463.385> 0 21G<249.62 463.385> 580 20G<48 249.62 480.389 660.146> 580 20G<48 249.62 480.389 660.146>
LayerCount: 2
Fore
SplineSet
473.1015625 600 m 1x90
 660.146484375 599.999023438 l 1
 660.146484375 597.5703125 l 1
 628.567382812 580.56640625 604.276367188 541.700195312 587.271484375 490.688476562 c 2
 543.546875 361.942382812 l 1
 560.55078125 323.076171875 l 1
 521.684570312 306.072265625 l 1
 456.09765625 121.45703125 l 2
 434.235351562 60.728515625 446.380859375 19.4326171875 463.384765625 2.4287109375 c 1
 463.384765625 0 l 1
 249.620117188 0 l 1
 249.620117188 2.4287109375 l 1
 266.624023438 19.4326171875 278.76953125 60.728515625 256.907226562 121.45703125 c 2
 191.3203125 306.072265625 l 1
 152.453125 323.076171875 l 1
 169.458007812 361.942382812 l 1
 125.732421875 480.971679688 l 2
 111.158203125 524.696289062 84.4375 570.850585938 48 597.5703125 c 1
 48 599.999023438 l 1
 249.620117188 599.999023438 l 1
 249.620117188 597.5703125 l 2
 235.044921875 580.56640625 227.756835938 546.55859375 239.903320312 514.979492188 c 2
 315.20703125 296.35546875 l 2
 327.352539062 255.060546875 349.21484375 182.185546875 358.931640625 119.02734375 c 1
 361.361328125 119.02734375 l 1
 371.077148438 182.185546875 390.510742188 255.060546875 405.0859375 296.35546875 c 2
 477.959960938 512.55078125 l 2
 487.676757812 548.98828125 487.676757812 582.99609375 473.1015625 600 c 1x90
225.328125 320.647460938 m 0
 235.044921875 320.647460938 239.903320312 327.934570312 239.903320312 335.22265625 c 0
 239.903320312 342.509765625 232.616210938 349.796875 225.328125 349.796875 c 0
 218.041015625 349.796875 210.752929688 342.509765625 210.752929688 335.22265625 c 0
 210.752929688 327.934570312 218.041015625 320.647460938 225.328125 320.647460938 c 0
480.389648438 320.647460938 m 0
 487.676757812 320.647460938 494.963867188 327.934570312 494.963867188 335.22265625 c 0
 494.963867188 342.509765625 487.676757812 349.796875 480.389648438 349.796875 c 0
 473.1015625 349.796875 465.814453125 342.509765625 465.814453125 335.22265625 c 0
 465.814453125 327.934570312 473.1015625 320.647460938 480.389648438 320.647460938 c 0
EndSplineSet
Validated: 524321
Substitution2: "'c2sc' Capitals to Small Capitals lookup 12 subtable" v.sc
Position2: "'cpsp' Capital Spacing lookup 3 subtable" dx=5 dy=0 dh=10 dv=0
EndChar

StartChar: W
Encoding: 87 87 56
Width: 976
VWidth: 0
GlyphClass: 2
Flags: MW
HStem: 0 21G<183.864 384.662> 0 21G<183.864 384.662> 577.609 15.2188G<50 255.578 493.427 505.379 749.204 924.901> 580 20G<493.427 505.379>
LayerCount: 2
Fore
SplineSet
738.447265625 597.609375 m 1x10
 924.901367188 597.608398438 l 1
 924.901367188 595.21875 l 1
 893.826171875 578.486328125 877.092773438 533.067382812 867.53125 497.2109375 c 2
 836.455078125 363.346679688 l 1
 862.75 325.099609375 l 1
 829.284179688 305.975585938 l 1
 788.646484375 136.25390625 l 2
 774.303710938 78.8837890625 781.474609375 38.24609375 807.76953125 4.7802734375 c 1
 807.76953125 2.390625 l 1
 609.36328125 2.390625 l 1
 609.36328125 4.7802734375 l 2
 623.706054688 28.6845703125 626.096679688 66.931640625 604.58203125 109.959960938 c 2
 542.430664062 241.43359375 l 2
 523.307617188 279.680664062 506.57421875 334.661132812 501.79296875 370.517578125 c 1
 499.40234375 370.517578125 l 1
 487.450195312 325.099609375 475.498046875 289.2421875 461.15625 260.557617188 c 2
 389.442382812 107.569335938 l 2
 370.319335938 64.541015625 367.928710938 26.2939453125 384.662109375 2.3896484375 c 1
 384.662109375 0 l 1
 183.864257812 0 l 1
 183.864257812 2.3896484375 l 1
 212.549804688 33.4658203125 217.331054688 81.2744140625 202.98828125 133.864257812 c 2
 157.5703125 301.194335938 l 1
 121.712890625 320.318359375 l 1
 143.227539062 358.565429688 l 1
 107.370117188 492.4296875 l 2
 97.80859375 528.287109375 81.076171875 573.705078125 50 590.438476562 c 1
 50 592.828125 l 1
 255.578125 592.828125 l 1xa0
 255.578125 590.438476562 l 1
 234.063476562 571.314453125 222.111328125 530.676757812 234.063476562 485.258789062 c 2
 281.873046875 296.4140625 l 2
 293.825195312 250.995117188 300.99609375 210.358398438 303.38671875 143.42578125 c 1
 305.77734375 143.42578125 l 1
 322.510742188 212.749023438 346.415039062 267.728515625 365.538085938 305.975585938 c 2
 456.375 492.4296875 l 2
 477.888671875 540.239257812 489.840820312 573.705078125 497.012695312 600 c 1
 501.79296875 600 l 1
 508.96484375 576.095703125 518.526367188 542.629882812 542.430664062 494.8203125 c 2
 623.706054688 334.661132812 l 2
 664.342773438 253.385742188 678.685546875 205.577148438 690.637695312 148.20703125 c 1
 693.028320312 148.20703125 l 1
 697.809570312 212.749023438 707.37109375 270.119140625 719.323242188 320.318359375 c 2
 759.9609375 490.040039062 l 2
 769.522460938 537.848632812 759.9609375 576.095703125 738.447265625 597.609375 c 1x10
205.37890625 322.708984375 m 0
 212.549804688 322.708984375 219.721679688 329.879882812 219.721679688 337.05078125 c 0
 219.721679688 344.22265625 212.549804688 351.393554688 205.37890625 351.393554688 c 0
 198.20703125 351.393554688 191.036132812 344.22265625 191.036132812 337.05078125 c 0
 191.036132812 329.879882812 198.20703125 322.708984375 205.37890625 322.708984375 c 0
781.474609375 322.708984375 m 0
 788.646484375 322.708984375 795.817382812 329.879882812 795.817382812 337.05078125 c 0
 795.817382812 344.22265625 788.646484375 351.393554688 781.474609375 351.393554688 c 0
 774.303710938 351.393554688 767.1328125 344.22265625 767.1328125 337.05078125 c 0
 767.1328125 329.879882812 774.303710938 322.708984375 781.474609375 322.708984375 c 0
EndSplineSet
Validated: 524321
Substitution2: "'c2sc' Capitals to Small Capitals lookup 12 subtable" w.sc
Position2: "'cpsp' Capital Spacing lookup 3 subtable" dx=5 dy=0 dh=10 dv=0
EndChar

StartChar: X
Encoding: 88 88 57
Width: 710
VWidth: 0
GlyphClass: 2
Flags: MW
HStem: 0 2.3877<48 49.3521> 589.895 2.3877<623.464 625.954>
LayerCount: 2
Fore
SplineSet
547.141601562 136.12890625 m 1
 547.141601562 136.127929688 l 1
 590.129882812 76.421875 635.506835938 35.822265625 661.77734375 16.716796875 c 1
 661.77734375 14.3291015625 l 1
 485.047851562 -16.7177734375 l 1
 485.047851562 7.1640625 468.330078125 42.98828125 432.506835938 95.5283203125 c 2
 346.530273438 229.270507812 l 1
 253.388671875 76.4228515625 l 2
 229.505859375 38.2109375 234.282226562 11.9404296875 248.612304688 2.3876953125 c 2
 248.612304688 0 l 1
 48 0 l 1
 48 2.3876953125 l 1
 76.6591796875 16.716796875 117.258789062 59.705078125 153.08203125 112.247070312 c 2
 284.435546875 315.247070312 l 1
 150.694335938 515.859375 l 2
 126.811523438 549.293945312 107.706054688 570.788085938 74.2705078125 589.89453125 c 1
 74.2705078125 592.282226562 l 1
 272.494140625 592.282226562 l 1
 272.494140625 589.89453125 l 2
 267.717773438 563.624023438 277.270507812 542.129882812 296.376953125 508.694335938 c 2
 360.859375 401.223632812 l 1
 420.565429688 503.91796875 l 2
 442.059570312 542.129882812 454.000976562 563.624023438 439.670898438 589.89453125 c 2
 439.670898438 592.282226562 l 1
 625.954101562 592.282226562 l 1
 625.954101562 589.89453125 l 1
 599.68359375 580.341796875 563.859375 546.90625 528.036132812 487.200195312 c 2
 422.953125 315.247070312 l 1
 547.141601562 136.12890625 l 1
353.694335938 317.634765625 m 0
 363.247070312 317.634765625 368.024414062 324.799804688 368.024414062 331.96484375 c 0
 368.024414062 339.12890625 360.859375 346.293945312 353.694335938 346.293945312 c 0
 346.530273438 346.293945312 339.365234375 339.12890625 339.365234375 331.96484375 c 0
 339.365234375 324.799804688 346.530273438 317.634765625 353.694335938 317.634765625 c 0
EndSplineSet
Validated: 524321
Substitution2: "'c2sc' Capitals to Small Capitals lookup 12 subtable" x.sc
Position2: "'cpsp' Capital Spacing lookup 3 subtable" dx=5 dy=0 dh=10 dv=0
EndChar

StartChar: Y
Encoding: 89 89 58
Width: 689
VWidth: 0
GlyphClass: 2
Flags: MW
HStem: 0 2.43848<454.949 456.317> 580 20G<49 234.366 466.074 636.806>
VStem: 285.586 117.073<37.5231 236.585>
LayerCount: 2
Fore
SplineSet
461.1953125 600 m 1
 636.805664062 599.999023438 l 1
 636.805664062 597.560546875 l 1
 617.29296875 580.487304688 590.463867188 546.340820312 568.512695312 509.755859375 c 2
 475.829101562 358.536132812 l 1
 485.5859375 317.072265625 l 1
 444.122070312 307.31640625 l 1
 402.659179688 239.024414062 l 1
 402.659179688 136.584960938 l 2
 402.659179688 63.4140625 427.048828125 17.072265625 456.317382812 2.4384765625 c 1
 456.317382812 0 l 1
 231.926757812 0 l 1
 231.926757812 2.4384765625 l 1
 258.755859375 17.072265625 285.5859375 63.4140625 285.5859375 136.584960938 c 2
 285.5859375 236.584960938 l 1
 241.682617188 307.31640625 l 1
 200.219726562 317.072265625 l 1
 209.975585938 358.536132812 l 1
 119.731445312 509.755859375 l 2
 97.7802734375 543.90234375 70.951171875 580.487304688 49 597.560546875 c 1
 49 599.999023438 l 1
 234.366210938 599.999023438 l 1
 234.366210938 597.560546875 l 2
 227.048828125 575.609375 236.8046875 539.024414062 253.877929688 509.755859375 c 2
 319.731445312 395.122070312 l 2
 329.48828125 380.487304688 336.8046875 363.4140625 346.561523438 339.0234375 c 1
 349 339.0234375 l 1
 356.317382812 363.4140625 366.073242188 380.487304688 375.830078125 395.122070312 c 2
 441.68359375 509.755859375 l 2
 458.756835938 539.024414062 470.952148438 575.609375 461.1953125 600 c 1
280.708007812 319.51171875 m 0
 288.024414062 319.51171875 295.341796875 326.829101562 295.341796875 334.145507812 c 0
 295.341796875 341.462890625 288.024414062 348.780273438 280.708007812 348.780273438 c 0
 273.390625 348.780273438 266.073242188 341.462890625 266.073242188 334.145507812 c 0
 266.073242188 326.829101562 273.390625 319.51171875 280.708007812 319.51171875 c 0
409.9765625 319.51171875 m 0
 417.29296875 319.51171875 424.610351562 326.829101562 424.610351562 334.145507812 c 0
 424.610351562 341.462890625 417.29296875 348.780273438 409.9765625 348.780273438 c 0
 402.659179688 348.780273438 395.341796875 341.462890625 395.341796875 334.145507812 c 0
 395.341796875 326.829101562 402.659179688 319.51171875 409.9765625 319.51171875 c 0
EndSplineSet
Validated: 524321
Substitution2: "'c2sc' Capitals to Small Capitals lookup 12 subtable" y.sc
Position2: "'cpsp' Capital Spacing lookup 3 subtable" dx=5 dy=0 dh=10 dv=0
EndChar

StartChar: Z
Encoding: 90 90 59
Width: 587
VWidth: 0
GlyphClass: 2
Flags: MW
HStem: 0 84.584<227.417 460.79> 512.333 84.584<126.718 341>
LayerCount: 2
Fore
SplineSet
531.916992188 164.333984375 m 1
 515 -7.25 l 1
 476.333984375 0 464.25 0 399 0 c 2
 51 0 l 1
 51 2.416015625 l 1
 225 306.916015625 l 1
 212.916992188 348 l 1
 254 360.083007812 l 1
 341 512.333007812 l 1
 234.666992188 512.333007812 l 2
 167 512.333007812 116.25 497.833007812 87.25 454.333007812 c 1
 84.8330078125 454.333007812 l 1
 109 601.75 l 1
 142.833007812 596.916992188 171.833007812 596.916992188 237.083007812 596.916992188 c 2
 519.833984375 596.916992188 l 1
 519.833984375 594.500976562 l 1
 384.5 357.666992188 l 1
 396.583007812 316.583984375 l 1
 355.5 304.500976562 l 1
 227.416992188 84.583984375 l 1
 357.916992188 84.583984375 l 2
 435.25 84.583984375 498.083984375 116.000976562 531.916992188 164.333984375 c 1
307.166992188 345.583984375 m 0
 299.916992188 345.583984375 292.666992188 338.333984375 292.666992188 331.083984375 c 0
 292.666992188 323.833984375 299.916992188 316.583984375 307.166992188 316.583984375 c 0
 314.416992188 316.583984375 321.666992188 323.833984375 321.666992188 331.083984375 c 0
 321.666992188 338.333984375 314.416992188 345.583984375 307.166992188 345.583984375 c 0
EndSplineSet
Validated: 524289
Substitution2: "'c2sc' Capitals to Small Capitals lookup 12 subtable" z.sc
Position2: "'cpsp' Capital Spacing lookup 3 subtable" dx=5 dy=0 dh=10 dv=0
EndChar

StartChar: bracketleft
Encoding: 91 91 60
Width: 361
GlyphClass: 2
Flags: MW
HStem: -192 29<110 325> 673 30<110 325>
VStem: 110 68<-93.5 -50 -50 561>
LayerCount: 2
Fore
SplineSet
110 -192 m 1
 110 703 l 1
 325 703 l 1
 325 673 l 1
 188 663 178 648 178 561 c 2
 178 -50 l 2
 178 -137 187 -152 325 -163 c 1
 325 -192 l 1
 110 -192 l 1
EndSplineSet
Validated: 1
Substitution2: "'c2sc' Capitals to Small Capitals lookup 12 subtable" bracketleft.sc
Substitution2: "'case' Case-Sensitive Forms lookup 8 subtable" bracketleft.sc
EndChar

StartChar: backslash
Encoding: 92 92 61
Width: 292
GlyphClass: 2
Flags: MW
HStem: 678 20G<11 60 60 60>
VStem: 11 279
LayerCount: 2
Fore
SplineSet
60 698 m 1
 290 -48 l 1
 241 -48 l 1
 11 698 l 1
 60 698 l 1
EndSplineSet
Validated: 1
EndChar

StartChar: bracketright
Encoding: 93 93 62
Width: 361
GlyphClass: 2
Flags: MW
HStem: -192 30<36 251 36 36> 674 29<36 251>
VStem: 183 68<-50 561 561 604.5>
LayerCount: 2
Fore
SplineSet
251 703 m 1
 251 -192 l 1
 36 -192 l 1
 36 -162 l 1
 173 -152 183 -137 183 -50 c 2
 183 561 l 2
 183 648 174 663 36 674 c 1
 36 703 l 1
 251 703 l 1
EndSplineSet
Validated: 1
Substitution2: "'c2sc' Capitals to Small Capitals lookup 12 subtable" bracketright.sc
Substitution2: "'case' Case-Sensitive Forms lookup 8 subtable" bracketright.sc
EndChar

StartChar: asciicircum
Encoding: 94 94 63
Width: 518
GlyphClass: 2
Flags: MW
HStem: 346 304<112 281 112 281 239 362 239 407>
VStem: 112 295<346 346>
LayerCount: 2
Fore
SplineSet
259 593 m 1
 157 346 l 1
 112 346 l 1
 239 650 l 1
 281 650 l 1
 407 346 l 1
 362 346 l 1
 259 593 l 1
EndSplineSet
Validated: 1
EndChar

StartChar: underscore
Encoding: 95 95 64
Width: 486
GlyphClass: 2
Flags: MW
HStem: -154 44<5 482 5 482>
LayerCount: 2
Fore
SplineSet
482 -110 m 1
 482 -154 l 1
 5 -154 l 1
 5 -110 l 1
 482 -110 l 1
EndSplineSet
Validated: 1
EndChar

StartChar: grave
Encoding: 96 96 65
Width: 392
GlyphClass: 2
Flags: MW
HStem: 538 161<178 243>
VStem: 96 158<546.5 667>
LayerCount: 2
Fore
SplineSet
178 699 m 2
 248 573 l 2
 253 563 254 556 254 549 c 0
 254 544 247 538 239 538 c 0
 233 538 226 543 210 558 c 2
 96 667 l 1
 98 678 l 1
 106 684 129 701 163 701 c 0
 168 701 174 700 178 699 c 2
EndSplineSet
Validated: 1
EndChar

StartChar: a
Encoding: 97 97 66
Width: 712
VWidth: -200
GlyphClass: 2
Flags: MW
HStem: 0 21G<48 229.452 466.55 660.098> 130.645 84.6777<265.742 430.259> 580 20G<239.129 466.549>
VStem: 262.268 182.688<486.668 598.495>
LayerCount: 2
Fore
SplineSet
577.83984375 142.741210938 m 2
 602.033203125 77.41796875 638.32421875 24.1923828125 660.09765625 2.4189453125 c 1
 660.09765625 0 l 1
 466.549804688 0 l 1
 466.549804688 2.4189453125 l 2
 474.512695312 9.0546875 480.291992188 22.2431640625 480.291992188 42.7841796875 c 0
 480.291992188 59.6865234375 476.37890625 81.56640625 466.549804688 108.870117188 c 2
 459.291015625 130.64453125 l 1
 239.129882812 130.64453125 l 1
 231.87109375 108.870117188 l 2
 220.935546875 81.53125 216.920898438 59.630859375 216.920898438 42.7197265625 c 0
 216.920898438 22.2158203125 222.823242188 9.0478515625 229.452148438 2.4189453125 c 2
 229.452148438 0 l 1
 48 0 l 1
 48 2.4189453125 l 1
 72.193359375 24.1923828125 108.484375 77.41796875 132.677734375 142.741210938 c 2
 183.484375 290.322265625 l 1
 164.12890625 329.032226562 l 1
 202.838867188 348.38671875 l 1
 253.645507812 498.38671875 l 2
 259.778320312 514.485351562 262.267578125 529.126953125 262.267578125 542.080078125 c 0
 262.267578125 570.005859375 250.698242188 590.083007812 239.12890625 600 c 1
 466.548828125 600 l 1
 456.349609375 589.799804688 444.956054688 568.8515625 444.956054688 539.670898438 c 0
 444.956054688 527.3203125 446.997070312 513.495117188 452.033203125 498.38671875 c 2
 505.258789062 348.38671875 l 1
 543.96875 329.032226562 l 1
 524.61328125 292.741210938 l 1
 577.83984375 142.741210938 l 2
248.806640625 316.934570312 m 0
 253.645507812 321.774414062 253.645507812 329.032226562 248.806640625 336.290039062 c 0
 243.967773438 341.12890625 234.291015625 341.12890625 229.452148438 336.290039062 c 0
 224.61328125 331.451171875 224.61328125 321.774414062 229.452148438 316.934570312 c 0
 234.291015625 312.096679688 243.967773438 312.096679688 248.806640625 316.934570312 c 0
265.7421875 215.322265625 m 1
 430.258789062 215.322265625 l 1
 398.807617188 307.2578125 l 2
 377.033203125 362.903320312 357.677734375 420.967773438 348.000976562 486.290039062 c 1
 345.581054688 486.290039062 l 1
 338.323242188 420.967773438 316.548828125 362.903320312 297.194335938 307.2578125 c 2
 265.7421875 215.322265625 l 1
454.452148438 316.934570312 m 0
 459.291015625 321.774414062 459.291015625 329.032226562 454.452148438 336.290039062 c 0
 449.61328125 341.12890625 439.936523438 341.12890625 435.09765625 336.290039062 c 0
 430.258789062 331.451171875 430.258789062 321.774414062 435.09765625 316.934570312 c 0
 439.936523438 312.096679688 449.61328125 312.096679688 454.452148438 316.934570312 c 0
EndSplineSet
Validated: 524289
Substitution2: "'smcp' Lowercase to Small Capitals lookup 10 subtable" a.sc
Substitution2: "'subs' Subscript lookup 7 subtable" uni2090
Substitution2: "'sups' Superscript lookup 6 subtable" uni1D43
Substitution2: "Single Substitution lookup 3 subtable" uni1D43
Substitution2: "Single Substitution lookup 2 subtable" uni2090
EndChar

StartChar: b
Encoding: 98 98 67
Width: 611
VWidth: 0
GlyphClass: 2
Flags: MW
HStem: 0 82.9258<236.12 390.167> 275.607 82.9277<236.12 371.557> 514.631 85.3691<236.12 369.767>
VStem: 107.341 128.779<85.1026 275.607 358.535 513.298> 394.412 134.146<380.956 494.033> 426.606 134.146<115.579 241.974>
LayerCount: 2
Fore
SplineSet
418.55859375 319.509765625 m 1xf8
 499.045898438 309.75390625 563.439453125 246.33984375 560.752929688 178.047851562 c 0xf4
 560.752929688 65.853515625 466.850585938 0 338.071289062 0 c 2
 51 0 l 1
 51 2.4423828125 l 1
 75.1455078125 19.515625 107.340820312 58.5400390625 107.340820312 136.588867188 c 2
 107.340820312 292.684570312 l 1
 75.1455078125 321.953125 l 1
 107.340820312 351.220703125 l 1
 107.340820312 468.293945312 l 2
 107.340820312 539.025390625 80.51171875 580.48828125 51 600 c 1
 313.924804688 600 l 2
 456.119140625 600 528.557617188 551.220703125 528.557617188 448.782226562 c 0
 528.557617188 382.928710938 474.899414062 329.272460938 418.55859375 321.953125 c 1
 418.55859375 319.509765625 l 1xf8
236.120117188 514.630859375 m 1
 236.120117188 358.53515625 l 1
 305.875976562 358.53515625 l 2
 362.216796875 358.53515625 394.412109375 385.364257812 394.412109375 441.4609375 c 0xf8
 394.412109375 490.241210938 362.216796875 514.630859375 305.875976562 514.630859375 c 2
 236.120117188 514.630859375 l 1
169.047851562 304.875976562 m 0
 177.09375 304.875976562 185.14453125 312.190429688 185.14453125 319.509765625 c 0
 185.14453125 326.825195312 177.098632812 334.14453125 169.047851562 334.14453125 c 0
 161.000976562 334.14453125 152.950195312 326.829101562 152.950195312 319.509765625 c 0
 152.950195312 312.1953125 160.99609375 304.875976562 169.047851562 304.875976562 c 0
319.291015625 82.92578125 m 2
 391.729492188 82.92578125 426.606445312 121.951171875 426.606445312 180.487304688 c 0xf4
 426.606445312 236.583984375 391.729492188 275.607421875 319.291015625 275.607421875 c 2
 236.120117188 275.607421875 l 1
 236.120117188 82.92578125 l 1
 319.291015625 82.92578125 l 2
EndSplineSet
Validated: 524321
Substitution2: "'smcp' Lowercase to Small Capitals lookup 10 subtable" b.sc
Substitution2: "'subs' Subscript lookup 7 subtable" b.inferior
Substitution2: "'sups' Superscript lookup 6 subtable" uni1D47
Substitution2: "Single Substitution lookup 3 subtable" uni1D47
Substitution2: "Single Substitution lookup 2 subtable" b.inferior
EndChar

StartChar: c
Encoding: 99 99 68
Width: 615
VWidth: 0
GlyphClass: 2
Flags: MW
HStem: 0 87.0967<291.73 478.565> 512.903 87.0967<294.046 480.789>
VStem: 156.451 43.5488<304.844 328.306>
LayerCount: 2
Fore
SplineSet
562.90234375 179.032226562 m 1
 545.967773438 31.4521484375 l 1
 502.418945312 16.935546875 439.515625 0 369.354492188 0 c 0
 192.7421875 0 81.4521484375 123.38671875 79.0322265625 290.322265625 c 1
 50 321.774414062 l 1
 81.451171875 350.806640625 l 1
 103.225585938 505.64453125 219.354492188 600 388.708984375 600 c 0
 441.935546875 600 485.483398438 592.741210938 533.87109375 578.225585938 c 1
 545.967773438 435.483398438 l 1
 543.547851562 435.483398438 l 1
 509.676757812 488.708984375 449.193359375 512.903320312 386.290039062 512.903320312 c 0
 270.161132812 512.903320312 200 433.064453125 200 304.838867188 c 0
 200 176.61328125 260.483398438 87.0966796875 376.612304688 87.0966796875 c 0
 466.12890625 87.0966796875 519.354492188 123.38671875 562.90234375 179.032226562 c 1
141.935546875 304.838867188 m 0
 149.193359375 304.838867188 156.451171875 312.094726562 156.451171875 319.354492188 c 0
 156.451171875 326.610351562 149.192382812 333.87109375 141.935546875 333.87109375 c 0
 134.676757812 333.87109375 127.418945312 326.615234375 127.418945312 319.354492188 c 0
 127.418945312 312.098632812 134.676757812 304.838867188 141.935546875 304.838867188 c 0
EndSplineSet
Validated: 524289
Substitution2: "'smcp' Lowercase to Small Capitals lookup 10 subtable" c.sc
Substitution2: "'subs' Subscript lookup 7 subtable" c.inferior
Substitution2: "'sups' Superscript lookup 6 subtable" uni1D9C
Substitution2: "Single Substitution lookup 3 subtable" uni1D9C
Substitution2: "Single Substitution lookup 2 subtable" c.inferior
EndChar

StartChar: d
Encoding: 100 100 69
Width: 662
VWidth: 0
GlyphClass: 2
Flags: MW
HStem: 0 306.074<142.883 171.912 291.056 541.256> 0 85.0234<215.752 383.11> 514.979 85.0205<215.752 388.206>
VStem: 99.1533 116.599<86.0801 291.5 349.799 514.35> 172.027 43.7246<306.08 335.219> 473.24 53.4414<306.08 333.957> 555.831 51.0117<206.476 331.117>
LayerCount: 2
Fore
SplineSet
303.201171875 600 m 1x76
 303.201171875 599.995117188 l 1
 482.95703125 599.995117188 604.413085938 488.255859375 606.842773438 301.211914062 c 0
 606.842773438 111.740234375 504.819335938 0 291.055664062 0 c 2xb6
 53 0 l 1
 53 2.4326171875 l 1
 74.8623046875 17.0078125 99.1533203125 60.732421875 99.1533203125 131.176757812 c 2
 99.1533203125 291.5 l 1
 70.00390625 320.649414062 l 1
 99.1533203125 349.798828125 l 1
 99.1533203125 471.254882812 l 2
 99.1533203125 536.841796875 74.8623046875 585.424804688 53 600 c 1
 303.201171875 600 l 1x76
157.453125 306.07421875 m 0
 164.740234375 306.07421875 169.598632812 313.359375 172.02734375 320.649414062 c 0xae
 172.02734375 327.934570312 164.739257812 335.224609375 157.453125 335.224609375 c 0
 150.165039062 335.224609375 142.877929688 327.939453125 142.877929688 320.649414062 c 0
 142.877929688 313.364257812 150.166015625 306.07421875 157.453125 306.07421875 c 0
295.913085938 85.0234375 m 2x6e
 410.348632812 85.0234375 473.307617188 157.557617188 473.307617188 293.44140625 c 0
 473.307617188 296.009765625 473.28515625 298.6015625 473.240234375 301.215820312 c 0
 473.240234375 446.963867188 414.94140625 514.979492188 291.055664062 514.979492188 c 2
 215.751953125 514.979492188 l 1
 215.751953125 85.0234375 l 1
 295.913085938 85.0234375 l 2x6e
541.255859375 306.07421875 m 0xa6
 548.543945312 306.07421875 555.831054688 313.359375 555.831054688 320.649414062 c 0
 555.831054688 327.934570312 548.543945312 335.224609375 541.255859375 335.224609375 c 0
 533.967773438 335.224609375 526.681640625 327.939453125 526.681640625 320.649414062 c 0
 526.681640625 313.364257812 533.96875 306.07421875 541.255859375 306.07421875 c 0xa6
EndSplineSet
Validated: 524289
Substitution2: "'smcp' Lowercase to Small Capitals lookup 10 subtable" d.sc
Substitution2: "'subs' Subscript lookup 7 subtable" d.inferior
Substitution2: "'sups' Superscript lookup 6 subtable" uni1D48
Substitution2: "Single Substitution lookup 3 subtable" uni1D48
Substitution2: "Single Substitution lookup 2 subtable" d.inferior
EndChar

StartChar: e
Encoding: 101 101 70
Width: 528
VWidth: 0
GlyphClass: 2
Flags: MW
HStem: -2.36621 82.6875<212.627 407.518> 269.294 82.6738<212.627 362.076> 500.783 82.6738<212.627 418.106>
VStem: 96.8809 115.746<81.3407 269.294 351.968 500.724>
LayerCount: 2
Fore
SplineSet
474.826171875 158.272460938 m 1
 451.205078125 -9.4541015625 l 1
 420.497070312 -4.7314453125 399.237304688 -2.3662109375 349.631835938 -2.3662109375 c 2
 52 -2.3662109375 l 1
 52 0 l 1
 73.259765625 14.1728515625 96.880859375 56.69140625 96.880859375 125.194335938 c 2
 96.880859375 281.096679688 l 1
 66.1728515625 309.442382812 l 1
 96.880859375 337.788085938 l 1
 96.880859375 455.896484375 l 2
 96.880859375 526.76171875 73.259765625 566.91796875 52 581.090820312 c 1
 52 583.45703125 l 1
 354.356445312 583.45703125 l 2
 389.7890625 583.45703125 425.220703125 585.822265625 444.118164062 590.545898438 c 1
 458.291015625 439.3671875 l 1
 455.928710938 439.3671875 l 1
 434.669921875 479.524414062 389.7890625 500.783203125 323.6484375 500.783203125 c 2
 212.626953125 500.783203125 l 1
 212.626953125 351.967773438 l 1
 276.405273438 351.967773438 l 2
 347.26953125 351.967773438 370.891601562 354.333984375 408.685546875 359.056640625 c 1
 385.064453125 217.327148438 l 1
 382.702148438 217.327148438 l 1
 368.529296875 255.12109375 337.821289062 269.293945312 290.578125 269.293945312 c 2
 212.626953125 269.293945312 l 1
 212.626953125 80.3212890625 l 1
 304.750976562 80.3212890625 l 2
 380.33984375 80.3212890625 439.393554688 106.305664062 474.826171875 158.272460938 c 1
148.848632812 300.001953125 m 0
 155.935546875 300.001953125 163.021484375 304.7265625 163.021484375 314.174804688 c 0
 163.021484375 321.259765625 155.934570312 328.34765625 148.848632812 328.34765625 c 0
 141.76171875 328.34765625 134.67578125 321.263671875 134.67578125 314.174804688 c 0
 134.67578125 307.090820312 141.762695312 300.001953125 148.848632812 300.001953125 c 0
EndSplineSet
Validated: 524289
Substitution2: "'smcp' Lowercase to Small Capitals lookup 10 subtable" e.sc
Substitution2: "'subs' Subscript lookup 7 subtable" uni2091
Substitution2: "'sups' Superscript lookup 6 subtable" uni1D49
Substitution2: "Single Substitution lookup 3 subtable" uni1D49
Substitution2: "Single Substitution lookup 2 subtable" uni2091
EndChar

StartChar: f
Encoding: 102 102 71
Width: 519
VWidth: 0
GlyphClass: 2
Flags: MW
HStem: 0 21G<53 261.8> 264 84<218.601 362.3> 506.399 86.4004<218.601 417.564> 580 20G<434.601 451.389>
VStem: 98.5996 117.601<31.6453 264 348 504.227> 391.4 2.40039<201.6 203.389>
LayerCount: 2
Fore
SplineSet
449.000976562 600 m 1xdc
 468.201171875 439.200195312 l 1
 465.80078125 439.200195312 l 1
 434.600585938 489.600585938 381.80078125 506.399414062 314.600585938 506.399414062 c 2
 218.600585938 506.399414062 l 1
 218.600585938 348 l 1
 293 348 l 2
 353.000976562 348 393.80078125 350.399414062 420.200195312 355.19921875 c 1
 393.80078125 201.599609375 l 1
 391.400390625 201.599609375 l 1
 379.400390625 240 341 264 297.80078125 264 c 2
 216.200195312 264 l 1
 216.200195312 129.599609375 l 2
 216.200195312 57.599609375 240.200195312 16.798828125 261.799804688 2.3994140625 c 1
 261.799804688 0 l 1
 53 0 l 1
 53 2.3994140625 l 1
 74.599609375 16.798828125 98.599609375 59.9990234375 98.599609375 129.599609375 c 2
 98.599609375 288 l 1
 69.7998046875 316.799804688 l 1
 98.599609375 345.599609375 l 1
 98.599609375 465.599609375 l 2
 98.599609375 549.599609375 77 578.400390625 53 592.799804688 c 1
 338.600585938 592.799804688 l 2xec
 389 592.799804688 420.200195312 595.200195312 449.000976562 600 c 1xdc
158.600585938 302.400390625 m 0
 165.799804688 302.400390625 173 309.599609375 173 316.799804688 c 0
 173 324 165.799804688 331.200195312 158.600585938 331.200195312 c 0
 151.400390625 331.200195312 144.200195312 324 144.200195312 316.799804688 c 0
 144.200195312 309.599609375 151.400390625 302.400390625 158.600585938 302.400390625 c 0
EndSplineSet
Validated: 524289
Substitution2: "Single Substitution lookup 31 subtable" f.short
Substitution2: "'smcp' Lowercase to Small Capitals lookup 10 subtable" f.sc
Substitution2: "'subs' Subscript lookup 7 subtable" f.inferior
Substitution2: "'sups' Superscript lookup 6 subtable" uni1DA0
Substitution2: "Single Substitution lookup 3 subtable" uni1DA0
Substitution2: "Single Substitution lookup 2 subtable" f.inferior
EndChar

StartChar: g
Encoding: 103 103 72
Width: 652
VWidth: 0
GlyphClass: 2
Flags: MW
HStem: 0 90.6973<291.037 464.666> 244.187 76.7441<374.285 466.279> 513.953 86.0469<291.424 487.373>
VStem: 154.651 44.1855<309.307 331.939> 466.279 106.977<101.064 243.724>
LayerCount: 2
Fore
SplineSet
454.651367188 320.930664062 m 1
 454.651367188 323.254882812 l 1
 601.163085938 323.254882812 l 1
 601.163085938 320.930664062 l 1
 582.55859375 306.9765625 573.255859375 272.092773438 573.255859375 197.673828125 c 2
 573.255859375 60.46484375 l 1
 517.44140625 23.255859375 433.720703125 0 368.604492188 0 c 0
 196.51171875 0 77.9072265625 120.9296875 77.9072265625 290.697265625 c 1
 50 320.930664062 l 1
 80.232421875 346.51171875 l 1
 101.163085938 506.9765625 219.767578125 600 384.883789062 600 c 0
 445.348632812 600 501.163085938 590.697265625 543.0234375 576.744140625 c 1
 554.651367188 441.860351562 l 1
 552.325195312 441.860351562 l 1
 510.46484375 490.697265625 454.651367188 513.953125 382.55859375 513.953125 c 0
 266.279296875 513.953125 198.836914062 432.55859375 198.836914062 302.325195312 c 0
 198.836914062 172.092773438 266.279296875 90.697265625 375.581054688 90.697265625 c 0
 410.46484375 90.697265625 440.697265625 97.6748046875 466.279296875 109.301757812 c 1
 466.279296875 244.186523438 l 1
 424.418945312 241.860351562 375.581054688 232.557617188 343.0234375 200 c 1
 340.697265625 200 l 1
 354.651367188 325.581054688 l 1
 370.9296875 323.254882812 401.163085938 320.930664062 454.651367188 320.930664062 c 1
140.697265625 309.301757812 m 0
 147.673828125 309.301757812 154.651367188 316.278320312 154.651367188 323.255859375 c 0
 154.651367188 330.232421875 147.673828125 337.208984375 140.697265625 337.208984375 c 0
 133.720703125 337.208984375 126.744140625 330.232421875 126.744140625 323.255859375 c 0
 126.744140625 316.278320312 133.720703125 309.301757812 140.697265625 309.301757812 c 0
EndSplineSet
Validated: 524289
Substitution2: "'smcp' Lowercase to Small Capitals lookup 10 subtable" g.sc
Substitution2: "'subs' Subscript lookup 7 subtable" g.inferior
Substitution2: "'sups' Superscript lookup 6 subtable" uni1D4D
Substitution2: "Single Substitution lookup 3 subtable" uni1D4D
Substitution2: "Single Substitution lookup 2 subtable" g.inferior
EndChar

StartChar: h
Encoding: 104 104 73
Width: 666
VWidth: 0
GlyphClass: 2
Flags: MW
HStem: 0 21G<53 259.4> 0 21G<53 259.4> 276 88.8008<216.201 444.201> 577.601 20G<53 259.4 401.001 607.401>
VStem: 98.6006 117.601<31.6457 276 364.801 569.377> 444.201 117.601<32.1371 276 364.801 568.354>
LayerCount: 2
Fore
SplineSet
607.401367188 597.600585938 m 1xbc
 585.801757812 583.200195312 561.801757812 540 561.801757812 470.400390625 c 2
 561.801757812 350.400390625 l 1
 593.001953125 319.200195312 l 1
 561.801757812 288 l 1
 561.801757812 127.200195312 l 2
 561.801757812 60 585.801757812 19.19921875 607.401367188 4.7998046875 c 1
 607.401367188 2.400390625 l 1
 401.000976562 2.400390625 l 1
 401.000976562 4.7998046875 l 1
 420.201171875 19.19921875 444.201171875 60 444.201171875 127.200195312 c 2
 444.201171875 276 l 1
 216.201171875 276 l 1
 216.201171875 129.599609375 l 2
 216.201171875 57.599609375 237.80078125 16.7998046875 259.400390625 2.3994140625 c 1
 259.400390625 0 l 1
 53 0 l 1
 53 2.3994140625 l 1
 74.6005859375 16.7998046875 98.6005859375 60 98.6005859375 129.599609375 c 2
 98.6005859375 288 l 1
 67.400390625 319.200195312 l 1
 98.6005859375 350.400390625 l 1
 98.6005859375 470.400390625 l 2
 98.6005859375 542.400390625 74.6005859375 583.200195312 53 597.600585938 c 1
 259.400390625 597.600585938 l 1
 240.201171875 583.200195312 216.201171875 540 216.201171875 470.400390625 c 2
 216.201171875 364.80078125 l 1
 444.201171875 364.80078125 l 1
 444.201171875 470.400390625 l 2
 444.201171875 542.400390625 422.6015625 583.200195312 401.000976562 597.600585938 c 1
 401.000976562 600 l 1
 607.401367188 597.600585938 l 1xbc
163.400390625 312 m 0
 170.600585938 312 175.400390625 316.799804688 177.80078125 326.400390625 c 0
 177.80078125 333.600585938 170.600585938 340.799804688 163.400390625 340.799804688 c 0
 156.200195312 340.799804688 149.000976562 333.600585938 149.000976562 326.400390625 c 0
 149.000976562 319.200195312 156.200195312 312 163.400390625 312 c 0
509.001953125 312 m 0
 516.201171875 312 523.401367188 316.799804688 523.401367188 326.400390625 c 0
 523.401367188 333.600585938 516.201171875 340.799804688 509.001953125 340.799804688 c 0
 501.801757812 340.799804688 494.6015625 333.600585938 494.6015625 326.400390625 c 0
 494.6015625 319.200195312 501.801757812 312 509.001953125 312 c 0
EndSplineSet
Validated: 524289
AlternateSubs2: "'salt' Stylistic Alternatives lookup 20 subtable" h.alt
Substitution2: "'smcp' Lowercase to Small Capitals lookup 10 subtable" h.sc
Substitution2: "'subs' Subscript lookup 7 subtable" h.inferior
Substitution2: "'sups' Superscript lookup 6 subtable" uni02B0
Substitution2: "Single Substitution lookup 3 subtable" uni02B0
Substitution2: "Single Substitution lookup 2 subtable" h.inferior
EndChar

StartChar: i
Encoding: 105 105 74
Width: 323
VWidth: 0
GlyphClass: 2
Flags: MW
HStem: 0 21G<53 264.2> 580 20G<53 264.2>
VStem: 98.5996 120.001<31.6453 288 350.4 568.355>
LayerCount: 2
Fore
SplineSet
264.200195312 597.600585938 m 1
 242.600585938 583.201171875 218.600585938 540.000976562 218.600585938 465.600585938 c 2
 218.600585938 345.599609375 l 1
 247.400390625 316.799804688 l 1
 218.600585938 288 l 1
 218.600585938 129.599609375 l 2
 218.600585938 57.599609375 242.600585938 16.798828125 264.200195312 2.3994140625 c 1
 264.200195312 0 l 1
 53 0 l 1
 53 2.3994140625 l 1
 74.599609375 16.798828125 98.599609375 59.9990234375 98.599609375 129.599609375 c 2
 98.599609375 288 l 1
 67.400390625 319.200195312 l 1
 98.599609375 350.400390625 l 1
 98.599609375 470.400390625 l 2
 98.599609375 542.400390625 74.599609375 583.201171875 53 597.600585938 c 1
 53 600 l 1
 264.200195312 597.600585938 l 1
156.200195312 307.200195312 m 0
 163.400390625 307.200195312 170.600585938 314.400390625 170.600585938 321.600585938 c 0
 170.600585938 328.80078125 163.400390625 336 156.200195312 336 c 0
 149 336 141.799804688 328.80078125 141.799804688 321.600585938 c 0
 141.799804688 314.400390625 149 307.200195312 156.200195312 307.200195312 c 0
EndSplineSet
Validated: 524289
Substitution2: "Single Substitution lookup 23 subtable" dotlessi
Substitution2: "'smcp' Lowercase to Small Capitals in Latin lookup 11 subtable" idotaccent.sc
Substitution2: "'smcp' Lowercase to Small Capitals lookup 9 subtable" i.sc
Substitution2: "'subs' Subscript lookup 7 subtable" i.inferior
Substitution2: "'sups' Superscript lookup 6 subtable" uni2071
Substitution2: "Single Substitution lookup 3 subtable" uni2071
Substitution2: "Single Substitution lookup 2 subtable" i.inferior
EndChar

StartChar: j
Encoding: 106 106 75
Width: 451
VWidth: 0
GlyphClass: 2
Flags: MW
HStem: 0 89.7637<82.579 211.325> 580 20G<193.008 398.52> 580 20G<193.008 398.52>
VStem: 237.89 115.748<118.59 300 356.692 571.058>
LayerCount: 2
Fore
SplineSet
193.0078125 600 m 1xd0
 398.51953125 600 l 1
 377.259765625 585.827148438 353.637695312 543.306640625 353.637695312 474.803710938 c 2
 353.637695312 356.692382812 l 1
 381.984375 328.346679688 l 1
 353.637695312 300 l 1
 353.637695312 214.959960938 l 2
 353.637695312 66.1416015625 292.220703125 0 150.48828125 0 c 0
 129.228515625 0 96.1572265625 2.3623046875 65.44921875 11.810546875 c 1
 56 141.732421875 l 1
 58.3623046875 141.732421875 l 2
 63.0869140625 129.920898438 89.0712890625 89.763671875 143.401367188 89.763671875 c 0
 207.181640625 89.763671875 237.889648438 122.833984375 237.889648438 184.251953125 c 2
 237.889648438 300 l 1
 209.543945312 328.346679688 l 1
 237.889648438 356.692382812 l 1
 237.889648438 472.440429688 l 2
 237.889648438 543.306640625 214.267578125 583.46484375 193.0078125 600 c 1xd0
294.583007812 314.172851562 m 0
 301.669921875 314.172851562 308.755859375 321.259765625 308.755859375 328.346679688 c 0
 308.755859375 335.432617188 301.669921875 342.51953125 294.583007812 342.51953125 c 0
 287.49609375 342.51953125 280.409179688 335.432617188 280.409179688 328.346679688 c 0
 280.409179688 321.259765625 287.49609375 314.172851562 294.583007812 314.172851562 c 0
EndSplineSet
Validated: 524289
Substitution2: "Single Substitution lookup 23 subtable" uni0237
Substitution2: "'smcp' Lowercase to Small Capitals lookup 10 subtable" j.sc
Substitution2: "'subs' Subscript lookup 7 subtable" j.inferior
Substitution2: "'sups' Superscript lookup 6 subtable" uni02B2
Substitution2: "Single Substitution lookup 3 subtable" uni02B2
Substitution2: "Single Substitution lookup 2 subtable" j.inferior
EndChar

StartChar: k
Encoding: 107 107 76
Width: 656
VWidth: 0
GlyphClass: 2
Flags: MW
HStem: 0 21G<54 257> 0 21G<54 257> 572.282 20G<54 257> 587.506 2.38867<572.954 574.635>
VStem: 99.376 117.023<30.4735 286.588 346.294 561.809> 173.412 42.9873<300.923 329.571>
LayerCount: 2
Fore
SplineSet
216.399414062 126.576171875 m 2x18
 216.399414062 57.3173828125 237.893554688 16.7177734375 257 2.388671875 c 2
 257 0 l 1
 54 0 l 1
 54 2.388671875 l 2
 75.494140625 16.7177734375 99.3759765625 59.7060546875 99.3759765625 128.96484375 c 2
 99.3759765625 286.587890625 l 1
 70.7177734375 315.247070312 l 1
 99.3759765625 346.293945312 l 1
 99.3759765625 468.09375 l 2
 99.3759765625 534.96484375 75.494140625 575.564453125 54 589.89453125 c 2x98
 54 592.282226562 l 1
 257 592.282226562 l 1x28
 257 589.89453125 l 2
 237.893554688 575.564453125 216.399414062 532.576171875 216.399414062 463.317382812 c 2
 216.399414062 126.576171875 l 2x18
159.08203125 300.91796875 m 0
 166.247070312 300.91796875 173.412109375 308.08203125 173.412109375 315.247070312 c 0x04
 173.412109375 322.412109375 166.247070312 329.576171875 159.08203125 329.576171875 c 0
 151.91796875 329.576171875 144.752929688 322.412109375 144.752929688 315.247070312 c 0
 144.752929688 308.08203125 151.91796875 300.91796875 159.08203125 300.91796875 c 0
514.928710938 95.529296875 m 2
 543.587890625 54.9296875 567.470703125 31.046875 608.0703125 14.3291015625 c 2
 608.0703125 11.94140625 l 1
 438.505859375 -16.7177734375 l 2
 433.729492188 2.388671875 417.01171875 35.8232421875 397.905273438 64.482421875 c 2
 225.953125 320.0234375 l 1
 369.247070312 523.0234375 l 2
 390.741210938 551.682617188 397.905273438 573.176757812 397.905273438 589.89453125 c 2
 574.634765625 589.89453125 l 1
 574.634765625 587.505859375 l 2x10
 538.811523438 570.788085938 500.599609375 532.576171875 474.329101562 494.364257812 c 2
 354.916992188 331.96484375 l 1
 514.928710938 95.529296875 l 2
EndSplineSet
Validated: 524289
Substitution2: "'smcp' Lowercase to Small Capitals lookup 10 subtable" k.sc
Substitution2: "'subs' Subscript lookup 7 subtable" k.inferior
Substitution2: "'sups' Superscript lookup 6 subtable" uni1D4F
Substitution2: "Single Substitution lookup 3 subtable" uni1D4F
Substitution2: "Single Substitution lookup 2 subtable" k.inferior
EndChar

StartChar: l
Encoding: 108 108 77
Width: 523
VWidth: 0
GlyphClass: 2
Flags: MW
HStem: 0 85.1191<216.2 402.487> 580.704 20G<53 261.801> 580.704 20G<53 261.801>
VStem: 98.6006 117.6<86.1774 291.84 350.208 568.927> 173 43.2002<304.005 333.178>
LayerCount: 2
Fore
SplineSet
470.6015625 162.943359375 m 1xc8
 449.000976562 -7.2958984375 l 1
 417.80078125 0 393.80078125 0 355.400390625 0 c 2
 53 0 l 1
 53 2.431640625 l 1
 74.599609375 17.0234375 98.6005859375 60.7998046875 98.6005859375 131.327148438 c 2
 98.6005859375 291.83984375 l 1
 69.7998046875 321.024414062 l 1
 98.6005859375 350.208007812 l 1
 98.6005859375 474.240234375 l 2
 98.6005859375 542.336914062 74.599609375 583.680664062 53 598.272460938 c 1
 53 600.704101562 l 1
 261.80078125 600.704101562 l 1
 261.80078125 598.272460938 l 1
 240.200195312 583.680664062 216.200195312 539.904296875 216.200195312 469.376953125 c 2xd0
 216.200195312 85.119140625 l 1
 300.201171875 85.119140625 l 2
 374.600585938 85.119140625 434.600585938 111.87109375 470.6015625 162.943359375 c 1xc8
158.600585938 304 m 0
 165.80078125 304 170.600585938 311.295898438 173 318.591796875 c 0x88
 173 325.887695312 165.80078125 333.18359375 158.600585938 333.18359375 c 0
 151.400390625 333.18359375 144.200195312 325.887695312 144.200195312 318.591796875 c 0
 144.200195312 311.295898438 151.400390625 304 158.600585938 304 c 0
EndSplineSet
Validated: 524289
Substitution2: "'smcp' Lowercase to Small Capitals lookup 10 subtable" l.sc
Substitution2: "'subs' Subscript lookup 7 subtable" l.inferior
Substitution2: "'sups' Superscript lookup 6 subtable" uni02E1
Substitution2: "Single Substitution lookup 3 subtable" uni02E1
Substitution2: "Single Substitution lookup 2 subtable" l.inferior
EndChar

StartChar: m
Encoding: 109 109 78
Width: 867
VWidth: 0
GlyphClass: 2
Flags: MW
HStem: 0 21G<49 238.474 617.423 814.184> 0 21G<49 238.474 617.423 814.184> 580 20G<73.292 270.053 585.843 787.463> 580 20G<73.292 270.053 585.843 787.463>
VStem: 175.316 43.7246<306.079 334.367> 631.997 48.583<306.079 335.019>
LayerCount: 2
Fore
SplineSet
763.171875 126.315429688 m 2xac
 768.030273438 85.01953125 782.604492188 34.0078125 814.18359375 2.4287109375 c 1
 814.18359375 0 l 1
 617.422851562 0 l 1
 617.422851562 2.4287109375 l 1
 634.426757812 17.0029296875 651.430664062 55.8701171875 646.572265625 109.311523438 c 2
 631.997070312 286.639648438 l 2
 627.138671875 327.935546875 629.568359375 371.66015625 636.85546875 434.818359375 c 1
 634.426757812 434.818359375 l 1
 617.422851562 378.947265625 597.989257812 337.651367188 568.838867188 289.068359375 c 2
 474.102539062 126.315429688 l 2
 442.5234375 75.302734375 435.236328125 38.865234375 432.806640625 21.8623046875 c 1
 425.51953125 21.8623046875 l 1
 423.08984375 41.294921875 413.373046875 75.302734375 381.793945312 126.315429688 c 2
 279.76953125 289.068359375 l 2
 250.620117188 332.793945312 233.616210938 374.088867188 216.611328125 434.818359375 c 1
 214.182617188 434.818359375 l 1
 221.469726562 369.23046875 221.469726562 323.077148438 219.041015625 286.639648438 c 2
 209.32421875 109.311523438 l 2
 206.895507812 55.8701171875 221.469726562 17.0029296875 238.473632812 2.4287109375 c 1
 238.473632812 0 l 1
 49 0 l 1
 49 2.4287109375 l 1
 75.720703125 31.578125 95.154296875 65.5869140625 100.012695312 126.315429688 c 2
 109.728515625 289.068359375 l 1
 80.5791015625 320.647460938 l 1
 112.158203125 349.796875 l 1
 119.4453125 461.5390625 l 2
 124.303710938 507.692382812 112.158203125 573.280273438 73.2919921875 597.571289062 c 1
 73.2919921875 600 l 1
 270.052734375 600 l 2
 260.3359375 587.853515625 262.765625 561.133789062 284.627929688 522.266601562 c 2
 369.6484375 376.517578125 l 2
 396.369140625 327.934570312 415.801757812 281.780273438 423.08984375 233.197265625 c 1
 425.518554688 233.197265625 l 1
 437.665039062 286.638671875 459.52734375 325.504882812 488.676757812 376.517578125 c 2
 573.697265625 524.696289062 l 2
 595.559570312 561.133789062 595.559570312 587.853515625 585.842773438 600 c 2
 787.462890625 600 l 1
 787.462890625 597.571289062 l 1
 748.596679688 575.708984375 734.021484375 510.122070312 736.451171875 461.5390625 c 2
 746.166992188 349.797851562 l 1
 777.74609375 320.647460938 l 1
 751.025390625 289.068359375 l 1
 763.171875 126.315429688 l 2xac
160.741210938 306.073242188 m 0
 168.028320312 306.073242188 175.31640625 313.360351562 175.31640625 320.647460938 c 0
 175.31640625 327.935546875 168.028320312 335.22265625 160.741210938 335.22265625 c 0
 153.454101562 335.22265625 146.166015625 327.935546875 146.166015625 320.647460938 c 0
 146.166015625 313.360351562 153.454101562 306.073242188 160.741210938 306.073242188 c 0
695.155273438 306.073242188 m 0
 702.442382812 306.073242188 709.73046875 313.360351562 709.73046875 320.647460938 c 0
 709.73046875 327.935546875 702.442382812 335.22265625 695.155273438 335.22265625 c 0
 687.868164062 335.22265625 680.580078125 327.935546875 680.580078125 320.647460938 c 0
 680.580078125 313.360351562 687.868164062 306.073242188 695.155273438 306.073242188 c 0
EndSplineSet
Validated: 524321
Substitution2: "'smcp' Lowercase to Small Capitals lookup 10 subtable" m.sc
Substitution2: "'subs' Subscript lookup 7 subtable" m.inferior
Substitution2: "'sups' Superscript lookup 6 subtable" uni1D50
Substitution2: "Single Substitution lookup 3 subtable" uni1D50
Substitution2: "Single Substitution lookup 2 subtable" m.inferior
EndChar

StartChar: n
Encoding: 110 110 79
Width: 690
VWidth: 0
GlyphClass: 2
Flags: MW
HStem: 0.000976562 21G<53 251.388 444.936 631.227> 0.000976562 21G<53 251.388 444.936 631.227> 580 20G<53 250.178 432.839 631.227> 580 20G<53 250.178 432.839 631.227>
VStem: 98.9678 94.3545<216.835 290.323 348.388 476.356> 161.871 45.9678<307.263 333.686> 476.388 108.871<141.072 290.322 348.387 571.394> 476.388 38.71<307.632 336.285>
LayerCount: 2
Fore
SplineSet
631.2265625 597.580078125 m 1xa2
 607.033203125 583.064453125 582.838867188 541.935546875 585.258789062 469.354492188 c 2
 585.258789062 348.38671875 l 1
 614.291015625 319.354492188 l 1
 585.258789062 290.322265625 l 1
 585.258789062 130.64453125 l 2
 585.258789062 60.4833984375 609.452148438 16.9345703125 631.2265625 2.4189453125 c 1
 631.2265625 0 l 1
 449.774414062 0 l 1
 440.09765625 24.193359375 423.162109375 55.6455078125 406.2265625 82.2587890625 c 2
 285.258789062 280.645507812 l 2
 244.12890625 345.967773438 222.35546875 396.774414062 195.7421875 476.61328125 c 1
 193.322265625 476.61328125 l 1xaa
 205.418945312 394.35546875 207.838867188 338.709960938 207.838867188 275.806640625 c 2
 207.838867188 130.645507812 l 2xa4
 207.838867188 58.064453125 229.61328125 16.935546875 251.387695312 2.419921875 c 1
 251.387695312 0.0009765625 l 1
 53 0.0009765625 l 1
 53 2.419921875 l 1
 74.7744140625 16.935546875 98.9677734375 60.484375 98.9677734375 130.645507812 c 2
 98.9677734375 290.323242188 l 1
 69.935546875 319.35546875 l 1
 98.9677734375 348.387695312 l 1
 98.9677734375 474.194335938 l 2
 98.9677734375 520.162109375 84.4521484375 575.807617188 53 597.581054688 c 1
 53 600 l 1
 248.967773438 600 l 1
 251.387695312 583.064453125 256.225585938 566.12890625 285.2578125 517.7421875 c 2
 408.645507812 309.676757812 l 2
 435.258789062 266.12890625 461.87109375 203.224609375 488.484375 137.90234375 c 1
 490.904296875 137.90234375 l 1
 478.807617188 205.64453125 476.387695312 266.12890625 476.387695312 314.515625 c 2xa9
 476.387695312 469.354492188 l 2
 476.387695312 541.935546875 454.61328125 583.064453125 432.838867188 597.580078125 c 1
 432.838867188 599.999023438 l 1
 631.2265625 597.580078125 l 1xa2
147.35546875 307.2578125 m 0
 154.61328125 307.2578125 161.87109375 314.515625 161.87109375 321.7734375 c 0x04
 161.87109375 329.032226562 154.61328125 336.290039062 147.35546875 336.290039062 c 0
 140.096679688 336.290039062 132.838867188 329.032226562 132.838867188 321.7734375 c 0
 132.838867188 314.515625 140.096679688 307.2578125 147.35546875 307.2578125 c 0
529.61328125 307.2578125 m 0
 536.872070312 307.2578125 544.129882812 314.515625 544.129882812 321.7734375 c 0
 544.129882812 329.032226562 536.872070312 336.290039062 529.61328125 336.290039062 c 0
 522.35546875 336.290039062 515.09765625 329.032226562 515.09765625 321.7734375 c 0x01
 515.09765625 314.515625 522.35546875 307.2578125 529.61328125 307.2578125 c 0
EndSplineSet
Validated: 524321
Substitution2: "'smcp' Lowercase to Small Capitals lookup 10 subtable" n.sc
Substitution2: "'subs' Subscript lookup 7 subtable" n.inferior
Substitution2: "'sups' Superscript lookup 6 subtable" uni207F
Substitution2: "Single Substitution lookup 3 subtable" uni207F
Substitution2: "Single Substitution lookup 2 subtable" n.inferior
EndChar

StartChar: o
Encoding: 111 111 80
Width: 748
VWidth: 0
GlyphClass: 2
Flags: MW
HStem: 0 85.0576<287.907 454.833> 514.942 85.0576<288.631 457.575>
VStem: 151.149 48.2754<305.75 332.303> 548.851 48.2754<305.752 330.075>
LayerCount: 2
Fore
SplineSet
698.275390625 319.540039062 m 1
 670.689453125 289.655273438 l 1
 663.79296875 117.241210938 544.252929688 0 367.241210938 0 c 0
 187.930664062 0 79.884765625 124.137695312 77.5859375 289.655273438 c 1
 50 319.540039062 l 1
 79.884765625 347.126953125 l 1
 98.275390625 501.149414062 208.62109375 600 378.735351562 600 c 0
 539.655273438 600 652.298828125 498.850585938 668.390625 347.126953125 c 1
 698.275390625 319.540039062 l 1
137.356445312 305.747070312 m 0
 144.252929688 305.747070312 151.149414062 310.344726562 151.149414062 319.540039062 c 0
 151.149414062 326.436523438 144.252929688 333.333007812 137.356445312 333.333007812 c 0
 130.459960938 333.333007812 123.563476562 326.436523438 123.563476562 319.540039062 c 0
 123.563476562 312.643554688 130.459960938 305.747070312 137.356445312 305.747070312 c 0
376.436523438 85.0576171875 m 0
 475.287109375 85.0576171875 548.850585938 167.81640625 548.850585938 298.850585938 c 0
 548.850585938 436.78125 482.18359375 514.942382812 371.838867188 514.942382812 c 0
 263.79296875 514.942382812 199.424804688 429.884765625 199.424804688 303.448242188 c 0
 199.424804688 170.115234375 259.1953125 85.0576171875 376.436523438 85.0576171875 c 0
610.919921875 305.747070312 m 0
 617.81640625 305.747070312 624.712890625 310.344726562 624.712890625 319.540039062 c 0
 624.712890625 326.436523438 617.81640625 333.333007812 610.919921875 333.333007812 c 0
 604.022460938 333.333007812 597.125976562 326.436523438 597.125976562 319.540039062 c 0
 597.125976562 312.643554688 604.022460938 305.747070312 610.919921875 305.747070312 c 0
EndSplineSet
Validated: 524289
Substitution2: "'smcp' Lowercase to Small Capitals lookup 10 subtable" o.sc
Substitution2: "'subs' Subscript lookup 7 subtable" uni2092
Substitution2: "'sups' Superscript lookup 6 subtable" uni1D52
Substitution2: "Single Substitution lookup 3 subtable" uni1D52
Substitution2: "Single Substitution lookup 2 subtable" uni2092
EndChar

StartChar: p
Encoding: 112 112 81
Width: 557
VWidth: 0
GlyphClass: 2
Flags: MW
HStem: 0 21G<53 263.484> 0 21G<53 263.484> 195.967 89.5166<217.517 341.467> 515.322 84.6777<215.097 341.467>
VStem: 98.9678 116.129<35.0001 195.967 285.483 287.903 350.806 514.829> 173.968 41.1289<307.261 336.285> 379.613 123.388<320.191 477.299>
LayerCount: 2
Fore
SplineSet
287.677734375 600 m 2xba
 423.162109375 600 503.000976562 529.838867188 503.000976562 401.612304688 c 0
 503.000976562 261.290039062 423.162109375 195.966796875 287.677734375 195.966796875 c 2
 217.516601562 195.966796875 l 1
 217.516601562 125.805664062 l 2
 217.516601562 58.0634765625 241.709960938 16.9345703125 263.484375 2.4189453125 c 1
 263.484375 0 l 1
 53 0 l 1
 53 2.4189453125 l 1
 74.7744140625 16.9345703125 98.9677734375 60.4833984375 98.9677734375 130.64453125 c 2
 98.9677734375 287.903320312 l 1
 67.515625 319.354492188 l 1
 98.9677734375 350.805664062 l 1
 98.9677734375 474.193359375 l 2
 98.9677734375 541.935546875 74.7744140625 583.064453125 53 597.580078125 c 1
 53 600 l 1
 287.677734375 600 l 2xba
159.451171875 307.2578125 m 0
 166.709960938 307.2578125 171.547851562 312.096679688 173.967773438 321.7734375 c 0x36
 173.967773438 329.032226562 166.709960938 336.290039062 159.451171875 336.290039062 c 0
 152.193359375 336.290039062 144.935546875 329.032226562 144.935546875 321.7734375 c 0
 144.935546875 314.515625 152.193359375 307.2578125 159.451171875 307.2578125 c 0
265.903320312 285.483398438 m 2
 345.7421875 283.064453125 382.033203125 326.612304688 379.61328125 399.193359375 c 0
 379.61328125 479.032226562 343.323242188 515.322265625 265.903320312 515.322265625 c 2
 215.096679688 515.322265625 l 1x36
 215.096679688 285.483398438 l 1x3a
 265.903320312 285.483398438 l 2
EndSplineSet
Validated: 524321
Substitution2: "'smcp' Lowercase to Small Capitals lookup 10 subtable" p.sc
Substitution2: "'subs' Subscript lookup 7 subtable" p.inferior
Substitution2: "'sups' Superscript lookup 6 subtable" uni1D56
Substitution2: "Single Substitution lookup 3 subtable" uni1D56
Substitution2: "Single Substitution lookup 2 subtable" p.inferior
EndChar

StartChar: q
Encoding: 113 113 82
Width: 677
VWidth: 0
GlyphClass: 2
Flags: MW
HStem: -2.06445 81.8301<261.924 372.779> 504.823 86.376<262.569 413.062>
VStem: 138.055 45.0508<300.253 324.235> 494.368 43.0039<297.983 321.579>
LayerCount: 2
Fore
SplineSet
602.901367188 284.338867188 m 1
 602.900390625 284.337890625 l 2
 598.805664062 182.05078125 559.897460938 100.221679688 496.416015625 50.21484375 c 1
 498.463867188 47.9423828125 l 2
 529.180664062 -4.337890625 551.706054688 -27.068359375 600.853515625 -47.525390625 c 1
 600.853515625 -49.7978515625 l 1
 451.365234375 -74.80078125 l 1
 443.173828125 -42.978515625 441.125976562 -36.1591796875 424.744140625 -8.8828125 c 2
 414.504882812 9.3017578125 l 1
 389.931640625 2.482421875 361.262695312 -2.064453125 332.59375 -2.064453125 c 0
 172.8671875 -2.064453125 76.62109375 120.680664062 74.5732421875 284.338867188 c 1
 50 313.888671875 l 1
 76.62109375 341.165039062 l 1
 93.0029296875 493.458007812 191.296875 591.19921875 342.833007812 591.19921875 c 0
 486.177734375 591.19921875 586.518554688 491.185546875 600.853515625 338.891601562 c 1
 627.474609375 313.888671875 l 1
 602.901367188 284.338867188 l 1
549.658203125 325.25390625 m 0
 543.515625 325.25390625 539.419921875 320.708007812 537.372070312 311.615234375 c 0
 537.372070312 304.795898438 543.515625 297.977539062 549.658203125 297.977539062 c 0
 555.801757812 297.977539062 561.9453125 304.795898438 561.9453125 311.615234375 c 0
 561.9453125 318.434570312 555.801757812 325.25390625 549.658203125 325.25390625 c 0
125.767578125 300.25 m 0
 133.958984375 300.25 138.0546875 304.795898438 138.0546875 313.888671875 c 0
 138.0546875 320.708007812 131.911132812 327.526367188 125.767578125 327.526367188 c 0
 119.625 327.526367188 113.481445312 320.708007812 113.481445312 313.888671875 c 0
 113.481445312 307.069335938 119.625 300.25 125.767578125 300.25 c 0
445.221679688 132.045898438 m 1
 475.938476562 168.4140625 494.368164062 225.240234375 494.368164062 291.158203125 c 0
 494.368164062 425.267578125 434.982421875 504.823242188 336.689453125 504.823242188 c 0
 240.443359375 504.823242188 183.10546875 420.720703125 183.10546875 295.704101562 c 0
 183.10546875 163.868164062 236.34765625 79.765625 340.78515625 79.765625 c 0
 353.071289062 79.765625 363.310546875 82.0380859375 373.549804688 84.3115234375 c 2
 340.78515625 143.41015625 l 2
 320.306640625 179.779296875 299.829101562 202.509765625 277.303710938 216.147460938 c 1
 277.303710938 218.420898438 l 1
 400.170898438 227.512695312 l 1
 402.21875 209.329101562 408.361328125 193.416992188 420.6484375 172.959960938 c 2
 445.221679688 132.045898438 l 1
EndSplineSet
Validated: 524289
Substitution2: "'smcp' Lowercase to Small Capitals lookup 10 subtable" q.sc
Substitution2: "'subs' Subscript lookup 7 subtable" q.inferior
Substitution2: "'sups' Superscript lookup 6 subtable" q.superior
Substitution2: "Single Substitution lookup 3 subtable" q.superior
Substitution2: "Single Substitution lookup 2 subtable" q.inferior
EndChar

StartChar: r
Encoding: 114 114 83
Width: 630
VWidth: 0
GlyphClass: 2
Flags: MW
HStem: 499.997 87.6758<212.137 348.148>
VStem: 96.0234 116.113<27.8666 281.988 343.6 499.025> 169.482 42.6543<303.318 331.745> 385.121 118.482<329.873 463.584> 385.121 11.8486<315.163 400.471>
LayerCount: 2
Fore
SplineSet
468.05859375 113.7421875 m 2xd0
 498.864257812 61.6103515625 536.779296875 28.4345703125 577.063476562 11.84765625 c 1
 577.063476562 9.478515625 l 1
 404.078125 -21.3271484375 l 1
 394.599609375 11.84765625 380.381835938 42.6533203125 361.424804688 73.458984375 c 2
 231.09375 296.20703125 l 1
 271.377929688 296.20703125 l 2
 344.836914062 296.20703125 385.12109375 324.642578125 385.12109375 400.470703125 c 0
 385.12109375 462.08203125 344.836914062 499.997070312 271.377929688 499.997070312 c 2
 212.13671875 499.997070312 l 1xb0
 212.13671875 120.852539062 l 2
 212.13671875 54.501953125 235.833007812 14.2177734375 254.790039062 0 c 1
 254.790039062 -2.369140625 l 1
 51 -2.369140625 l 1
 51 0 l 1
 72.3271484375 14.2177734375 96.0234375 56.8720703125 96.0234375 125.591796875 c 2
 96.0234375 281.98828125 l 1
 65.2177734375 312.793945312 l 1
 96.0234375 343.599609375 l 1
 96.0234375 464.452148438 l 2
 96.0234375 530.802734375 72.3271484375 571.0859375 51 585.3046875 c 1
 51 587.672851562 l 1
 290.334960938 587.672851562 l 2
 425.405273438 587.672851562 503.603515625 518.953125 503.603515625 409.94921875 c 0
 503.603515625 319.90234375 460.950195312 265.400390625 389.860351562 241.704101562 c 1
 468.05859375 113.7421875 l 2xd0
411.1875 329.380859375 m 0
 404.078125 329.380859375 396.969726562 322.271484375 396.969726562 315.163085938 c 0x88
 396.969726562 308.053710938 404.078125 300.944335938 411.1875 300.944335938 c 0
 418.295898438 300.944335938 425.405273438 308.053710938 425.405273438 315.163085938 c 0
 425.405273438 322.271484375 418.295898438 329.380859375 411.1875 329.380859375 c 0
155.264648438 303.314453125 m 0
 162.374023438 303.314453125 167.11328125 308.053710938 169.482421875 317.532226562 c 0xa0
 169.482421875 324.641601562 162.374023438 331.75 155.264648438 331.75 c 0
 148.15625 331.75 141.046875 324.641601562 141.046875 317.532226562 c 0
 141.046875 310.423828125 148.15625 303.314453125 155.264648438 303.314453125 c 0
EndSplineSet
Validated: 524289
Substitution2: "'smcp' Lowercase to Small Capitals lookup 10 subtable" r.sc
Substitution2: "'subs' Subscript lookup 7 subtable" r.inferior
Substitution2: "'sups' Superscript lookup 6 subtable" uni02B3
Substitution2: "Single Substitution lookup 3 subtable" uni02B3
Substitution2: "Single Substitution lookup 2 subtable" r.inferior
EndChar

StartChar: s
Encoding: 115 115 84
Width: 492
VWidth: 0
GlyphClass: 2
Flags: MW
HStem: 0.291992 86.0049<134.967 302.848> 516.32 83.6797<197.62 358.488>
VStem: 67.2979 111.573<407.368 498.506> 327.636 113.898<108.683 214.211>
LayerCount: 2
Fore
SplineSet
374.125 314.092773438 m 1
 374.125 314.091796875 l 1
 411.31640625 286.198242188 439.208984375 244.358398438 441.534179688 169.9765625 c 0
 441.534179688 76.9990234375 374.125 2.615234375 239.306640625 0.2919921875 c 0
 171.8984375 -2.0322265625 109.137695312 9.58984375 71.9462890625 32.833984375 c 1
 58 172.30078125 l 1
 60.32421875 172.30078125 l 1
 111.462890625 109.541015625 164.924804688 83.97265625 232.333984375 86.296875 c 0
 299.743164062 88.62109375 327.635742188 116.514648438 327.635742188 160.678710938 c 0
 327.635742188 218.790039062 276.498046875 239.709960938 220.711914062 262.954101562 c 0
 192.818359375 274.577148438 162.600585938 286.19921875 137.03125 304.794921875 c 1
 97.515625 302.470703125 l 1
 95.19140625 344.310546875 l 2
 78.919921875 369.879882812 67.2978515625 400.09765625 67.2978515625 441.9375 c 0
 67.2978515625 525.618164062 137.03125 600 264.875976562 600 c 0
 309.040039062 600 346.231445312 595.3515625 395.044921875 583.729492188 c 1
 406.666992188 448.911132812 l 1
 404.342773438 448.911132812 l 1
 369.475585938 502.373046875 322.987304688 516.3203125 274.173828125 516.3203125 c 0
 211.413085938 516.3203125 178.87109375 495.399414062 178.87109375 453.559570312 c 0
 178.87109375 407.071289062 225.360351562 388.475585938 278.822265625 365.23046875 c 0
 295.09375 358.2578125 309.040039062 351.284179688 325.311523438 344.310546875 c 2
 364.827148438 353.608398438 l 1
 374.125 314.092773438 l 1
236.982421875 318.7421875 m 0
 241.630859375 325.715820312 241.630859375 332.688476562 236.982421875 337.337890625 c 0
 232.333007812 341.986328125 223.036132812 341.986328125 218.38671875 337.337890625 c 0
 213.73828125 332.688476562 213.73828125 323.390625 218.38671875 318.7421875 c 0
 223.036132812 314.092773438 232.333007812 314.092773438 236.982421875 318.7421875 c 0
EndSplineSet
Validated: 524321
Substitution2: "'smcp' Lowercase to Small Capitals lookup 10 subtable" s.sc
Substitution2: "'subs' Subscript lookup 7 subtable" s.inferior
Substitution2: "'sups' Superscript lookup 6 subtable" uni02E2
Substitution2: "Single Substitution lookup 3 subtable" uni02E2
Substitution2: "Single Substitution lookup 2 subtable" s.inferior
EndChar

StartChar: t
Encoding: 116 116 85
Width: 576
VWidth: 0
GlyphClass: 2
Flags: MW
HStem: 0 2.39941<397.254 398.601> 506.399 86.4004<93.6889 230.601 345.801 488.217> 580 20G<65.5542 87.8003 492.201 512.988> 580 20G<65.5542 87.8003 492.201 512.988>
VStem: 230.601 115.2<39.0138 287.999 350.399 506.399>
LayerCount: 2
Fore
SplineSet
511.400390625 600 m 1xa8
 523.401367188 448.799804688 l 1
 521.000976562 448.799804688 l 1
 501.80078125 482.399414062 461.000976562 511.19921875 410.600585938 511.19921875 c 2
 345.80078125 511.19921875 l 1
 345.80078125 350.399414062 l 1
 377.000976562 319.19921875 l 1
 345.80078125 287.999023438 l 1
 345.80078125 136.798828125 l 2
 345.80078125 62.3994140625 369.80078125 16.798828125 398.600585938 2.3994140625 c 1
 398.600585938 0 l 1
 177.80078125 0 l 1
 177.80078125 2.3994140625 l 1
 204.200195312 19.19921875 230.600585938 64.798828125 230.600585938 136.798828125 c 2
 230.600585938 287.999023438 l 1
 201.80078125 316.799804688 l 1
 230.600585938 345.599609375 l 1
 230.600585938 506.399414062 l 1
 165.80078125 506.399414062 l 2xc8
 115.400390625 506.399414062 74.6005859375 477.599609375 55.400390625 444 c 1
 53 444 l 1
 67.400390625 600 l 1xa8
 108.200195312 595.19921875 144.200195312 592.799804688 185 592.799804688 c 2
 393.80078125 592.799804688 l 2xc8
 437 592.799804688 473.000976562 595.200195312 511.400390625 600 c 1xa8
288.200195312 307.200195312 m 0
 295.400390625 307.200195312 302.600585938 312 302.600585938 321.599609375 c 0
 302.600585938 328.799804688 295.400390625 336 288.200195312 336 c 0
 281 336 273.799804688 328.799804688 273.799804688 321.599609375 c 0
 273.799804688 314.399414062 281 307.200195312 288.200195312 307.200195312 c 0
EndSplineSet
Validated: 524289
Substitution2: "'smcp' Lowercase to Small Capitals lookup 10 subtable" t.sc
Substitution2: "'subs' Subscript lookup 7 subtable" t.inferior
Substitution2: "'sups' Superscript lookup 6 subtable" uni1D57
Substitution2: "Single Substitution lookup 3 subtable" uni1D57
Substitution2: "Single Substitution lookup 2 subtable" t.inferior
EndChar

StartChar: u
Encoding: 117 117 86
Width: 667
VWidth: 0
GlyphClass: 2
Flags: MW
HStem: -0 87.4014<256.322 411.178> 580 20G<50 255.512 413.78 614.568> 580 20G<50 255.512 413.78 614.568>
VStem: 94.8818 118.11<136.572 297.639 354.331 569.859> 163.386 49.6064<314.177 342.514> 456.3 113.386<138.967 297.639 354.331 570.44> 456.3 40.1572<314.179 342.514>
LayerCount: 2
Fore
SplineSet
413.780273438 597.638671875 m 1xd4
 413.780273438 600 l 1
 614.568359375 600 l 1
 614.568359375 597.638671875 l 1
 593.307617188 583.46484375 569.685546875 543.307617188 569.685546875 472.44140625 c 2
 569.685546875 354.331054688 l 1
 598.032226562 325.984375 l 1
 569.685546875 297.638671875 l 1
 569.685546875 255.118164062 l 2
 569.685546875 85.0390625 491.733398438 -0 328.740234375 -0 c 0
 177.559570312 -0 94.8818359375 82.6767578125 94.8818359375 255.118164062 c 2
 94.8818359375 297.638671875 l 1
 66.53515625 325.984375 l 1
 94.8818359375 354.331054688 l 1
 94.8818359375 472.44140625 l 2
 94.8818359375 540.9453125 71.259765625 583.46484375 50 597.638671875 c 1
 50 600 l 1
 255.51171875 600 l 1
 255.51171875 597.638671875 l 1
 236.614257812 583.46484375 212.9921875 543.307617188 212.9921875 472.44140625 c 2
 212.9921875 245.669921875 l 2
 212.9921875 129.920898438 246.063476562 87.4013671875 338.189453125 87.4013671875 c 0
 418.504882812 87.4013671875 456.299804688 137.0078125 456.299804688 245.669921875 c 2
 456.299804688 472.44140625 l 2
 456.299804688 540.9453125 432.677734375 581.103515625 413.780273438 597.638671875 c 1xd4
149.212890625 314.173828125 m 0
 158.661132812 314.173828125 163.385742188 318.8984375 163.385742188 328.346679688 c 0x88
 163.385742188 335.43359375 156.299804688 342.51953125 149.212890625 342.51953125 c 0
 142.125976562 342.51953125 135.0390625 335.43359375 135.0390625 328.346679688 c 0
 135.0390625 321.259765625 142.125976562 314.173828125 149.212890625 314.173828125 c 0
510.630859375 314.173828125 m 0
 517.717773438 314.173828125 524.803710938 318.8984375 524.803710938 328.346679688 c 0
 524.803710938 335.43359375 517.717773438 342.51953125 510.630859375 342.51953125 c 0
 503.543945312 342.51953125 496.45703125 335.43359375 496.45703125 328.346679688 c 0x82
 496.45703125 321.259765625 503.543945312 314.173828125 510.630859375 314.173828125 c 0
EndSplineSet
Validated: 524289
Substitution2: "'smcp' Lowercase to Small Capitals lookup 10 subtable" u.sc
Substitution2: "'subs' Subscript lookup 7 subtable" u.inferior
Substitution2: "'sups' Superscript lookup 6 subtable" uni1D58
Substitution2: "Single Substitution lookup 3 subtable" uni1D58
Substitution2: "Single Substitution lookup 2 subtable" u.inferior
EndChar

StartChar: v
Encoding: 118 118 87
Width: 711
VWidth: 0
GlyphClass: 2
Flags: MW
HStem: 0 21G<249.62 463.385> 0 21G<249.62 463.385> 580 20G<48 249.62 480.389 660.146> 580 20G<48 249.62 480.389 660.146>
LayerCount: 2
Fore
SplineSet
473.1015625 600 m 1x90
 660.146484375 599.999023438 l 1
 660.146484375 597.5703125 l 1
 628.567382812 580.56640625 604.276367188 541.700195312 587.271484375 490.688476562 c 2
 543.546875 361.942382812 l 1
 560.55078125 323.076171875 l 1
 521.684570312 306.072265625 l 1
 456.09765625 121.45703125 l 2
 434.235351562 60.728515625 446.380859375 19.4326171875 463.384765625 2.4287109375 c 1
 463.384765625 0 l 1
 249.620117188 0 l 1
 249.620117188 2.4287109375 l 1
 266.624023438 19.4326171875 278.76953125 60.728515625 256.907226562 121.45703125 c 2
 191.3203125 306.072265625 l 1
 152.453125 323.076171875 l 1
 169.458007812 361.942382812 l 1
 125.732421875 480.971679688 l 2
 111.158203125 524.696289062 84.4375 570.850585938 48 597.5703125 c 1
 48 599.999023438 l 1
 249.620117188 599.999023438 l 1
 249.620117188 597.5703125 l 2
 235.044921875 580.56640625 227.756835938 546.55859375 239.903320312 514.979492188 c 2
 315.20703125 296.35546875 l 2
 327.352539062 255.060546875 349.21484375 182.185546875 358.931640625 119.02734375 c 1
 361.361328125 119.02734375 l 1
 371.077148438 182.185546875 390.510742188 255.060546875 405.0859375 296.35546875 c 2
 477.959960938 512.55078125 l 2
 487.676757812 548.98828125 487.676757812 582.99609375 473.1015625 600 c 1x90
225.328125 320.647460938 m 0
 235.044921875 320.647460938 239.903320312 327.934570312 239.903320312 335.22265625 c 0
 239.903320312 342.509765625 232.616210938 349.796875 225.328125 349.796875 c 0
 218.041015625 349.796875 210.752929688 342.509765625 210.752929688 335.22265625 c 0
 210.752929688 327.934570312 218.041015625 320.647460938 225.328125 320.647460938 c 0
480.389648438 320.647460938 m 0
 487.676757812 320.647460938 494.963867188 327.934570312 494.963867188 335.22265625 c 0
 494.963867188 342.509765625 487.676757812 349.796875 480.389648438 349.796875 c 0
 473.1015625 349.796875 465.814453125 342.509765625 465.814453125 335.22265625 c 0
 465.814453125 327.934570312 473.1015625 320.647460938 480.389648438 320.647460938 c 0
EndSplineSet
Validated: 524321
Substitution2: "'smcp' Lowercase to Small Capitals lookup 10 subtable" v.sc
Substitution2: "'subs' Subscript lookup 7 subtable" v.inferior
Substitution2: "'sups' Superscript lookup 6 subtable" uni1D5B
Substitution2: "Single Substitution lookup 3 subtable" uni1D5B
Substitution2: "Single Substitution lookup 2 subtable" v.inferior
EndChar

StartChar: w
Encoding: 119 119 88
Width: 976
VWidth: 0
GlyphClass: 2
Flags: MW
HStem: 0 21G<183.864 384.662> 0 21G<183.864 384.662> 577.609 15.2188G<50 255.578 493.427 505.379 749.204 924.901> 580 20G<493.427 505.379>
LayerCount: 2
Fore
SplineSet
738.447265625 597.609375 m 1x10
 924.901367188 597.608398438 l 1
 924.901367188 595.21875 l 1
 893.826171875 578.486328125 877.092773438 533.067382812 867.53125 497.2109375 c 2
 836.455078125 363.346679688 l 1
 862.75 325.099609375 l 1
 829.284179688 305.975585938 l 1
 788.646484375 136.25390625 l 2
 774.303710938 78.8837890625 781.474609375 38.24609375 807.76953125 4.7802734375 c 1
 807.76953125 2.390625 l 1
 609.36328125 2.390625 l 1
 609.36328125 4.7802734375 l 2
 623.706054688 28.6845703125 626.096679688 66.931640625 604.58203125 109.959960938 c 2
 542.430664062 241.43359375 l 2
 523.307617188 279.680664062 506.57421875 334.661132812 501.79296875 370.517578125 c 1
 499.40234375 370.517578125 l 1
 487.450195312 325.099609375 475.498046875 289.2421875 461.15625 260.557617188 c 2
 389.442382812 107.569335938 l 2
 370.319335938 64.541015625 367.928710938 26.2939453125 384.662109375 2.3896484375 c 1
 384.662109375 0 l 1
 183.864257812 0 l 1
 183.864257812 2.3896484375 l 1
 212.549804688 33.4658203125 217.331054688 81.2744140625 202.98828125 133.864257812 c 2
 157.5703125 301.194335938 l 1
 121.712890625 320.318359375 l 1
 143.227539062 358.565429688 l 1
 107.370117188 492.4296875 l 2
 97.80859375 528.287109375 81.076171875 573.705078125 50 590.438476562 c 1
 50 592.828125 l 1
 255.578125 592.828125 l 1xa0
 255.578125 590.438476562 l 1
 234.063476562 571.314453125 222.111328125 530.676757812 234.063476562 485.258789062 c 2
 281.873046875 296.4140625 l 2
 293.825195312 250.995117188 300.99609375 210.358398438 303.38671875 143.42578125 c 1
 305.77734375 143.42578125 l 1
 322.510742188 212.749023438 346.415039062 267.728515625 365.538085938 305.975585938 c 2
 456.375 492.4296875 l 2
 477.888671875 540.239257812 489.840820312 573.705078125 497.012695312 600 c 1
 501.79296875 600 l 1
 508.96484375 576.095703125 518.526367188 542.629882812 542.430664062 494.8203125 c 2
 623.706054688 334.661132812 l 2
 664.342773438 253.385742188 678.685546875 205.577148438 690.637695312 148.20703125 c 1
 693.028320312 148.20703125 l 1
 697.809570312 212.749023438 707.37109375 270.119140625 719.323242188 320.318359375 c 2
 759.9609375 490.040039062 l 2
 769.522460938 537.848632812 759.9609375 576.095703125 738.447265625 597.609375 c 1x10
205.37890625 322.708984375 m 0
 212.549804688 322.708984375 219.721679688 329.879882812 219.721679688 337.05078125 c 0
 219.721679688 344.22265625 212.549804688 351.393554688 205.37890625 351.393554688 c 0
 198.20703125 351.393554688 191.036132812 344.22265625 191.036132812 337.05078125 c 0
 191.036132812 329.879882812 198.20703125 322.708984375 205.37890625 322.708984375 c 0
781.474609375 322.708984375 m 0
 788.646484375 322.708984375 795.817382812 329.879882812 795.817382812 337.05078125 c 0
 795.817382812 344.22265625 788.646484375 351.393554688 781.474609375 351.393554688 c 0
 774.303710938 351.393554688 767.1328125 344.22265625 767.1328125 337.05078125 c 0
 767.1328125 329.879882812 774.303710938 322.708984375 781.474609375 322.708984375 c 0
EndSplineSet
Validated: 524321
Substitution2: "'smcp' Lowercase to Small Capitals lookup 10 subtable" w.sc
Substitution2: "'subs' Subscript lookup 7 subtable" w.inferior
Substitution2: "'sups' Superscript lookup 6 subtable" uni02B7
Substitution2: "Single Substitution lookup 3 subtable" uni02B7
Substitution2: "Single Substitution lookup 2 subtable" w.inferior
EndChar

StartChar: x
Encoding: 120 120 89
Width: 710
VWidth: 0
GlyphClass: 2
Flags: MW
HStem: 0 2.3877<48 49.3521> 589.895 2.3877<623.464 625.954>
LayerCount: 2
Fore
SplineSet
547.141601562 136.12890625 m 1
 547.141601562 136.127929688 l 1
 590.129882812 76.421875 635.506835938 35.822265625 661.77734375 16.716796875 c 1
 661.77734375 14.3291015625 l 1
 485.047851562 -16.7177734375 l 1
 485.047851562 7.1640625 468.330078125 42.98828125 432.506835938 95.5283203125 c 2
 346.530273438 229.270507812 l 1
 253.388671875 76.4228515625 l 2
 241.447265625 57.3168945312 236.670654297 41.1962890625 236.670654297 28.6580810547 c 0
 236.670654297 16.1198730469 241.447265625 7.1640625 248.612304688 2.3876953125 c 2
 248.612304688 0 l 1
 48 0 l 1
 48 2.3876953125 l 1
 76.6591796875 16.716796875 117.258789062 59.705078125 153.08203125 112.247070312 c 2
 284.435546875 315.247070312 l 1
 150.694335938 515.859375 l 2
 126.811523438 549.293945312 107.706054688 570.788085938 74.2705078125 589.89453125 c 1
 74.2705078125 592.282226562 l 1
 272.494140625 592.282226562 l 1
 272.494140625 589.89453125 l 2
 271.674650655 585.387252641 271.276964821 581.02057541 271.276964821 576.710065775 c 0
 271.276964821 555.896928339 280.548635242 536.393285473 296.376953125 508.694335938 c 2
 360.859375 401.223632812 l 1
 420.565429688 503.91796875 l 2
 435.574963565 530.601660304 445.926256579 549.133192244 445.926256579 566.831727996 c 0
 445.926256579 574.478071 443.994166016 581.968933517 439.670898438 589.89453125 c 2
 439.670898438 592.282226562 l 1
 625.954101562 592.282226562 l 1
 625.954101562 589.89453125 l 1
 599.68359375 580.341796875 563.859375 546.90625 528.036132812 487.200195312 c 2
 422.953125 315.247070312 l 1
 547.141601562 136.12890625 l 1
353.694335938 317.634765625 m 0
 363.247070312 317.634765625 368.024414062 324.799804688 368.024414062 331.96484375 c 0
 368.024414062 339.12890625 360.859375 346.293945312 353.694335938 346.293945312 c 0
 346.530273438 346.293945312 339.365234375 339.12890625 339.365234375 331.96484375 c 0
 339.365234375 324.799804688 346.530273438 317.634765625 353.694335938 317.634765625 c 0
EndSplineSet
Validated: 524289
Substitution2: "'smcp' Lowercase to Small Capitals lookup 10 subtable" x.sc
Substitution2: "'subs' Subscript lookup 7 subtable" uni2093
Substitution2: "'sups' Superscript lookup 6 subtable" uni02E3
Substitution2: "Single Substitution lookup 3 subtable" uni02E3
Substitution2: "Single Substitution lookup 2 subtable" uni2093
EndChar

StartChar: y
Encoding: 121 121 90
Width: 689
VWidth: 0
GlyphClass: 2
Flags: MW
HStem: 0 2.43848<454.949 456.317> 580 20G<49 234.366 466.074 636.806>
VStem: 285.586 117.073<37.5231 236.585>
LayerCount: 2
Fore
SplineSet
461.1953125 600 m 1
 636.805664062 599.999023438 l 1
 636.805664062 597.560546875 l 1
 617.29296875 580.487304688 590.463867188 546.340820312 568.512695312 509.755859375 c 2
 475.829101562 358.536132812 l 1
 485.5859375 317.072265625 l 1
 444.122070312 307.31640625 l 1
 402.659179688 239.024414062 l 1
 402.659179688 136.584960938 l 2
 402.659179688 63.4140625 427.048828125 17.072265625 456.317382812 2.4384765625 c 1
 456.317382812 0 l 1
 231.926757812 0 l 1
 231.926757812 2.4384765625 l 1
 258.755859375 17.072265625 285.5859375 63.4140625 285.5859375 136.584960938 c 2
 285.5859375 236.584960938 l 1
 241.682617188 307.31640625 l 1
 200.219726562 317.072265625 l 1
 209.975585938 358.536132812 l 1
 119.731445312 509.755859375 l 2
 97.7802734375 543.90234375 70.951171875 580.487304688 49 597.560546875 c 1
 49 599.999023438 l 1
 234.366210938 599.999023438 l 1
 234.366210938 597.560546875 l 2
 227.048828125 575.609375 236.8046875 539.024414062 253.877929688 509.755859375 c 2
 319.731445312 395.122070312 l 2
 329.48828125 380.487304688 336.8046875 363.4140625 346.561523438 339.0234375 c 1
 349 339.0234375 l 1
 356.317382812 363.4140625 366.073242188 380.487304688 375.830078125 395.122070312 c 2
 441.68359375 509.755859375 l 2
 458.756835938 539.024414062 470.952148438 575.609375 461.1953125 600 c 1
280.708007812 319.51171875 m 0
 288.024414062 319.51171875 295.341796875 326.829101562 295.341796875 334.145507812 c 0
 295.341796875 341.462890625 288.024414062 348.780273438 280.708007812 348.780273438 c 0
 273.390625 348.780273438 266.073242188 341.462890625 266.073242188 334.145507812 c 0
 266.073242188 326.829101562 273.390625 319.51171875 280.708007812 319.51171875 c 0
409.9765625 319.51171875 m 0
 417.29296875 319.51171875 424.610351562 326.829101562 424.610351562 334.145507812 c 0
 424.610351562 341.462890625 417.29296875 348.780273438 409.9765625 348.780273438 c 0
 402.659179688 348.780273438 395.341796875 341.462890625 395.341796875 334.145507812 c 0
 395.341796875 326.829101562 402.659179688 319.51171875 409.9765625 319.51171875 c 0
EndSplineSet
Validated: 524321
AlternateSubs2: "'salt' Stylistic Alternatives lookup 20 subtable" y.alt
Substitution2: "'smcp' Lowercase to Small Capitals lookup 10 subtable" y.sc
Substitution2: "'subs' Subscript lookup 7 subtable" y.inferior
Substitution2: "'sups' Superscript lookup 6 subtable" uni02B8
Substitution2: "Single Substitution lookup 3 subtable" uni02B8
Substitution2: "Single Substitution lookup 2 subtable" y.inferior
EndChar

StartChar: z
Encoding: 122 122 91
Width: 587
VWidth: 0
GlyphClass: 2
Flags: MW
HStem: 0 84.584<227.417 460.79> 512.333 84.584<126.718 341>
LayerCount: 2
Fore
SplineSet
531.916992188 164.333984375 m 1
 515 -7.25 l 1
 476.333984375 0 464.25 0 399 0 c 2
 51 0 l 1
 51 2.416015625 l 1
 225 306.916015625 l 1
 212.916992188 348 l 1
 254 360.083007812 l 1
 341 512.333007812 l 1
 234.666992188 512.333007812 l 2
 167 512.333007812 116.25 497.833007812 87.25 454.333007812 c 1
 84.8330078125 454.333007812 l 1
 109 601.75 l 1
 142.833007812 596.916992188 171.833007812 596.916992188 237.083007812 596.916992188 c 2
 519.833984375 596.916992188 l 1
 519.833984375 594.500976562 l 1
 384.5 357.666992188 l 1
 396.583007812 316.583984375 l 1
 355.5 304.500976562 l 1
 227.416992188 84.583984375 l 1
 357.916992188 84.583984375 l 2
 435.25 84.583984375 498.083984375 116.000976562 531.916992188 164.333984375 c 1
307.166992188 345.583984375 m 0
 299.916992188 345.583984375 292.666992188 338.333984375 292.666992188 331.083984375 c 0
 292.666992188 323.833984375 299.916992188 316.583984375 307.166992188 316.583984375 c 0
 314.416992188 316.583984375 321.666992188 323.833984375 321.666992188 331.083984375 c 0
 321.666992188 338.333984375 314.416992188 345.583984375 307.166992188 345.583984375 c 0
EndSplineSet
Validated: 524289
Substitution2: "'smcp' Lowercase to Small Capitals lookup 10 subtable" z.sc
Substitution2: "'subs' Subscript lookup 7 subtable" z.inferior
Substitution2: "'sups' Superscript lookup 6 subtable" uni1DBB
Substitution2: "Single Substitution lookup 3 subtable" uni1DBB
Substitution2: "Single Substitution lookup 2 subtable" z.inferior
EndChar

StartChar: braceleft
Encoding: 123 123 92
Width: 277
GlyphClass: 2
Flags: MW
HStem: -212 24<236 258 236 258> 235 24<14 14> 683 24<258 258>
VStem: 106 72<-54 -49> 112 74<95 121>
LayerCount: 2
Fore
SplineSet
178 552 m 2xf0
 186.000976562 386 l 2
 190.30078125 297 148.201171875 268.200195312 81.0009765625 249 c 1
 81.0009765625 245 l 1
 148.80078125 216.799804688 190.400390625 177.299804688 186 95 c 2xe8
 178 -54 l 2
 173.5 -138 214 -188 258 -188 c 1
 264 -194 264 -206 258 -212 c 1
 157 -212 101 -179 106 -49 c 2xf0
 112 121 l 2
 114 182 87.5 226 14 235 c 1
 6 243 5 250 14 259 c 1
 88 266 112 320 112 370 c 2xe8
 106 554 l 2
 102 667 168 707 258 707 c 1
 264 701 264 689 258 683 c 1
 220 672 173 654.900390625 178 552 c 2xf0
EndSplineSet
Validated: 524321
Substitution2: "'c2sc' Capitals to Small Capitals lookup 12 subtable" braceleft.sc
Substitution2: "'case' Case-Sensitive Forms lookup 8 subtable" braceleft.sc
EndChar

StartChar: bar
Encoding: 124 124 93
Width: 210
GlyphClass: 2
Flags: MW
HStem: -232 21G<81 130 81 81> 678 20G<81 130 130 130>
VStem: 81 49<-232 698>
LayerCount: 2
Fore
SplineSet
130 -232 m 1
 81 -232 l 1
 81 698 l 1
 130 698 l 1
 130 -232 l 1
EndSplineSet
Validated: 1
EndChar

StartChar: braceright
Encoding: 125 125 94
Width: 277
GlyphClass: 2
Flags: MW
HStem: -213 24<15 15> 235 24<259 259> 682 24<15 37>
VStem: 87 74 95 72<-60 -58>
LayerCount: 2
Fore
SplineSet
95 -58 m 2xe8
 86.9990234375 108 l 2
 82.69921875 197 124.798828125 225.799804688 191.999023438 245 c 1
 191.999023438 249 l 1
 124.19921875 277.200195312 82.599609375 316.700195312 87 399 c 2xf0
 95 548 l 2
 99.5 632 59 682 15 682 c 1
 9 688 9 700 15 706 c 1
 116 706 172 673 167 543 c 2xe8
 161 373 l 2
 159 312 185.5 268 259 259 c 1
 267 251 268 244 259 235 c 1
 185 228 161 174 161 124 c 2xf0
 167 -60 l 2
 171 -173 105 -213 15 -213 c 1
 9 -207 9 -195 15 -189 c 1
 53 -178 100 -160.900390625 95 -58 c 2xe8
EndSplineSet
Validated: 524321
Substitution2: "'c2sc' Capitals to Small Capitals lookup 12 subtable" braceright.sc
Substitution2: "'case' Case-Sensitive Forms lookup 8 subtable" braceright.sc
EndChar

StartChar: asciitilde
Encoding: 126 126 95
Width: 449
GlyphClass: 2
Flags: MW
HStem: 213 59<290 309> 278 59<130.5 160.5>
VStem: 26 13<206 209> 400 17<333 339>
LayerCount: 2
Fore
SplineSet
26 209 m 1
 39 274 93 337 154 337 c 0
 177 337 202 321 228 305 c 0
 253 289 279 272 301 272 c 0
 329 272 378 289 400 339 c 1
 417 333 l 1
 386 226 321 213 297 213 c 0
 271 213 246 229 222 246 c 0
 197 263 173 278 148 278 c 0
 113 278 62 250 39 206 c 1
 26 209 l 1
EndSplineSet
Validated: 1
EndChar

StartChar: exclamdown
Encoding: 161 161 97
Width: 228
GlyphClass: 2
Flags: MW
HStem: -228.75 21G<101.5 126> 327.5 112.5<99.4751 130.525>
VStem: 59 110<-180.75 -123.25>
LayerCount: 2
Fore
SplineSet
115 -228.75 m 0
 88 -228.75 59 -205.75 59 -155.75 c 0
 59 -90.75 75 -48.75 85 37.25 c 0
 98 145.25 99 205.25 101 219.25 c 0
 102 230.25 105 239.25 115 239.25 c 0
 126 239.25 128 232.25 129 226.25 c 0
 131 205.25 136 115.25 144 37.25 c 0
 153 -50.75 169 -85.75 169 -155.75 c 0
 169 -209.75 137 -228.75 115 -228.75 c 0
171.25 383.75 m 0
 171.25 352.700195312 146.049804688 327.5 115 327.5 c 0
 83.9501953125 327.5 58.75 352.700195312 58.75 383.75 c 0
 58.75 414.799804688 83.9501953125 440 115 440 c 0
 146.049804688 440 171.25 414.799804688 171.25 383.75 c 0
EndSplineSet
Validated: 524289
Substitution2: "'c2sc' Capitals to Small Capitals lookup 12 subtable" exclamdown.sc
Substitution2: "'case' Case-Sensitive Forms lookup 8 subtable" exclamdown.sc
EndChar

StartChar: cent
Encoding: 162 162 98
Width: 500
GlyphClass: 2
Flags: MW
HStem: 94.6 50.8 436.6 21G 512.2 40.9 636.4 20G
VStem: 75.2 89.9 255.5 38.6
LayerCount: 2
Fore
SplineSet
255.5 656.400390625 m 1
 294.098632812 656.400390625 l 1
 294.098632812 553.100585938 l 1
 344.798828125 552.900390625 397.3984375 540.700195312 428.798828125 524.5 c 1
 430.798828125 521.400390625 l 1
 407.298828125 437.600585938 l 1
 393.999023438 436.600585938 l 1
 367.399414062 482.200195312 332.599609375 511.100585938 294.099609375 512.200195312 c 1
 294.099609375 145.400390625 l 1
 298 145.400390625 l 2
 336 145.400390625 368.5 153.600585938 407.299804688 188.30078125 c 1
 411.399414062 188.30078125 l 1
 430.799804688 166.80078125 l 1
 393 118.600585938 349 97.5009765625 294.099609375 94.6005859375 c 1
 294.099609375 -13.599609375 l 1
 255.5 -13.599609375 l 1
 255.5 95.5 l 1
 145.200195312 107 75.2001953125 194.900390625 75.2001953125 327.30078125 c 0
 75.2001953125 450.000976562 162 532.100585938 255.5 549.600585938 c 1
 255.5 656.400390625 l 1
255.499023438 153.30078125 m 1
 255.499023438 505.400390625 l 1
 204.399414062 485.700195312 165.099609375 424 165.099609375 332.400390625 c 0
 165.099609375 236.700195312 202.399414062 174.400390625 255.499023438 153.30078125 c 1
EndSplineSet
Validated: 524289
EndChar

StartChar: sterling
Encoding: 163 163 99
Width: 500
GlyphClass: 2
Flags: MW
HStem: -11.4 59 52.2 45.4 320.2 44.3 587.1 60.2
VStem: 19.3 77.2 149.9 86.3
LayerCount: 2
Fore
SplineSet
236.200195312 440.599609375 m 2
 236.202148438 364.501953125 l 1
 370.202148438 364.501953125 l 2
 375.90234375 364.501953125 378.102539062 362.202148438 378.102539062 357.702148438 c 2
 378.102539062 333.90234375 l 2
 378.102539062 324.802734375 363.40234375 320.203125 352.001953125 320.203125 c 2
 236.202148438 320.203125 l 1
 235.102539062 191.903320312 194.102539062 131.703125 157.802734375 97.603515625 c 1
 163.502929688 97.603515625 l 2
 286.102539062 97.603515625 281.702148438 47.603515625 353.202148438 47.603515625 c 0
 385.001953125 47.603515625 436.001953125 55.703125 464.40234375 94.302734375 c 1
 483.702148438 82.90234375 l 1
 457.602539062 27.302734375 404.302734375 -11.3974609375 333.90234375 -11.3974609375 c 0
 237.40234375 -11.3974609375 236.202148438 52.2021484375 141.90234375 52.2021484375 c 0
 104.40234375 52.2021484375 96.501953125 37.501953125 96.501953125 26.1015625 c 0
 96.501953125 1.1015625 77.2021484375 -11.3984375 53.40234375 -11.3984375 c 0
 33.001953125 -11.3984375 19.3017578125 1.201171875 19.3017578125 18.201171875 c 0
 19.3017578125 38.6015625 44.3017578125 55.6015625 73.8017578125 71.501953125 c 1
 137.401367188 118.1015625 149.901367188 204.401367188 149.901367188 302.1015625 c 2
 149.901367188 320.201171875 l 1
 81.8017578125 320.201171875 l 2
 76.1015625 320.201171875 74.9013671875 321.30078125 74.9013671875 327.000976562 c 2
 74.9013671875 341.80078125 l 2
 74.9013671875 350.900390625 81.8017578125 364.5 101.1015625 364.5 c 2
 149.901367188 364.5 l 1
 149.901367188 386.099609375 l 2
 149.901367188 476.899414062 168.1015625 516.69921875 222.6015625 571.19921875 c 0
 279.401367188 627.999023438 348.6015625 647.298828125 412.201171875 647.298828125 c 0
 431.500976562 647.298828125 449.701171875 642.69921875 457.6015625 638.19921875 c 1
 458.801757812 634.798828125 l 1
 447.401367188 615.499023438 437.201171875 580.298828125 430.401367188 552.999023438 c 1
 419.000976562 551.899414062 l 1
 407.600585938 571.19921875 389.500976562 587.099609375 361.100585938 587.099609375 c 0
 303.200195312 587.099609375 236.200195312 517.799804688 236.200195312 440.599609375 c 2
EndSplineSet
Validated: 524289
EndChar

StartChar: currency
Encoding: 164 164 100
Width: 500
GlyphClass: 2
Flags: MW
HStem: 128.3 47.7 478.1 47.7
VStem: 47.7 68.1 380.4 69.3
LayerCount: 2
Fore
SplineSet
115.799804688 328.200195312 m 0
 115.799804688 245.299804688 168.100585938 175.999023438 248.700195312 175.999023438 c 0
 328.200195312 175.999023438 380.400390625 246.399414062 380.400390625 326.999023438 c 0
 380.400390625 412.19921875 321.400390625 478.099609375 251 478.099609375 c 0
 171.5 478.099609375 115.799804688 408.799804688 115.799804688 328.200195312 c 0
248.701171875 128.298828125 m 0
 203.30078125 128.298828125 162.30078125 141.901367188 126.000976562 169.201171875 c 1
 77.201171875 109.000976562 l 1
 30.701171875 154.401367188 l 1
 92.0009765625 203.301757812 l 1
 62.5009765625 238.501953125 47.701171875 280.40234375 47.701171875 327.001953125 c 0
 47.701171875 375.801757812 62.5009765625 417.901367188 92.0009765625 452.000976562 c 1
 32.9013671875 498.500976562 l 1
 74.9013671875 543.901367188 l 1
 127.201171875 486.000976562 l 1
 164.701171875 513.30078125 204.401367188 525.80078125 248.701171875 525.80078125 c 0
 295.30078125 525.80078125 336.201171875 512.100585938 372.500976562 483.700195312 c 1
 424.701171875 546.200195312 l 1
 469.000976562 499.600585938 l 1
 406.500976562 449.700195312 l 1
 434.901367188 415.600585938 449.701171875 374.700195312 449.701171875 327 c 0
 449.701171875 281.599609375 435.000976562 240.69921875 407.701171875 205.499023438 c 1
 466.701171875 155.598632812 l 1
 425.80078125 112.3984375 l 1
 373.600585938 170.298828125 l 1
 336.100585938 141.8984375 295.30078125 128.298828125 248.701171875 128.298828125 c 0
EndSplineSet
Validated: 524289
EndChar

StartChar: yen
Encoding: 165 165 101
Width: 500
GlyphClass: 2
Flags: MW
HStem: -3.39999 21G 144.2 44.3 260 45.4 632.9 20G
VStem: 201.2 92
LayerCount: 2
Fore
SplineSet
53.400390625 260 m 2
 47.7001953125 260 47.701171875 261.203125 47.701171875 266.903320312 c 2
 47.701171875 282.803710938 l 2
 47.701171875 291.903320312 53.4013671875 305.403320312 72.701171875 305.403320312 c 2
 186.30078125 305.403320312 l 1
 137.900390625 394.903320312 40.80078125 591.403320312 4.5009765625 652.903320312 c 1
 21.5009765625 649.502929688 45.5009765625 649.502929688 62.5009765625 649.502929688 c 0
 79.5009765625 649.502929688 102.201171875 649.502929688 119.201171875 652.903320312 c 1
 162.30078125 541.203125 199.000976562 452.203125 261.701171875 342.802734375 c 1
 319.1015625 433.602539062 355.1015625 533.302734375 404.301757812 652.90234375 c 1
 415.702148438 649.501953125 432.702148438 649.501953125 446.301757812 649.501953125 c 0
 458.801757812 649.501953125 475.801757812 649.501953125 488.301757812 652.90234375 c 1
 391.501953125 483.501953125 340.501953125 383.301757812 300.1015625 305.401367188 c 1
 446.301757812 305.401367188 l 2
 450.801757812 305.401367188 454.202148438 303.201171875 454.202148438 298.701171875 c 2
 454.202148438 274.80078125 l 2
 454.202148438 264.600585938 439.501953125 260.000976562 428.1015625 260.000976562 c 2
 291.301757812 260.000976562 l 1
 291.6015625 237.100585938 291.901367188 212.900390625 292.301757812 188.5 c 1
 446.301757812 188.5 l 2
 450.801757812 188.5 454.202148438 186.200195312 454.202148438 181.700195312 c 2
 454.202148438 159 l 2
 454.202148438 148.799804688 439.501953125 144.200195312 428.1015625 144.200195312 c 2
 293.201171875 144.200195312 l 1
 294.6015625 81.400390625 296.6015625 23.900390625 298.701171875 -3.3994140625 c 1
 282.80078125 0.0009765625 261.201171875 0.0009765625 246.401367188 0.0009765625 c 0
 231.6015625 0.0009765625 211.201171875 0.0009765625 195.30078125 -3.3994140625 c 1
 198.600585938 28.80078125 200.30078125 84.201171875 201.201171875 144.201171875 c 1
 53.4013671875 144.201171875 l 2
 47.701171875 144.201171875 47.701171875 145.30078125 47.701171875 151.000976562 c 2
 47.701171875 165.80078125 l 2
 47.701171875 174.900390625 53.4013671875 188.5 72.701171875 188.5 c 2
 201.701171875 188.5 l 1
 201.901367188 212.700195312 202.000976562 236.900390625 202.100585938 260 c 1
 53.400390625 260 l 2
EndSplineSet
Validated: 524289
Substitution2: "'pnum' Proportional Numbers lookup 17 subtable" Yen.fitted
EndChar

StartChar: brokenbar
Encoding: 166 166 102
Width: 205
GlyphClass: 2
Flags: MW
VStem: 81 48<-201 161 -201 161 312 674>
LayerCount: 2
Fore
SplineSet
129 674 m 1
 129 312 l 1
 81 312 l 1
 81 674 l 1
 129 674 l 1
129 161 m 1
 129 -201 l 1
 81 -201 l 1
 81 161 l 1
 129 161 l 1
EndSplineSet
Validated: 1
EndChar

StartChar: section
Encoding: 167 167 103
Width: 483
GlyphClass: 2
Flags: MW
HStem: -172 40<220.5 271.5 220.5 289> 618 40
VStem: 50 57<258 297.3> 81 69<512.499 548.999> 333 69<-63 -26.5> 376 57<188.699 228>
LayerCount: 2
Fore
SplineSet
147.5 387 m 1xe4
 127.400390625 367.200195312 107 335.700195312 107 305 c 0
 107 211 217 165 293 126 c 0
 309.200195312 117.599609375 323.299804688 108.5 335.5 99 c 1
 355.599609375 118.799804688 376 150.299804688 376 181 c 0
 376 275 266 321 190 360 c 0
 173.799804688 368.400390625 159.700195312 377.5 147.5 387 c 1xe4
125.099609375 407.299804688 m 1
 93.2998046875 440.899414062 81 478.899414062 81 515.999023438 c 0
 81 581.999023438 144 657.999023438 244 657.999023438 c 0
 313 657.999023438 356 617.999023438 383 594.999023438 c 1
 386 589.999023438 l 1
 369 516.999023438 l 1
 355 514.999023438 l 1
 326 564.999023438 290 617.999023438 235 617.999023438 c 0
 188 617.999023438 150 583.999023438 150 535.999023438 c 0
 150 488.999023438 179 457.999023438 230 436.999023438 c 0
 311 403.999023438 433 341.999023438 433 218.999023438 c 0xd4
 433 158.399414062 399.5 109.69921875 357.900390625 78.69921875 c 1
 389.700195312 45.099609375 402 7.099609375 402 -30 c 0
 402 -96 339 -172 239 -172 c 0
 170 -172 127 -132 100 -109 c 1
 97 -104 l 1
 114 -31 l 1
 128 -29 l 1
 157 -79 193 -132 248 -132 c 0
 295 -132 333 -98 333 -50 c 0xc8
 333 -3 304 28 253 49 c 0
 172 82 50 144 50 267 c 0
 50 327.599609375 83.5 376.299804688 125.099609375 407.299804688 c 1
EndSplineSet
Validated: 524289
EndChar

StartChar: dieresis
Encoding: 168 168 104
Width: 379
GlyphClass: 2
Flags: MW
HStem: 527 95<84 110 253 279>
VStem: 50 94<561 587> 219 94<561 587>
LayerCount: 2
Fore
SplineSet
50 574 m 0
 50 600 71 622 97 622 c 0
 123 622 144 600 144 574 c 0
 144 548 123 527 97 527 c 0
 71 527 50 548 50 574 c 0
219 574 m 0
 219 600 240 622 266 622 c 0
 292 622 313 600 313 574 c 0
 313 548 292 527 266 527 c 0
 240 527 219 548 219 574 c 0
EndSplineSet
Validated: 1
EndChar

StartChar: copyright
Encoding: 169 169 105
Width: 633
GlyphClass: 2
Flags: MW
HStem: 23 32<247 386 247 395> 152 29<296 348.5> 434 23<299 347.5> 557 31<247 386.5>
VStem: 34 31<237 375.5 237 384> 165 62<274.5 343> 416 20<360 364> 568 31<236.5 375.5>
LayerCount: 2
Fore
SplineSet
317 23 m 0
 160 23 34 151 34 306 c 0
 34 462 161 588 317 588 c 0
 473 588 599 462 599 306 c 0
 599 150 473 23 317 23 c 0
317 557 m 0
 177 557 65 445 65 306 c 0
 65 168 177 55 317 55 c 0
 455 55 568 167 568 306 c 0
 568 445 456 557 317 557 c 0
439 216 m 1
 419 185 376 152 321 152 c 0
 232 152 165 222 165 301 c 0
 165 385 235 457 323 457 c 0
 393 457 393 442 422 442 c 1
 436 364 l 1
 416 360 l 1
 399 406 376 434 319 434 c 0
 279 434 227 409 227 311 c 0
 227 238 262 181 330 181 c 0
 381 181 409 215 420 231 c 1
 439 216 l 1
EndSplineSet
Validated: 1
EndChar

StartChar: ordfeminine
Encoding: 170 170 106
Width: 297
GlyphClass: 2
Flags: MW
HStem: 358 32<109 121> 609 28<117 143>
VStem: 26 53<417.5 441 417.5 446> 189 51<504 578 533 570>
LayerCount: 2
Fore
SplineSet
189 504 m 1
 138 489 l 2
 90 475 79 455 79 427 c 0
 79 408 95 390 123 390 c 0
 142 390 161 401 178 414 c 0
 183 418 186 422 186 430 c 2
 189 504 l 1
238 411 m 0
 238 399 241 392 248 392 c 0
 257 392 266 401 272 405 c 1
 274 404 l 1
 284 391 l 1
 264 366 249 358 229 358 c 0
 198 358 191 384 190 394 c 1
 186 394 l 1
 153 366 138 358 104 358 c 0
 58 358 26 379 26 425 c 0
 26 467 66 500 129 515 c 2
 185 528 l 2
 187 529 189 531 189 535 c 0
 189 605 154 609 132 609 c 0
 102 609 81 582 64 554 c 1
 56 554 l 1
 45 598 l 1
 47 600 l 2
 63 613 91 637 138 637 c 0
 185 637 240 620 240 536 c 0
 240 529 238 429 238 411 c 0
EndSplineSet
Validated: 1
EndChar

StartChar: guillemotleft
Encoding: 171 171 107
Width: 543
GlyphClass: 2
Flags: W
LayerCount: 2
Fore
SplineSet
156 215 m 1
 193.5 172.5 231 124 283 45 c 1
 280.5 35 269.5 27.2001953125 259 26 c 1
 179.5 111.5 129.5 160 74 209 c 1
 74 221 l 1
 129.5 270 179.5 318.5 259 404 c 1
 269.5 402.799804688 280.5 395 283 385 c 1
 231 306 193.5 257.5 156 215 c 1
336 215 m 1
 373.5 172.5 411 124 463 45 c 1
 460.5 35 449.5 27.2001953125 439 26 c 1
 359.5 111.5 309.5 160 254 209 c 1
 254 221 l 1
 309.5 270 359.5 318.5 439 404 c 1
 449.5 402.799804688 460.5 395 463 385 c 1
 411 306 373.5 257.5 336 215 c 1
EndSplineSet
Validated: 524289
Substitution2: "'c2sc' Capitals to Small Capitals lookup 12 subtable" guillemotleft.sc
Substitution2: "'case' Case-Sensitive Forms lookup 8 subtable" guillemotleft.sc
EndChar

StartChar: logicalnot
Encoding: 172 172 108
Width: 560
GlyphClass: 2
Flags: MW
HStem: 357 44<24 483 24 537>
VStem: 483 54<133 357 357 357>
LayerCount: 2
Fore
SplineSet
483 133 m 1
 483 357 l 1
 24 357 l 1
 24 401 l 1
 537 401 l 1
 537 133 l 1
 483 133 l 1
EndSplineSet
Validated: 1
EndChar

StartChar: uni00AD
Encoding: 173 173 109
Width: 333
GlyphClass: 2
Flags: MW
HStem: 236 54<43.5 287 58 274>
VStem: 33 268<248.5 276.5>
LayerCount: 2
Fore
SplineSet
274 236 m 2
 48 236 l 2
 39 236 33 244 33 253 c 0
 33 269 46 290 58 290 c 2
 287 290 l 2
 297 290 301 281 301 272 c 0
 301 261 287 236 274 236 c 2
EndSplineSet
Validated: 1
EndChar

StartChar: registered
Encoding: 174 174 110
Width: 633
GlyphClass: 2
Flags: MW
HStem: 23 32<247 386 247 395> 176 17 288 24<286 288.5> 421 24<201.5 205 205 216 313.5 335 335 343> 557 31<247 386.5>
VStem: 34 31<237 375.5 237 384> 239 47<216 288 312 396> 376 55<350.5 385 350.5 387> 568 31<236.5 375.5>
LayerCount: 2
Fore
SplineSet
317 23 m 0
 160 23 34 151 34 306 c 0
 34 462 161 588 317 588 c 0
 473 588 599 462 599 306 c 0
 599 150 473 23 317 23 c 0
317 557 m 0
 177 557 65 445 65 306 c 0
 65 168 177 55 317 55 c 0
 455 55 568 167 568 306 c 0
 568 445 456 557 317 557 c 0
431 370 m 0
 431 331 404 306 373 296 c 1
 421 214 l 2
 432 195.200195312 448 190 464 193 c 1
 468 176 l 1
 456 171 444 169 432 169 c 0
 412 169 388 175 371 204 c 2
 323 284 l 2
 319 287 291 288 286 288 c 1
 286 216 l 2
 286 203 290 196.099609375 298 195 c 2
 312 193 l 2
 320 192 323 192 323 187 c 2
 323 171 l 1
 321 169 l 1
 321 169 280 171 262 171 c 0
 242 171 201 169 201 169 c 1
 199 171 l 1
 199 188 l 2
 199 192 202 192 209 193 c 2
 226 195 l 2
 234 196 239 203 239 216 c 2
 239 396 l 2
 239 413 228 421 216 421 c 2
 205 421 l 2
 198 421 197 423 197 426 c 2
 197 443 l 1
 199 445 l 1
 335 445 l 2
 410 445 431 400 431 370 c 0
376 370 m 0
 376 404 360 421 326 421 c 0
 301 421 286 414 286 396 c 2
 286 312 l 1
 318 312 l 2
 348 312 376 319 376 370 c 0
EndSplineSet
Validated: 524321
EndChar

StartChar: macron
Encoding: 175 175 111
Width: 397
GlyphClass: 2
Flags: MW
HStem: 529 44<66.5 325 81 315>
VStem: 59 280<540.5 562>
LayerCount: 2
Fore
SplineSet
315 529 m 2
 71 529 l 2
 62 529 59 537 59 544 c 0
 59 556 69 573 81 573 c 2
 325 573 l 2
 335 573 339 565 339 559 c 0
 339 547 328 529 315 529 c 2
EndSplineSet
Validated: 1
EndChar

StartChar: degree
Encoding: 176 176 112
Width: 267
GlyphClass: 2
Flags: MW
HStem: 426 28<113 154.5 113 161.5> 597 28<112.5 156.5>
VStem: 34 33<506.5 542 506.5 553> 200 33<507 540.5>
LayerCount: 2
Fore
SplineSet
200 524 m 0
 200 557 179 597 134 597 c 0
 91 597 67 560 67 524 c 0
 67 489 92 454 134 454 c 0
 175 454 200 490 200 524 c 0
34 525 m 0
 34 581 79 625 134 625 c 0
 189 625 233 581 233 525 c 0
 233 470 189 426 134 426 c 0
 79 426 34 470 34 525 c 0
EndSplineSet
Validated: 1
EndChar

StartChar: plusminus
Encoding: 177 177 113
Width: 527
GlyphClass: 2
Flags: MW
HStem: 19 49<66 461 66 461> 293 49<66 238 66 238 289 461>
VStem: 238 51<119 293 119 293 342 516>
LayerCount: 2
Fore
SplineSet
289 342 m 1
 461 342 l 1
 461 293 l 1
 289 293 l 1
 289 119 l 1
 238 119 l 1
 238 293 l 1
 66 293 l 1
 66 342 l 1
 238 342 l 1
 238 516 l 1
 289 516 l 1
 289 342 l 1
461 68 m 1
 461 19 l 1
 66 19 l 1
 66 68 l 1
 461 68 l 1
EndSplineSet
Validated: 1
EndChar

StartChar: uni00B2
Encoding: 178 178 114
Width: 311
GlyphClass: 2
Flags: MW
HStem: 362 55 660 29<124 143.35>
VStem: 184 72<591.35 613.65>
LayerCount: 2
Fore
SplineSet
71 615 m 1
 58 615 l 1
 47 657 l 1
 49 659 l 2
 71 679 102 689 142 689 c 0
 176 689 203 682 223 668 c 0
 245 653.299804688 256 632.299804688 256 605 c 0
 256 577.700195312 238.700195312 547.700195312 204 515 c 2
 151 463 l 2
 127.700195312 439.700195312 116 424.299804688 116 417 c 1
 159 417 l 2
 179 417 212 418.700195312 258 422 c 1
 256 412.700195312 255 401 255 387 c 0
 255 379.700195312 256 371.299804688 258 362 c 1
 222.700195312 363.299804688 192 364 166 364 c 0
 146.700195312 364 104.299804688 363.299804688 39 362 c 1
 38 364 l 1
 38 386.700195312 62.2998046875 423 111 473 c 2
 151 512 l 2
 173 534.700195312 184 566 184 606 c 0
 184 621.299804688 178.700195312 634.299804688 168 645 c 0
 158.700195312 655 148.700195312 660 138 660 c 0
 110 660 87.7001953125 645 71 615 c 1
EndSplineSet
Validated: 524289
EndChar

StartChar: uni00B3
Encoding: 179 179 115
Width: 313
GlyphClass: 2
Flags: MW
HStem: 358 28<126 142 126 152> 413 20G<70 70> 520 24<114 153.65> 661 27<140 154>
VStem: 187 62<598.35 619> 193 72<444.35 471.65 442.65 478.65>
LayerCount: 2
Fore
SplineSet
171 399 m 0xf4
 185.700195312 411 193 430.700195312 193 458 c 0xf4
 193 499.299804688 173.299804688 520 134 520 c 0
 124.700195312 520 118 519.700195312 114 519 c 1
 114 544 l 1
 162.700195312 546 187 568.700195312 187 612 c 0
 187 626 183.299804688 637.700195312 176 647 c 0
 168 656.299804688 159 661 149 661 c 0
 131 661 117.299804688 657 108 649 c 0
 100 643 91.2998046875 631.299804688 82 614 c 1
 69 614 l 1
 58 656 l 1
 59 659 l 1
 81.7001953125 678.299804688 113 688 153 688 c 0
 180.299804688 688 202.700195312 683 220 673 c 0
 239.299804688 661 249 643.299804688 249 620 c 0xf8
 249 576.700195312 228 549.700195312 186 539 c 1
 186 537 l 1
 208 535 226 528 240 516 c 0
 256.700195312 502 265 483.299804688 265 460 c 0
 265 425.299804688 251 399 223 381 c 0
 199.700195312 365.700195312 170 358 134 358 c 0
 99.2998046875 358 70.7001953125 368 48 388 c 2
 46 390 l 1
 58 432 l 1
 70 433 l 1
 80.7001953125 414.299804688 88.7001953125 402.700195312 94 398 c 0
 103.299804688 390 117 386 135 386 c 0
 149 386 161 390.299804688 171 399 c 0xf4
EndSplineSet
Validated: 524289
EndChar

StartChar: acute
Encoding: 180 180 116
Width: 341
GlyphClass: 2
Flags: MW
HStem: 543 160<98.5 175>
VStem: 88 156<552.5 682>
LayerCount: 2
Fore
SplineSet
175 703 m 2
 178 704 184 705 189 705 c 0
 195.400390625 705 221 704 244 682 c 1
 247 671 l 1
 132 562 l 2
 117 547 109 543 102 543 c 0
 95 543 88 549 88 556 c 0
 88 567.200195312 91.2998046875 571.200195312 99.400390625 584 c 2
 175 703 l 2
EndSplineSet
Validated: 524289
EndChar

StartChar: mu
Encoding: 181 181 117
Width: 486
GlyphClass: 2
Flags: MW
HStem: -234 21G<93 112.5> -10 45<171.5 209.5> 419 20G<126 126 399 399>
VStem: 47 95<-189.5 -152.5 -194.5 -143.5> 54 75<134 147 147 322 322 336> 63 47<-28.5 6.5 -28.5 8.5> 324 75<40.5 124 99 124 124 429 429 429>
LayerCount: 2
Fore
SplineSet
101 -234 m 0xf2
 85 -234 47 -210 47 -169 c 0xf2
 47 -118 63 -71 63 -8 c 0xe6
 63 25 54 76 54 134 c 2
 54 322 l 2
 54 350 44 429 44 429 c 1
 67 429 98 436 126 439 c 1
 126 439 129 375 129 343 c 2
 129 147 l 2xea
 129 82 145 35 198 35 c 0
 252 35 302 66 324 99 c 1
 324 429 l 1
 348 429 374 436 399 439 c 1
 399 124 l 2
 399 61 399 37 425 37 c 0
 438 37 448 52 459 79 c 1
 483 68 l 1
 464 18 444 -10 392 -10 c 0
 354 -10 324 21 324 60 c 1
 284 16 240 -10 179 -10 c 0
 157 -10 133 0 122 13 c 1
 116 13 110 9 110 4 c 0xe6
 110 -61 142 -131 142 -174 c 0
 142 -215 124 -234 101 -234 c 0xf2
EndSplineSet
Validated: 1
EndChar

StartChar: paragraph
Encoding: 182 182 118
Width: 602
GlyphClass: 2
Flags: MW
HStem: -232 33<395.5 418.5 395.5 424> 612 33<395.5 418.5>
VStem: 317 50<-32 285 285 285> 448 50<-69.5 -32 -32 445>
LayerCount: 2
Fore
SplineSet
367 574 m 2
 367 -161 l 2
 367 -188 384 -199 407 -199 c 0
 430 -199 448 -192 448 -161 c 2
 448 574 l 2
 448 605 430 612 407 612 c 0
 384 612 367 601 367 574 c 2
408 645 m 0
 443 645 507 648 507 648 c 1
 508 645 l 1
 500 592 498 520 498 445 c 2
 498 -32 l 2
 498 -107 500 -175 508 -232 c 1
 506 -235 l 1
 506 -235 441 -232 407 -232 c 0
 373 -232 309 -235 309 -235 c 1
 307 -232 l 1
 315 -175 317 -107 317 -32 c 2
 317 285 l 1
 308 283 300 282 285 282 c 0
 139 282 57 347 57 481 c 0
 57 560 115 647 247 647 c 0
 322 647 381 645 408 645 c 0
EndSplineSet
Validated: 1
EndChar

StartChar: periodcentered
Encoding: 183 183 119
Width: 250
GlyphClass: 2
Flags: MW
HStem: 197.25 112.5<109.475 140.525>
VStem: 68.75 112.5<237.975 269.025>
LayerCount: 2
Fore
SplineSet
68.75 253.5 m 0
 68.75 284.549804688 93.9501953125 309.75 125 309.75 c 0
 156.049804688 309.75 181.25 284.549804688 181.25 253.5 c 0
 181.25 222.450195312 156.049804688 197.25 125 197.25 c 0
 93.9501953125 197.25 68.75 222.450195312 68.75 253.5 c 0
EndSplineSet
Validated: 524289
EndChar

StartChar: cedilla
Encoding: 184 184 120
Width: 541
GlyphClass: 2
Flags: MW
HStem: -200 29<274 299 274 320.5> -96 32<292.5 346> -20 20G<291 325 325 325>
VStem: 335 62<-144 -120.5>
LayerCount: 2
Fore
SplineSet
302 -96 m 0
 283 -96 273 -97 257 -102 c 1
 251 -96 l 1
 291 0 l 1
 325 0 l 1
 300 -67 l 1
 308 -65 317 -64 326 -64 c 0
 366 -64 397 -88 397 -126 c 0
 397 -169 351 -200 290 -200 c 0
 258 -200 241 -194 216 -183 c 1
 216 -171 219 -164 226 -157 c 1
 253 -167 264 -171 284 -171 c 0
 314 -171 335 -157 335 -131 c 0
 335 -110 325 -96 302 -96 c 0
EndSplineSet
Validated: 1
EndChar

StartChar: uni00B9
Encoding: 185 185 121
Width: 384
GlyphClass: 2
Flags: MW
HStem: 625 23<112 113> 668 20G<246 247>
VStem: 181 62<464 594 594 599>
LayerCount: 2
Fore
SplineSet
243 464 m 2
 243 425.299804688 245.299804688 392 250 364 c 1
 249 362 l 1
 237 363.299804688 224.299804688 364 211 364 c 0
 198.299804688 364 186.299804688 363.299804688 175 362 c 1
 175 364 l 1
 179 388 181 421.299804688 181 464 c 2
 181 594 l 2
 181 616.700195312 177.700195312 628 171 628 c 0
 147.700195312 628 128.299804688 627 113 625 c 1
 112 648 l 1
 134 653.299804688 178.700195312 666.700195312 246 688 c 0
 248 688 249 687 249 685 c 0
 245 657.700195312 243 629 243 599 c 2
 243 464 l 2
EndSplineSet
Validated: 524289
EndChar

StartChar: ordmasculine
Encoding: 186 186 122
Width: 349
GlyphClass: 2
Flags: MW
HStem: 358 28<153 196.5 153 219> 596 25<146 196>
VStem: 39 58<469.5 521 469.5 526.5> 254 57<456 514>
LayerCount: 2
Fore
SplineSet
39 484 m 0
 39 569 91 621 177 621 c 0
 275 621 311 557 311 490 c 0
 311 422 266 358 172 358 c 0
 98 358 39 412 39 484 c 0
171 596 m 0
 121 596 97 548 97 494 c 0
 97 445 123 386 183 386 c 0
 210 386 254 402 254 474 c 0
 254 554 221 596 171 596 c 0
EndSplineSet
Validated: 1
EndChar

StartChar: guillemotright
Encoding: 187 187 123
Width: 543
GlyphClass: 2
Flags: W
LayerCount: 2
Fore
SplineSet
387 215 m 1
 349.5 257.5 312 306 260 385 c 1
 262.5 395 273.5 402.799804688 284 404 c 1
 363.5 318.5 413.5 270 469 221 c 1
 469 209 l 1
 413.5 160 363.5 111.5 284 26 c 1
 273.5 27.2001953125 262.5 35 260 45 c 1
 312 124 349.5 172.5 387 215 c 1
207 215 m 1
 169.5 257.5 132 306 80 385 c 1
 82.5 395 93.5 402.799804688 104 404 c 1
 183.5 318.5 233.5 270 289 221 c 1
 289 209 l 1
 233.5 160 183.5 111.5 104 26 c 1
 93.5 27.2001953125 82.5 35 80 45 c 1
 132 124 169.5 172.5 207 215 c 1
EndSplineSet
Validated: 524289
Substitution2: "'c2sc' Capitals to Small Capitals lookup 12 subtable" guillemotright.sc
Substitution2: "'case' Case-Sensitive Forms lookup 8 subtable" guillemotright.sc
EndChar

StartChar: onequarter
Encoding: 188 188 124
Width: 660
GlyphClass: 3
LigCaretCntFixed: 1
Flags: MW
HStem: 8 35<387.35 505 408 505 408 505 568 598> 576 23<109 110>
VStem: 178 62<415 545 545 550> 505 63<-3 8 43 170>
LayerCount: 2
Fore
SplineSet
240 415 m 2
 240 376.299804688 242.299804688 343 247 315 c 1
 246 313 l 1
 234 314.299804688 221.299804688 315 208 315 c 0
 195.299804688 315 183.299804688 314.299804688 172 313 c 1
 172 315 l 1
 176 339 178 372.299804688 178 415 c 2
 178 545 l 2
 178 567.700195312 174.700195312 579 168 579 c 0
 144.700195312 579 125.299804688 578 110 576 c 1
 109 599 l 1
 131 604.299804688 175.700195312 617.700195312 243 639 c 0
 245 639 246 638 246 636 c 0
 242 608.700195312 240 580 240 550 c 2
 240 415 l 2
397 8 m 2
 377.700195312 8 367.700195312 10.2998046875 367 15 c 0
 367 26.2998046875 369 34.7001953125 373 40 c 0
 413.700195312 94.7001953125 459.299804688 164.299804688 510 249 c 1
 510 251 l 1
 514 249.700195312 522.700195312 249 536 249 c 0
 548.700195312 249 560.700195312 249.700195312 572 251 c 1
 573 249 l 1
 569.700195312 222.299804688 568 196 568 170 c 2
 568 43 l 1
 606 43 l 2
 610.700195312 43 613 39.2998046875 613 32 c 0
 613 28.7001953125 611.700195312 24 609 18 c 0
 605 11.2998046875 601.299804688 8 598 8 c 2
 568 8 l 1
 568 -18 569.700195312 -44 573 -70 c 1
 572 -72 l 1
 560.700195312 -70.7001953125 548.700195312 -70 536 -70 c 0
 522.700195312 -70 510.299804688 -70.7001953125 499 -72 c 1
 499 -70 l 1
 503 -40 505 -14 505 8 c 1
 397 8 l 2
408 43 m 1
 505 43 l 1
 505 196 l 1
 408 43 l 1
557 601 m 1
 598 593 l 1
 140 -62 l 1
 98 -54 l 1
 557 601 l 1
EndSplineSet
Validated: 524289
Ligature2: "'frac' Diagonal Fractions lookup 5 subtable" one slash four
LCarets2: 2 215 424
EndChar

StartChar: onehalf
Encoding: 189 189 125
Width: 660
GlyphClass: 3
LigCaretCntFixed: 1
Flags: MW
HStem: -81 55 217 29<482 501.35> 576 23<111 112>
VStem: 180 62<415 545 545 550> 542 72<148.35 170.65>
LayerCount: 2
Fore
SplineSet
429 172 m 1
 416 172 l 1
 405 214 l 1
 407 216 l 2
 429 236 460 246 500 246 c 0
 534 246 561 239 581 225 c 0
 603 210.299804688 614 189.299804688 614 162 c 0
 614 134.700195312 596.700195312 104.700195312 562 72 c 2
 509 20 l 2
 485.700195312 -3.2998046875 474 -18.7001953125 474 -26 c 1
 517 -26 l 2
 537 -26 570 -24.2998046875 616 -21 c 1
 614 -30.2998046875 613 -42 613 -56 c 0
 613 -63.2998046875 614 -71.7001953125 616 -81 c 1
 580.700195312 -79.7001953125 550 -79 524 -79 c 0
 504.700195312 -79 462.299804688 -79.7001953125 397 -81 c 1
 396 -79 l 1
 396 -56.2998046875 420.299804688 -20 469 30 c 2
 509 69 l 2
 531 91.7001953125 542 123 542 163 c 0
 542 178.299804688 536.700195312 191.299804688 526 202 c 0
 516.700195312 212 506.700195312 217 496 217 c 0
 468 217 445.700195312 202 429 172 c 1
242 415 m 2
 242 376.299804688 244.299804688 343 249 315 c 1
 248 313 l 1
 236 314.299804688 223.299804688 315 210 315 c 0
 197.299804688 315 185.299804688 314.299804688 174 313 c 1
 174 315 l 1
 178 339 180 372.299804688 180 415 c 2
 180 545 l 2
 180 567.700195312 176.700195312 579 170 579 c 0
 146.700195312 579 127.299804688 578 112 576 c 1
 111 599 l 1
 133 604.299804688 177.700195312 617.700195312 245 639 c 0
 247 639 248 638 248 636 c 0
 244 608.700195312 242 580 242 550 c 2
 242 415 l 2
532 601 m 1
 574 593 l 1
 115 -62 l 1
 74 -54 l 1
 532 601 l 1
EndSplineSet
Validated: 524289
Ligature2: "'frac' Diagonal Fractions lookup 5 subtable" one slash two
LCarets2: 2 208 414
EndChar

